<svg width="40" height="40" viewBox="0 0 40 40" fill="none" xmlns="http://www.w3.org/2000/svg">
<g id="Frame">
<g id="Group">
<path id="Vector" d="M40 31.4282C40 32.7341 38.9414 33.7928 37.6355 33.7928H2.36445C1.05859 33.7929 0 32.7341 0 31.4282V8.57164C0 7.26578 1.05859 6.20711 2.36445 6.20711H37.6355C38.9415 6.20711 40 7.26578 40 8.57164V31.4282Z" fill="#306FC5"/>
<path id="Vector_2" opacity="0.15" d="M1.68102 31.4282V8.57164C1.68102 7.26578 2.73977 6.20711 4.04563 6.20711H2.36438C1.05859 6.20711 0 7.2657 0 8.57164V31.4283C0 32.7342 1.05859 33.7929 2.36445 33.7929H4.0457C2.73984 33.7929 1.68102 32.7341 1.68102 31.4282Z" fill="#202121"/>
<path id="Vector_3" d="M5.82812 17.2459H7.02328L6.42586 15.7248L5.82812 17.2459ZM12.1841 22.3521V23.0584H14.1941V23.8191H12.1841V24.6342H14.4113L15.4434 23.4931L14.4657 22.3521H12.1841ZM27.8834 15.7248L27.2315 17.2459H28.4811L27.8834 15.7248ZM17.9967 25.0684V21.9719L16.5842 23.4931L17.9967 25.0684ZM20.6586 22.8412C20.6042 22.5153 20.3867 22.3521 20.0606 22.3521H18.9201V23.3299H20.1153C20.4412 23.33 20.6586 23.1671 20.6586 22.8412ZM24.4609 23.2216C24.5696 23.1671 24.6241 23.004 24.6241 22.8413C24.6785 22.6242 24.5696 22.5154 24.4609 22.461C24.3526 22.4066 24.1894 22.4066 24.0266 22.4066H22.9399V23.2759H24.0266C24.1893 23.2759 24.3525 23.2759 24.4609 23.2216Z" fill="white"/>
<path id="Vector_4" d="M32.2827 14.3123V14.9642L31.957 14.3123H29.4041V14.9642L29.078 14.3123H25.6012C25.0037 14.3123 24.5146 14.4211 24.0802 14.6384V14.3123H21.6358V14.6384C21.3642 14.4212 21.0383 14.3123 20.6037 14.3123H11.8576L11.2598 15.6705L10.6623 14.3123H7.89187V14.9642L7.62023 14.3123H5.23L4.14336 16.8655L2.89406 19.6359L2.87109 19.6904H5.6993L5.71898 19.6359L6.04508 18.8213H6.75125L7.07719 19.6904H10.2277V19.0385L10.4995 19.6903H12.0747L12.3462 19.0385V19.6904H19.8973V18.2779H20.0062C20.1147 18.2779 20.1147 18.2779 20.1147 18.4409V19.636H24.026V19.3101C24.352 19.4733 24.8405 19.636 25.4925 19.636H27.1224L27.4484 18.767H28.2087L28.5346 19.636H31.6852V18.8213L32.1744 19.636H34.7275V14.3123H32.2827ZM13.8674 18.8757H12.9982V15.8878L12.9438 16.0124V16.0109L11.6801 18.8757H10.8795L9.57578 15.8878V18.8757H7.72891L7.34867 18.0609H5.50148L5.12117 18.8757H4.16625L5.77328 15.073H7.13125L8.65227 18.7126V15.073H10.0915L10.1171 15.1274H10.119L10.8044 16.6191L11.2966 17.7368L11.314 17.6805L12.4004 15.0731H13.8673V18.8757H13.8674ZM17.6159 15.8878H15.4972V16.594H17.5615V17.3545H15.4972V18.1152H17.6159V18.9298H14.5738V15.0731H17.6159V15.8878ZM21.4905 17.2886C21.4919 17.2898 21.4937 17.2907 21.4954 17.2919C21.5159 17.3136 21.5335 17.3354 21.5485 17.3563C21.6526 17.4927 21.7367 17.6956 21.7409 17.9931L21.7418 18.0084C21.7418 18.0114 21.7423 18.014 21.7423 18.017L21.7422 18.0217C21.7434 18.0516 21.7442 18.0822 21.7442 18.1152V18.8758H20.9295V18.441C20.9295 18.2238 20.9295 17.8977 20.7663 17.6805C20.7208 17.6339 20.6664 17.5968 20.6065 17.5713C20.5251 17.5185 20.3708 17.5177 20.1147 17.5177H19.1366V18.8758H18.2133V15.0731H20.2777C20.7663 15.0731 21.0924 15.0731 21.3641 15.236C21.6303 15.3959 21.7911 15.6609 21.7972 16.0807C21.7846 16.6588 21.4135 16.976 21.1467 17.083C21.1467 17.083 21.328 17.1195 21.4905 17.2886ZM23.3198 18.8757H22.3962V15.073H23.3198V18.8757ZM33.9129 18.8757H32.7176L30.9793 15.9964V18.3866L30.9736 18.381V18.8781H30.0559V18.8758H29.1323L28.8063 18.0609H26.9048L26.5789 18.9299H25.5468C25.1125 18.9299 24.5689 18.8214 24.2431 18.4955C23.9172 18.1695 23.7544 17.7349 23.7544 17.0288C23.7544 16.4856 23.8629 15.942 24.2431 15.5076C24.5145 15.1814 25.0037 15.0731 25.6011 15.0731H26.4705V15.8878H25.6011C25.2752 15.8878 25.1125 15.942 24.8948 16.1052C24.7321 16.2681 24.6234 16.594 24.6234 16.9742C24.6234 17.4089 24.6777 17.6805 24.8948 17.8977C25.0581 18.0609 25.2752 18.1153 25.5468 18.1153H25.927L27.1763 15.1276H28.5345L30.0558 18.7672V15.1277H31.4137L32.9888 17.7894V15.1277H33.9127V18.8759H33.9129V18.8757Z" fill="white"/>
<path id="Vector_5" d="M20.7161 16.6568C20.732 16.6398 20.7463 16.6206 20.7585 16.5986C20.8077 16.5207 20.8641 16.3804 20.8337 16.1889C20.8324 16.1722 20.8296 16.1556 20.8255 16.1394C20.8245 16.135 20.8247 16.1312 20.8235 16.1268L20.823 16.1269C20.7959 16.0338 20.727 15.9766 20.6581 15.942C20.5492 15.8878 20.3862 15.8878 20.2234 15.8878H19.1367V16.7571H20.2234C20.3862 16.7571 20.5493 16.7571 20.6581 16.7027C20.6745 16.6944 20.689 16.6831 20.703 16.6704L20.7031 16.6711C20.7032 16.671 20.7088 16.6652 20.7161 16.6568ZM37.118 24.3081C37.118 23.9279 37.0095 23.5475 36.8466 23.2759V20.8315H36.8441V20.6683H34.2282C33.8895 20.6683 33.4784 20.9941 33.4784 20.9941V20.6683H30.9796C30.5991 20.6683 30.1105 20.777 29.893 20.9941V20.6683H25.4386V20.9941C25.1129 20.7227 24.5148 20.6682 24.2434 20.6682H21.3099V20.994C21.0384 20.7226 20.3862 20.6681 20.0601 20.6681H16.8012L16.0405 21.4831L15.3342 20.6681H10.4453V26.1551H15.2258L16.0112 25.3694L16.6921 26.1551H19.7345V24.9057H20.0063C20.3862 24.9057 20.8753 24.9057 21.2555 24.7425V26.2094H23.7002V24.7969H23.8085C23.9717 24.7969 23.9717 24.7969 23.9717 24.9598V26.2094H31.3595C31.8487 26.2094 32.3373 26.1005 32.6089 25.8832V26.2094H34.945C35.4336 26.2094 35.9229 26.1551 36.2488 25.9377C36.749 25.6376 37.0642 25.1064 37.1111 24.4729C37.1133 24.4541 37.116 24.4354 37.1177 24.4166L37.1145 24.4135C37.1166 24.3784 37.118 24.3436 37.118 24.3081ZM20.0063 23.9823H18.9196V25.3945H17.1341L16.0948 24.1993L16.0912 24.2033L16.0405 24.1448L14.8454 25.3945H11.3687V21.592H14.8998L15.8645 22.6486L16.0673 22.8698L16.0948 22.8413L17.2357 21.592H20.1148C20.6735 21.592 21.2992 21.7299 21.5363 22.2984C21.5648 22.411 21.5814 22.5362 21.5814 22.6784C21.5814 23.7648 20.8209 23.9823 20.0063 23.9823ZM25.4386 23.9278C25.5471 24.0904 25.6015 24.3081 25.6015 24.6341V25.3945H24.6781V24.9057C24.6781 24.6881 24.6781 24.3081 24.5149 24.1448C24.4066 23.9823 24.189 23.9823 23.8633 23.9823H22.8855V25.3945H21.9621V21.5376H24.0262C24.4605 21.5376 24.8408 21.5376 25.1129 21.7004C25.3843 21.8635 25.6015 22.1352 25.6015 22.5698C25.6015 23.1672 25.2214 23.4931 24.9497 23.602C25.2214 23.7102 25.3843 23.8191 25.4386 23.9278ZM29.187 22.3521H27.0681V23.0584H29.1325V23.8191H27.0681V24.5797H29.187V25.3945H26.1449V21.5375H29.187V22.3521ZM31.4684 25.3945H29.73V24.5798H31.4684C31.6311 24.5798 31.74 24.5798 31.8489 24.471C31.9033 24.4166 31.9573 24.3081 31.9573 24.1994C31.9573 24.0905 31.9033 23.9823 31.8489 23.9279C31.7944 23.8736 31.6855 23.8192 31.5227 23.8192C30.6534 23.7648 29.6213 23.8192 29.6213 22.6242C29.6213 22.0809 29.9473 21.4833 30.9252 21.4833H32.7177V22.4066H31.0338C30.8709 22.4066 30.7621 22.4066 30.6534 22.461C30.545 22.5155 30.545 22.6242 30.545 22.7327C30.545 22.8958 30.6534 22.9502 30.762 23.0041C30.8709 23.0585 30.9795 23.0585 31.088 23.0585H31.577C32.0659 23.0585 32.3918 23.1672 32.6091 23.3845C32.7721 23.5476 32.8808 23.8192 32.8808 24.1994C32.8808 25.014 32.3919 25.3945 31.4684 25.3945ZM36.1402 25.014C35.9232 25.2316 35.5427 25.3945 34.9993 25.3945H33.2613V24.5798H34.9992C35.1623 24.5798 35.2712 24.5798 35.3797 24.471C35.4338 24.4166 35.4884 24.3081 35.4884 24.1994C35.4884 24.0905 35.4338 23.9823 35.3797 23.9279C35.3253 23.8736 35.2168 23.8192 35.0538 23.8192C34.1848 23.7648 33.1524 23.8192 33.1524 22.6243C33.1524 22.108 33.4478 21.6416 34.1763 21.5031C34.2691 21.49 34.3626 21.4834 34.4562 21.4833H36.2491V22.4066H34.5649C34.4019 22.4066 34.2934 22.4066 34.1848 22.461C34.1302 22.5155 34.0758 22.6242 34.0758 22.7327C34.0758 22.8958 34.1302 22.9502 34.2934 23.0041C34.4019 23.0585 34.5105 23.0585 34.6193 23.0585H35.108C35.3455 23.0585 35.525 23.0878 35.6893 23.1456C35.8398 23.2 36.3379 23.4228 36.4493 24.0045C36.459 24.0654 36.4661 24.129 36.4661 24.1994C36.4661 24.5254 36.3574 24.797 36.1402 25.014Z" fill="white"/>
</g>
</g>
</svg>
