<svg width="29" height="24" viewBox="0 0 29 24" fill="none" xmlns="http://www.w3.org/2000/svg">
<g clip-path="url(#clip0_2074_1932)">
<path d="M0.189711 11.6155L6.72126 6.161C6.95589 5.93221 7.36823 5.90554 7.6422 6.10152C7.91618 6.29746 7.94811 6.64179 7.71343 6.87059C7.69154 6.89191 7.66774 6.91183 7.6422 6.93007L2.22754 11.4573H28.0861C28.4468 11.4573 28.7393 11.7015 28.7393 12.0027C28.7393 12.304 28.4468 12.5482 28.0861 12.5482H2.22754L7.6422 17.0699C7.91618 17.2658 7.94811 17.6102 7.71343 17.839C7.47875 18.0677 7.06647 18.0944 6.79249 17.8984C6.76695 17.8802 6.7431 17.8603 6.72126 17.839L0.189653 12.3845C-0.0635529 12.1718 -0.0635509 11.8282 0.189711 11.6155Z" fill="#076CB3"/>
</g>
<defs>
<clipPath id="clip0_2074_1932">
<rect width="28.7395" height="24" fill="white" transform="matrix(-1 0 0 1 28.7393 0)"/>
</clipPath>
</defs>
</svg>
