<svg width="20" height="20" viewBox="0 0 20 20" fill="none" xmlns="http://www.w3.org/2000/svg">
<g id="Frame">
<g id="Group">
<path id="Vector" d="M4.82713 9.45117L14.0777 0.226167C14.3808 -0.0759023 14.8715 -0.0753945 15.1741 0.227729C15.4764 0.530814 15.4756 1.02179 15.1725 1.32409L6.47255 10L15.1728 18.6759C15.4759 18.9783 15.4767 19.4689 15.1744 19.7721C15.1024 19.8444 15.0169 19.9018 14.9226 19.9409C14.8284 19.98 14.7273 20.0001 14.6253 20C14.5236 20.0001 14.4229 19.9802 14.329 19.9413C14.235 19.9025 14.1497 19.8455 14.0778 19.7736L4.82713 10.5489C4.68115 10.4036 4.59924 10.206 4.59924 10C4.59924 9.7941 4.68139 9.59668 4.82713 9.45117Z" fill="#3D3B3A"/>
</g>
</g>
</svg>
