<svg width="20" height="20" viewBox="0 0 20 20" fill="none" xmlns="http://www.w3.org/2000/svg">
<path d="M19.0237 0.000114441C19.2169 8.01086e-05 19.4058 0.057333 19.5664 0.164637C19.727 0.27194 19.8522 0.424473 19.9261 0.60294C20.0001 0.781404 20.0194 0.977787 19.9817 1.16725C19.944 1.3567 19.851 1.53073 19.7144 1.6673L1.6675 19.7142C1.48433 19.8973 1.2359 20.0002 0.97687 20.0002C0.717836 20.0002 0.46941 19.8973 0.286245 19.7142C0.103081 19.531 0.000177383 19.2826 0.000177383 19.0236C0.000177383 18.7645 0.103081 18.5161 0.286245 18.3329L18.3331 0.286053C18.4237 0.195255 18.5314 0.123253 18.6499 0.0741844C18.7684 0.0251141 18.8955 -5.72205e-05 19.0237 0.000114441Z" fill="white"/>
<path d="M0.976923 8.39233e-05C1.1052 -8.7738e-05 1.23224 0.0250835 1.35076 0.0741539C1.46928 0.123222 1.57694 0.195225 1.66755 0.286022L19.7144 18.3329C19.8976 18.5161 20.0005 18.7645 20.0005 19.0235C20.0005 19.2826 19.8976 19.531 19.7144 19.7141C19.5313 19.8973 19.2828 20.0002 19.0238 20.0002C18.7648 20.0002 18.5163 19.8973 18.3332 19.7141L0.286299 1.66727C0.149687 1.5307 0.0566502 1.35667 0.0189533 1.16722C-0.0187435 0.977757 0.000597 0.781374 0.0745258 0.602909C0.148455 0.424442 0.273651 0.27191 0.43428 0.164606C0.594908 0.0573025 0.783752 4.95911e-05 0.976923 8.39233e-05Z" fill="white"/>
</svg>
