<svg width="40" height="40" viewBox="0 0 40 40" fill="none" xmlns="http://www.w3.org/2000/svg">
<g id="Frame" clip-path="url(#clip0_2210_3080)">
<g id="Group">
<g id="Group_2">
<path id="Vector" fill-rule="evenodd" clip-rule="evenodd" d="M37 7.5H2C1 7.5 0 8.5 0 9.5V29.5C0 31.5 1 32.5 3 32.5H37C39 32.5 40 31.5 40 29.5V10.5C40 8.5 39 7.5 37 7.5Z" fill="#F4F4F4"/>
<path id="Vector_2" fill-rule="evenodd" clip-rule="evenodd" d="M12.3867 32.5H37.001C39.001 32.5 40.001 31.5 40.001 29.5V17.6073C40.001 17.6073 34.041 28.1008 12.3867 32.5Z" fill="#D97B16"/>
<path id="Vector_3" fill-rule="evenodd" clip-rule="evenodd" d="M13.0095 19.73H13.369L14.4815 21.3905H14.4872V19.7303H14.7612V21.75H14.4132L13.2892 20.0898H13.2835V21.75H13.0095V19.73ZM15.2805 19.73H16.5842V19.987H15.5542V20.589H16.5127V20.8458H15.5542V21.4933H16.6355V21.75H15.2805V19.73ZM17.4457 19.987H16.7952V19.73H18.3702V19.9868H17.7195V21.75H17.4457V19.987ZM18.4042 19.7303H18.6895L19.1345 21.345H19.1402L19.6167 19.73H19.9305L20.407 21.345H20.4127L20.8577 19.73H21.143L20.5555 21.75H20.2672L19.7765 20.101H19.7707L19.283 21.75H18.9947L18.4042 19.7303ZM22.3325 21.8013C22.1868 21.8029 22.0423 21.7752 21.9075 21.72C21.7782 21.6658 21.6675 21.5913 21.575 21.496C21.4825 21.4008 21.4107 21.2888 21.3585 21.1595C21.3062 21.0303 21.28 20.8903 21.28 20.74C21.28 20.59 21.306 20.45 21.3585 20.3208C21.411 20.1915 21.483 20.0793 21.5752 19.984C21.6675 19.8888 21.7782 19.8143 21.9077 19.7603C22.0425 19.7049 22.187 19.6772 22.3327 19.6788C22.4867 19.6788 22.6282 19.706 22.7577 19.7603C22.887 19.8143 22.9977 19.889 23.0902 19.984C23.1822 20.079 23.2545 20.1915 23.3067 20.3208C23.359 20.45 23.3852 20.5898 23.3852 20.74C23.3852 20.8903 23.3592 21.03 23.3067 21.1595C23.2542 21.289 23.1822 21.401 23.09 21.496C22.9956 21.5926 22.8824 21.6688 22.7575 21.72C22.6226 21.7752 22.4781 21.8029 22.3325 21.8013ZM22.3325 21.5445C22.4487 21.5445 22.5532 21.5233 22.6465 21.4805C22.7395 21.4375 22.8195 21.38 22.886 21.308C22.9527 21.2355 23.004 21.1505 23.04 21.0525C23.0762 20.9545 23.0942 20.8505 23.0942 20.74C23.0942 20.63 23.0762 20.5258 23.04 20.4275C23.0059 20.3332 22.9536 20.2465 22.886 20.1725C22.8184 20.0996 22.737 20.0409 22.6465 20C22.5477 19.9559 22.4406 19.9339 22.3325 19.9355C22.2165 19.9355 22.112 19.957 22.0187 19.9998C21.9281 20.0407 21.8467 20.0993 21.7792 20.1723C21.7125 20.2448 21.6612 20.3298 21.625 20.4278C21.5885 20.5279 21.5702 20.6337 21.571 20.7403C21.571 20.8503 21.589 20.9545 21.625 21.0525C21.6612 21.1505 21.7125 21.2355 21.7792 21.3078C21.8457 21.3803 21.9255 21.4378 22.0187 21.4803C22.112 21.5233 22.2165 21.5445 22.3325 21.5445ZM23.779 19.7303H24.4892C24.6187 19.7303 24.7252 19.7478 24.8087 19.7828C24.8922 19.8178 24.9587 19.8628 25.0072 19.917C25.0557 19.9713 25.0895 20.032 25.1085 20.0995C25.1275 20.167 25.137 20.2323 25.137 20.295C25.1369 20.4238 25.0898 20.5481 25.0045 20.6445C24.9615 20.693 24.9092 20.734 24.8475 20.767C24.7832 20.8011 24.7129 20.822 24.6405 20.8285L25.214 21.75H24.8715L24.358 20.86H24.053V21.75H23.779V19.7303ZM24.0527 20.6203H24.4122C24.4655 20.6203 24.5182 20.616 24.5707 20.6075C24.6232 20.599 24.6695 20.5833 24.7105 20.5603C24.7512 20.5378 24.7842 20.5048 24.8087 20.462C24.8332 20.4193 24.846 20.3635 24.846 20.295C24.846 20.2265 24.8335 20.171 24.8087 20.1283C24.784 20.0855 24.7512 20.0525 24.7105 20.0298C24.6695 20.007 24.623 19.9913 24.5705 19.9828C24.518 19.9743 24.4655 19.9698 24.4122 19.9698H24.0527V20.6203ZM25.522 19.7303H25.796V20.6033H25.8187L26.7117 19.7303H27.094L26.1182 20.663L27.1595 21.75H26.7602L25.8187 20.74H25.796V21.75H25.522V19.7303ZM3.5332 13.471H5.4167C5.7317 13.471 6.0352 13.5193 6.3277 13.616C6.6202 13.713 6.87895 13.8603 7.10395 14.0583C7.32895 14.2563 7.50895 14.5048 7.64395 14.804C7.77895 15.1033 7.84645 15.4555 7.84645 15.8605C7.84645 16.27 7.76895 16.6243 7.6137 16.9238C7.45845 17.2233 7.2582 17.4703 7.01295 17.6663C6.7677 17.8623 6.49545 18.008 6.1962 18.1048C5.89695 18.2015 5.60345 18.25 5.31545 18.25H3.53345L3.5332 13.471ZM5.0182 17.4805C5.28395 17.4805 5.5347 17.4503 5.77095 17.3895C6.0072 17.3288 6.21295 17.2343 6.38845 17.1058C6.56395 16.9773 6.70245 16.8113 6.8037 16.6063C6.90495 16.4013 6.9557 16.153 6.9557 15.8605C6.9557 15.5725 6.9107 15.325 6.8207 15.118C6.7307 14.911 6.6057 14.7435 6.44595 14.6153C6.2862 14.487 6.0972 14.3925 5.87895 14.3318C5.6607 14.271 5.4212 14.2405 5.1602 14.2405H4.38395V17.4805H5.0182ZM8.6362 13.471H9.4867V18.25H8.6362V13.471ZM12.8752 14.497C12.7852 14.3665 12.665 14.271 12.5142 14.21C12.3635 14.149 12.205 14.119 12.0382 14.119C11.9392 14.119 11.8437 14.1303 11.7515 14.1528C11.6592 14.1753 11.576 14.2113 11.5017 14.2608C11.4275 14.3103 11.368 14.3743 11.3227 14.4533C11.2775 14.5323 11.2552 14.6253 11.2552 14.7333C11.2552 14.8953 11.3115 15.019 11.424 15.1045C11.5365 15.19 11.676 15.2643 11.8425 15.3273C12.009 15.3903 12.1912 15.451 12.3892 15.5095C12.5872 15.568 12.7695 15.649 12.936 15.7525C13.1025 15.856 13.242 15.9933 13.3545 16.1643C13.467 16.3353 13.5232 16.5625 13.5232 16.846C13.5232 17.1025 13.4762 17.3263 13.3815 17.5175C13.2867 17.7088 13.16 17.8675 13.0002 17.9935C12.8405 18.1195 12.655 18.214 12.4432 18.277C12.2315 18.34 12.0092 18.3715 11.775 18.3715C11.478 18.3715 11.1925 18.322 10.9177 18.223C10.643 18.124 10.4072 17.9575 10.209 17.7235L10.8502 17.1025C10.954 17.26 11.09 17.3825 11.2587 17.4705C11.515 17.6052 11.8129 17.6377 12.0922 17.5615C12.1915 17.5345 12.2812 17.494 12.3622 17.44C12.4432 17.386 12.5085 17.3175 12.558 17.234C12.6075 17.1505 12.6322 17.0553 12.6322 16.9473C12.6322 16.7718 12.5762 16.6368 12.4635 16.5423C12.351 16.4478 12.2117 16.368 12.045 16.3025C11.8782 16.237 11.6965 16.1755 11.4982 16.117C11.3 16.0585 11.1182 15.9788 10.9515 15.8773C10.7847 15.7758 10.6457 15.6413 10.533 15.4723C10.4205 15.3035 10.3642 15.0775 10.3642 14.794C10.3642 14.5465 10.415 14.3328 10.5162 14.1528C10.6175 13.9728 10.7502 13.8233 10.9145 13.7038C11.0787 13.5843 11.2665 13.4958 11.478 13.4373C11.931 13.312 12.4107 13.3214 12.8585 13.4643C13.0963 13.5417 13.3141 13.6708 13.4962 13.8423C13.3072 13.6668 13.4962 13.8423 13.4962 13.8423L12.8752 14.497ZM17.688 14.5915C17.5125 14.4025 17.3427 14.2765 17.1785 14.2135C17.0142 14.1505 16.849 14.119 16.6825 14.119C16.435 14.119 16.211 14.1628 16.0107 14.2505C15.8105 14.3383 15.6382 14.4598 15.4942 14.615C15.3502 14.7703 15.239 14.9515 15.1602 15.1585C15.0815 15.3655 15.0422 15.5883 15.0422 15.8268C15.0422 16.0833 15.0815 16.3195 15.1602 16.5355C15.239 16.7515 15.3502 16.9383 15.4945 17.0958C15.6385 17.2533 15.8105 17.377 16.0107 17.467C16.211 17.557 16.4347 17.602 16.6825 17.602C16.876 17.602 17.0637 17.556 17.246 17.4635C17.4282 17.371 17.598 17.224 17.7557 17.0215L18.4577 17.521C18.2415 17.818 17.9785 18.034 17.6677 18.169C17.357 18.304 17.0267 18.3715 16.6755 18.3715C16.3065 18.3715 15.968 18.312 15.6597 18.1925C15.3515 18.073 15.086 17.9048 14.8632 17.6863C14.6405 17.4678 14.4662 17.206 14.3402 16.9C14.2142 16.594 14.1512 16.2543 14.1512 15.8808C14.1512 15.4983 14.214 15.1508 14.3402 14.8378C14.4665 14.5248 14.6405 14.2585 14.8632 14.038C15.086 13.8175 15.3515 13.6478 15.6597 13.5283C15.968 13.4088 16.3065 13.3495 16.6757 13.3495C16.9997 13.3495 17.3 13.407 17.5767 13.5215C17.8535 13.636 18.111 13.831 18.3495 14.1055L17.688 14.5915ZM24.1005 13.471H25.0795L26.382 17.0823L27.7255 13.471H28.6435L26.713 18.25H25.9772L24.1005 13.471ZM29.1565 13.471H32.322V14.2405H30.007V15.415H32.2005V16.1845H30.007V17.4805H32.4435V18.25H29.1562L29.1565 13.471ZM33.2805 13.471H34.941C35.1707 13.471 35.3922 13.4923 35.606 13.535C35.8197 13.5778 36.0097 13.651 36.1762 13.7545C36.3427 13.858 36.4755 13.9975 36.5745 14.173C36.6735 14.3485 36.723 14.5713 36.723 14.8413C36.723 15.1878 36.6275 15.478 36.4362 15.712C36.245 15.946 35.9717 16.0878 35.6162 16.1373L36.885 18.25H35.859L34.752 16.225H34.131V18.25H33.2805V13.471ZM34.7925 15.496C34.9142 15.496 35.0355 15.4905 35.1572 15.479C35.279 15.4675 35.39 15.441 35.4912 15.398C35.5925 15.355 35.6745 15.2903 35.7377 15.2023C35.801 15.1143 35.8322 14.992 35.8322 14.8345C35.8322 14.695 35.803 14.5825 35.7442 14.497C35.6855 14.4115 35.6092 14.3475 35.5147 14.3045C35.4202 14.2615 35.3157 14.2338 35.201 14.2203C35.0862 14.2068 34.975 14.2 34.8667 14.2H34.131V15.496H34.7925Z" fill="black"/>
<path id="Vector_4" d="M21.5125 18.375C22.9001 18.375 24.025 17.2501 24.025 15.8625C24.025 14.4749 22.9001 13.35 21.5125 13.35C20.1249 13.35 19 14.4749 19 15.8625C19 17.2501 20.1249 18.375 21.5125 18.375Z" fill="#D97B16"/>
</g>
</g>
</g>
<defs>
<clipPath id="clip0_2210_3080">
<rect width="40" height="40" fill="white"/>
</clipPath>
</defs>
</svg>
