<svg width="130" height="78" viewBox="0 0 130 78" fill="none" xmlns="http://www.w3.org/2000/svg">
<g clip-path="url(#clip0_2230_4146)">
<path fill-rule="evenodd" clip-rule="evenodd" d="M59.3665 0.121499C29.9039 1.51225 5.52061 15.0592 0.818965 32.6583C-0.382184 37.1911 -0.262069 42.1532 1.17931 46.6001C1.79704 48.506 3.28991 51.5622 4.55969 53.4852C11.3033 63.7871 25.4254 72.0115 42.7734 75.7373C57.8049 78.9823 74.6382 78.7249 89.3094 75.0505C109.3 70.037 123.714 59.4431 127.952 46.6516C130.148 39.9897 129.376 32.7098 125.773 26.4084C122.753 21.1545 117.416 15.8319 111.29 12.0373C97.5458 3.46961 78.928 -0.7885 59.3665 0.121499ZM86.6668 4.25941C98.8843 6.93791 109.609 12.0373 117.142 18.7507C118.051 19.5577 118.789 20.2617 118.789 20.2959C118.789 20.3476 115.186 20.3818 110.776 20.3818H102.745L102.368 19.7122C101.527 18.2528 99.2274 15.3683 97.3571 13.4452C93.7708 9.77091 90.3046 7.26414 85.603 4.91187C84.093 4.17356 82.8403 3.52112 82.806 3.48678C82.7202 3.40093 83.6125 3.5898 86.6668 4.25941ZM44.0603 4.63716C41.1775 6.04507 39.0327 7.34998 36.6475 9.16997C33.0441 11.8828 29.4234 15.6945 27.2442 19.0598L26.3864 20.3818L18.3214 20.3647H10.2566L11.2861 19.4204C17.189 13.9775 24.859 9.65073 34.0222 6.57733C37.4884 5.42696 44.6781 3.5898 45.862 3.57262C46.1194 3.55545 45.3644 4.00187 44.0603 4.63716ZM24.3787 24.1936C22.6798 28.0053 21.6846 31.6623 21.3071 35.6115L21.1012 37.7234H11.5092H1.93432V37.0194C1.93432 35.9721 2.55205 33.139 3.15263 31.422C4.11355 28.7264 5.34901 26.4943 7.39096 23.7643L8.52347 22.2706H16.8801H25.2365L24.3787 24.1936ZM121.929 23.9531C124.228 27.061 125.773 30.1686 126.579 33.3451C127.025 35.062 127.386 37.4829 127.231 37.6375C127.18 37.689 122.873 37.7234 117.639 37.7234C110.192 37.7234 108.133 37.6719 108.082 37.5002C108.047 37.397 107.927 36.4185 107.824 35.3539C107.395 31.1817 106.16 26.8205 104.375 23.2835L103.86 22.2706H112.269H120.676L121.929 23.9531ZM21.1526 40.3331C21.1526 44.1448 22.4396 49.4846 24.3787 53.8114L25.2365 55.7516H16.8972H8.54065L7.73415 54.7214C4.98867 51.2875 3.06683 47.2869 2.29467 43.4237C2.02011 42.0501 1.83137 40.1099 1.91717 39.5605C1.91717 39.4918 6.25845 39.4403 11.5435 39.4403H21.1526V40.3331ZM101.877 55.4807C104.65 50.4936 106.21 44.8716 106.21 38.9236C106.21 18.3637 87.5754 1.69639 64.5889 1.69639C41.6025 1.69639 22.9684 18.3637 22.9684 38.9236C22.9684 59.4837 41.6025 76.1509 64.5889 76.1509C80.8048 76.1509 94.8546 67.8562 101.725 55.7516H101.75L101.877 55.4807ZM127.369 39.7323C127.369 40.6422 126.94 43.3378 126.579 44.7458C125.738 47.9394 124.194 51.047 121.912 54.069L120.659 55.7516H112.251H103.86L104.375 54.7386C106.314 50.8582 107.704 45.6729 107.927 41.4492L108.03 39.4403H117.708C126.802 39.4403 127.369 39.4574 127.369 39.7323ZM27.2786 58.9967C31.1738 64.9202 36.9735 69.8995 44.0603 73.4022C46.6514 74.6727 46.5141 74.6898 42.087 73.6769C29.3719 70.7408 18.8191 65.5899 11.2861 58.6018L10.2566 57.6575H18.3214L26.3864 57.6404L27.2786 58.9967ZM118.789 57.7262C118.789 57.7604 118.051 58.4644 117.142 59.2714C109.626 65.9677 98.9871 71.0328 86.7012 73.7628C82.5314 74.6898 82.4972 74.6727 85.5857 73.1275C90.3732 70.7237 93.8223 68.2169 97.3742 64.5426C99.2789 62.5681 101.544 59.7522 102.368 58.31L102.745 57.6404H110.776C115.186 57.6404 118.789 57.6746 118.789 57.7262Z" fill="white"/>
<path d="M56.4333 68.289H53.2794V67.8143L54.2036 67.2632L53.6864 65.9999H51.0666L50.6003 67.136L51.8975 67.738L51.6262 68.289H48.8877V67.8143L49.8033 67.1275L51.9738 61.8964L53.4405 61.464L55.8483 67.3056L56.7131 67.738L56.4333 68.289ZM52.3892 62.8036L51.3379 65.3471H53.4236L52.3892 62.8036ZM69.0431 62.7443L67.1525 68.0093L65.6942 68.4416L64.4903 65.0334L63.5407 68.0093L62.074 68.4416L59.8273 62.5832L58.9879 62.1677L59.2592 61.6167H62.0062V62.0914L61.4127 62.5323L63.0999 67.0173L64.0918 63.9227L63.6171 62.5832L62.8455 62.1762L63.1168 61.6251H66.0842V62.0999L65.2364 62.6256L66.7371 67.0258L68.2208 62.8036L66.8812 62.1762L67.161 61.6251H69.891L69.8994 62.0914L69.0431 62.7443ZM76.6104 61.4556C76.9382 61.4556 77.3198 61.498 77.7549 61.5827C78.1958 61.6675 78.518 61.758 78.7215 61.854V63.6599H77.916C77.4809 62.8404 76.8817 62.4306 76.1186 62.4306C75.8077 62.4306 75.5224 62.5295 75.2623 62.7273C75.0023 62.9252 74.796 63.1965 74.6434 63.5412C74.4965 63.8861 74.423 64.2733 74.423 64.7027C74.423 65.1889 74.4965 65.6353 74.6434 66.0423C74.796 66.4437 75.0249 66.7659 75.3302 67.0088C75.6354 67.2462 76.0141 67.3649 76.4662 67.3649C76.9806 67.3649 77.7125 67.0824 78.6621 66.5171L79.0012 67.0597L77.4412 68.2721C77.1926 68.3456 76.9523 68.3937 76.7206 68.4162C76.4945 68.4446 76.2515 68.4586 75.9915 68.4586C75.3584 68.4586 74.796 68.3145 74.3043 68.0262C73.8125 67.738 73.431 67.3424 73.1597 66.8393C72.8884 66.3306 72.7528 65.754 72.7528 65.1097C72.7528 64.4484 72.9562 63.838 73.3632 63.2784C73.7702 62.7133 74.2761 62.2695 74.8808 61.9473C75.4855 61.6196 76.0621 61.4556 76.6104 61.4556Z" fill="white"/>
<mask id="mask0_2230_4146" style="mask-type:luminance" maskUnits="userSpaceOnUse" x="47" y="15" width="34" height="43">
<path d="M80.9288 15.7239H47.1699V57.1903H80.9288V15.7239Z" fill="white"/>
</mask>
<g mask="url(#mask0_2230_4146)">
<path d="M78.8822 31.2671V30.1795H76.8971V28.9364H64.9722V27.5379H74.6002V28.3149H75.1229V26.4503H64.9722C64.9722 26.4503 64.5891 25.7258 64.9722 25.7258H70.3182V23.9119H66.2439L64.8018 20.1303H64.4154V16.761L64.0493 15.7239L63.6833 16.761V20.127H63.2967L61.8546 23.9085H57.7804V25.7224H63.1265C63.5096 25.7224 63.1265 26.4469 63.1265 26.4469H52.9774V28.3115H53.5001V27.5346H63.1282V28.933H51.2016V30.1761H49.2163V31.2638H63.1282V32.6115H52.2981V36.4454H52.3764C56.3179 34.547 60.9676 33.5438 60.9676 33.5438V33.233L63.1265 33.4407L64.0493 33.8291L64.9722 33.363L67.131 33.233V33.5438C67.131 33.5438 71.7808 34.547 75.7223 36.4454H75.8006V32.6115H64.9705V31.2638H78.8822V31.2671Z" fill="white"/>
<path d="M66.2101 35.2058V34.3242H61.8907V35.2058C61.8907 35.2058 54.6836 36.7596 50.6094 39.6612C50.6094 39.6612 55.78 45.9303 55.78 55.6705H72.3207C72.3207 45.9303 77.4915 39.6612 77.4915 39.6612C73.4171 36.7596 66.2101 35.2058 66.2101 35.2058ZM65.8662 38.5769C64.7628 38.3759 64.0496 38.315 64.0496 38.315C64.0496 38.315 63.3362 38.3759 62.2329 38.5769C60.1285 38.9603 56.6058 39.8487 53.8986 41.7859C53.8986 41.7859 57.166 38.8622 62.1563 37.8236C62.7624 37.6969 63.394 37.599 64.0496 37.5381C64.7033 37.6007 65.3367 37.6986 65.9428 37.8236C70.9332 38.8605 74.2004 41.7859 74.2004 41.7859C71.4932 39.8487 67.9705 38.9586 65.8662 38.5769Z" fill="white"/>
<path d="M80.9288 55.6704H64.0494H47.1699L58.4546 56.4304L50.6092 57.1903H64.0494H77.4913L69.6441 56.4304L80.9288 55.6704Z" fill="white"/>
</g>
<path d="M30.1477 36.9519L32.234 36.9091L32.2274 37.0489C31.5961 37.2064 31.1357 37.4515 30.8459 37.7847C30.5559 38.1178 30.3998 38.5264 30.3773 39.0106C30.3583 39.4166 30.4449 39.7885 30.6372 40.1259C30.8263 40.4633 31.142 40.7373 31.5844 40.9477C32.0268 41.1553 32.5833 41.2746 33.254 41.3059C33.8074 41.3318 34.2911 41.2654 34.7055 41.1069C35.1197 40.9484 35.4434 40.6969 35.6765 40.352C35.9097 40.0043 36.0371 39.6018 36.0585 39.1446C36.077 38.7476 36.0092 38.3934 35.8548 38.0817C35.6976 37.77 35.3748 37.4204 34.8865 37.0329L34.9833 36.8972C35.5134 37.2294 35.8951 37.6058 36.1286 38.0267C36.3622 38.4475 36.4659 38.9391 36.4395 39.5016C36.3924 40.515 35.9797 41.2825 35.2019 41.8037C34.6232 42.1927 33.9548 42.3694 33.197 42.3341C32.5864 42.3056 32.0319 42.1426 31.5334 41.845C31.0349 41.5475 30.6571 41.1532 30.3996 40.6619C30.1394 40.1675 30.0226 39.636 30.0491 39.0677C30.0696 38.6255 30.1983 38.1945 30.4349 37.7746C30.5069 37.6513 30.5442 37.5627 30.5468 37.5086C30.5505 37.4273 30.5253 37.3554 30.471 37.2925C30.3935 37.2105 30.2832 37.1496 30.1403 37.1098L30.1477 36.9519Z" fill="white"/>
<path d="M32.5896 34.8372L33.5034 35.0113C32.9589 34.5551 32.7209 34.148 32.789 33.7903C32.82 33.6276 32.896 33.5026 33.0169 33.4152C33.1346 33.3273 33.2587 33.2959 33.3888 33.3207C33.5041 33.3426 33.5945 33.3996 33.6597 33.4918C33.7249 33.5838 33.7474 33.6833 33.727 33.7896C33.7073 33.8932 33.6347 34.0004 33.5094 34.1113C33.3816 34.2188 33.3119 34.3036 33.3 34.3657C33.2899 34.419 33.3085 34.4822 33.3558 34.5556C33.4517 34.7119 33.6251 34.8875 33.8761 35.0823L35.8236 35.4535C36.0484 35.4964 36.2238 35.5007 36.3498 35.4665C36.437 35.4432 36.5165 35.3879 36.5884 35.3005C36.6602 35.2131 36.7135 35.0776 36.7485 34.8943L36.9082 34.9246L36.5116 37.0052L36.3519 36.9748C36.3914 36.7678 36.3881 36.6078 36.3424 36.4948C36.3091 36.4119 36.2435 36.3458 36.1457 36.2964C36.0982 36.2721 35.9562 36.2374 35.7196 36.1922L34.1446 35.8921C33.6715 35.8019 33.3885 35.7587 33.2959 35.7626C33.2008 35.7628 33.1275 35.7856 33.0759 35.831C33.0249 35.8733 32.9922 35.9329 32.9774 36.0099C32.96 36.1016 32.9625 36.2093 32.9848 36.3331L32.8166 36.347L32.554 35.0235L32.5896 34.8372Z" fill="white"/>
<path d="M34.1592 29.5125L36.5496 30.2664C37.0062 30.4104 37.2892 30.4887 37.399 30.5012C37.5067 30.51 37.588 30.4976 37.6427 30.4643C37.6982 30.4283 37.736 30.3786 37.7559 30.3154C37.7841 30.2265 37.7913 30.1183 37.7777 29.9908L37.9476 29.9781L38.062 31.3117L38.0009 31.5055L37.1653 31.242C37.426 31.6968 37.5756 32.028 37.6142 32.236C37.6529 32.4438 37.6409 32.6468 37.5784 32.845C37.5086 33.0661 37.3848 33.2386 37.2069 33.3624C37.0269 33.4824 36.8265 33.5422 36.6056 33.5421C36.3847 33.5418 36.0904 33.4838 35.7229 33.3679L33.9614 32.8122C33.7748 32.7533 33.6393 32.7326 33.5548 32.7502C33.4703 32.7678 33.3966 32.811 33.3341 32.8796C33.2693 32.9443 33.206 33.0806 33.1435 33.2882L32.9841 33.238L33.4202 31.8554L36.0604 32.6883C36.428 32.8042 36.6891 32.817 36.8437 32.7269C36.9994 32.634 37.1056 32.497 37.1628 32.3161C37.2017 32.1927 37.2069 32.0411 37.1783 31.8617C37.1505 31.6793 37.0616 31.446 36.9113 31.1619L34.6759 30.4568C34.452 30.3862 34.2881 30.3802 34.1843 30.439C34.0786 30.4941 33.9821 30.6499 33.8949 30.9064L33.7355 30.8562L34.1592 29.5125Z" fill="white"/>
<path d="M32.8658 26.7441C32.9165 26.6284 33.0008 26.5487 33.1187 26.505C33.235 26.4574 33.351 26.459 33.4668 26.5098C33.5826 26.5607 33.6637 26.6456 33.7101 26.7646C33.7575 26.8809 33.756 26.9969 33.7051 27.1127C33.6543 27.2285 33.5693 27.3096 33.4503 27.356C33.3313 27.4024 33.214 27.4 33.0981 27.3493C32.9823 27.2985 32.902 27.2155 32.8572 27.1004C32.8109 26.9814 32.8137 26.8627 32.8658 26.7441ZM34.9971 27.2707L38.0405 28.607C38.2775 28.7112 38.4432 28.7643 38.5377 28.7663C38.6307 28.7643 38.711 28.7387 38.7787 28.6895C38.8474 28.6376 38.9213 28.5219 38.9999 28.3428L39.1488 28.4082L38.3407 30.2483L38.192 30.1829C38.2731 29.9982 38.3096 29.8663 38.3016 29.7871C38.2936 29.708 38.2561 29.6323 38.1892 29.5601C38.1234 29.4852 37.9734 29.3964 37.7391 29.2935L36.2794 28.6525C35.8686 28.4722 35.5972 28.3678 35.4651 28.3393C35.3683 28.3199 35.2944 28.3236 35.2431 28.3504C35.1891 28.376 35.1464 28.4247 35.1148 28.4964C35.0811 28.5734 35.0606 28.6763 35.0535 28.8047L34.8791 28.7973L34.9172 27.4526L34.9971 27.2707Z" fill="white"/>
<path d="M36.8151 23.7981L38.0449 24.4856L37.9723 24.6157C37.5301 24.4996 37.1954 24.4816 36.9679 24.5613C36.7419 24.6385 36.5614 24.7981 36.4262 25.0398C36.3234 25.2238 36.289 25.3994 36.3231 25.5668C36.3572 25.7342 36.4333 25.8509 36.5515 25.917C36.6987 25.9992 36.8484 26.0277 37.0006 26.0024C37.1538 25.9812 37.3607 25.8794 37.6212 25.6974L38.2228 25.2784C38.7812 24.8902 39.2732 24.8153 39.699 25.0532C40.0275 25.2369 40.2231 25.5101 40.286 25.8728C40.3475 26.2315 40.2925 26.5646 40.1206 26.8722C39.9971 27.0929 39.8167 27.323 39.5792 27.5629C39.5044 27.6349 39.4516 27.6986 39.4207 27.7537C39.387 27.8142 39.3947 27.8806 39.444 27.9529L39.3713 28.083L38.0822 27.3624L38.1548 27.2323C38.564 27.3644 38.9197 27.3789 39.2225 27.2754C39.5251 27.1721 39.7485 26.9918 39.8924 26.7342C39.9937 26.5529 40.0235 26.3763 39.9815 26.2045C39.9384 26.0286 39.8419 25.8989 39.6922 25.8151C39.5108 25.7137 39.3224 25.6929 39.1269 25.7527C38.9328 25.8098 38.6347 25.9759 38.2325 26.2512C37.8302 26.5266 37.5199 26.6807 37.3013 26.7138C37.0855 26.7484 36.8632 26.7017 36.6345 26.5739C36.3376 26.4079 36.1458 26.1678 36.0592 25.8538C35.9741 25.5372 36.0219 25.2174 36.2025 24.8941C36.2818 24.7521 36.4083 24.5969 36.5819 24.4283C36.6961 24.3163 36.7658 24.238 36.7908 24.1933C36.8144 24.1513 36.8235 24.1133 36.8184 24.0793C36.8131 24.0454 36.7878 23.9951 36.7424 23.9282L36.8151 23.7981Z" fill="white"/>
<path d="M39.1275 23.3167C39.6232 23.6794 40.1008 23.8413 40.5601 23.8021C41.0197 23.7631 41.3686 23.579 41.607 23.2498C41.7659 23.0304 41.8439 22.7969 41.841 22.5495C41.8373 22.2977 41.7289 22.0112 41.5157 21.6895L41.6711 21.629C41.968 21.9222 42.1651 22.2917 42.2624 22.7375C42.3571 23.1816 42.2703 23.5889 42.0019 23.9596C41.7106 24.362 41.3045 24.594 40.7841 24.6556C40.2629 24.7133 39.7377 24.5503 39.2085 24.1671C38.6356 23.7522 38.2952 23.2828 38.1876 22.7588C38.0794 22.2307 38.1861 21.7447 38.5075 21.3009C38.7794 20.9253 39.1271 20.7069 39.5506 20.6456C39.9717 20.5825 40.3896 20.7011 40.8042 21.0013L39.1275 23.3167ZM38.9153 23.163L40.0383 21.6121C39.815 21.4689 39.6452 21.385 39.5292 21.3605C39.3485 21.3226 39.1749 21.3363 39.0086 21.4018C38.8441 21.4647 38.7142 21.5621 38.6188 21.6938C38.4722 21.8962 38.4199 22.1353 38.4618 22.4109C38.5031 22.6825 38.6544 22.9332 38.9153 23.163Z" fill="white"/>
<path d="M46.8807 16.3232L47.0131 16.2479L47.7245 17.8386L44.1778 20.9862L44.067 20.8612L44.2392 20.7084C44.4329 20.5365 44.5154 20.3505 44.4869 20.1506C44.4701 20.0365 44.3458 19.8489 44.1142 19.5876L41.4911 16.6321C41.2373 16.3461 41.0469 16.1951 40.9199 16.179C40.7441 16.1579 40.5695 16.2242 40.3962 16.3782L40.2239 16.531L40.113 16.4061L42.1868 14.5654L42.2978 14.6904C42.0526 14.904 41.9015 15.0784 41.8443 15.2136C41.7894 15.3468 41.776 15.4655 41.8039 15.5695C41.8318 15.6736 41.9667 15.8618 42.2086 16.1343L44.7627 19.012C44.9285 19.199 45.0605 19.3114 45.1584 19.3491C45.2274 19.3724 45.3 19.3704 45.3763 19.343C45.4526 19.3155 45.6382 19.1709 45.9331 18.909L46.2676 18.6123C46.6189 18.3006 46.8425 18.0558 46.9383 17.8781C47.0342 17.7005 47.0828 17.4942 47.084 17.2598C47.0832 17.023 47.0154 16.7108 46.8807 16.3232Z" fill="white"/>
<path d="M45.4208 11.6864C45.525 11.6149 45.6388 11.5916 45.7618 11.6167C45.8857 11.6375 45.9834 11.7001 46.055 11.8044C46.1265 11.9086 46.1507 12.0235 46.1273 12.1491C46.1064 12.273 46.0439 12.3707 45.9397 12.4423C45.8353 12.5138 45.7205 12.5379 45.5948 12.5146C45.4692 12.4912 45.3707 12.4274 45.2992 12.3232C45.2275 12.2189 45.2031 12.1061 45.2256 11.9847C45.2489 11.8591 45.314 11.7597 45.4208 11.6864ZM46.954 13.2578L48.8351 15.9981C48.9817 16.2116 49.0945 16.3442 49.1737 16.3956C49.2537 16.443 49.3354 16.4636 49.4188 16.4575C49.5047 16.4496 49.6283 16.3902 49.7897 16.2796L49.8817 16.4137L48.2248 17.551L48.1329 17.4169C48.2991 17.3028 48.3997 17.21 48.4347 17.1385C48.4696 17.067 48.4777 16.983 48.4588 16.8863C48.4424 16.7881 48.3618 16.6333 48.2171 16.4225L47.3148 15.1081C47.0609 14.7382 46.8854 14.5064 46.7881 14.4125C46.7161 14.345 46.6514 14.3091 46.5937 14.3049C46.5344 14.2982 46.4724 14.317 46.4078 14.3613C46.3383 14.409 46.2668 14.4855 46.1929 14.5909L46.0488 14.4927L46.7903 13.3702L46.954 13.2578Z" fill="white"/>
<path d="M49.4635 12.7412C49.6158 11.9976 49.8857 11.5222 50.2734 11.315C50.4725 11.2086 50.6708 11.1675 50.8681 11.1918C51.064 11.2135 51.2655 11.3157 51.4725 11.4987C51.616 11.6268 51.7757 11.8555 51.9518 12.1848L52.7839 13.7422C52.9073 13.9732 53.0097 14.1199 53.0908 14.1824C53.1555 14.2331 53.2297 14.2601 53.3132 14.2632C53.3995 14.2649 53.5303 14.2189 53.7055 14.1253L53.7821 14.2687L51.9778 15.2329L51.9012 15.0895L51.9769 15.049C52.1468 14.9582 52.2514 14.8698 52.2909 14.7839C52.3316 14.6939 52.3382 14.5914 52.3109 14.4763C52.3001 14.4308 52.2388 14.3031 52.1267 14.0933L51.3285 12.5997C51.1511 12.2678 50.9789 12.0509 50.8118 11.949C50.646 11.843 50.4608 11.8447 50.2564 11.9539C49.9404 12.1228 49.718 12.4635 49.5891 12.9762L50.6171 14.9C50.7491 15.147 50.8453 15.2919 50.9057 15.3347C50.984 15.3918 51.0649 15.422 51.1486 15.4251C51.2334 15.4242 51.3754 15.3704 51.5746 15.264L51.6512 15.4074L49.8468 16.3716L49.7702 16.2282L49.8499 16.1857C50.0358 16.0862 50.1357 15.9731 50.1497 15.8461C50.1652 15.7151 50.1018 15.5168 49.9598 15.2512L49.2363 13.897C49.0021 13.4588 48.8489 13.1976 48.7766 13.1134C48.7069 13.0277 48.6415 12.979 48.5807 12.9672C48.5224 12.9539 48.4587 12.9658 48.3897 13.0027C48.3154 13.0424 48.2371 13.1098 48.1547 13.205L48.0183 13.0935L48.8792 12.06L49.0507 11.9685L49.4635 12.7412Z" fill="white"/>
<path d="M53.36 11.7359C53.5734 12.3119 53.8824 12.7103 54.2872 12.9312C54.692 13.1521 55.0847 13.191 55.4649 13.0479C55.7187 12.9525 55.9124 12.8008 56.0466 12.5928C56.1824 12.3809 56.25 12.082 56.2497 11.6962L56.4125 11.7314C56.4985 12.1397 56.4591 12.5566 56.2943 12.9821C56.1284 13.4048 55.8312 13.6967 55.4028 13.8578C54.9379 14.0326 54.4713 14.0023 54.0031 13.7666C53.5367 13.5271 53.1884 13.1016 52.9585 12.4901C52.7095 11.8278 52.6845 11.2485 52.8838 10.7522C53.085 10.252 53.442 9.9054 53.9549 9.71251C54.3888 9.54928 54.7993 9.55893 55.1864 9.74145C55.5725 9.92114 55.8556 10.2505 56.0358 10.7296L53.36 11.7359ZM53.2678 11.4908L55.0601 10.8167C54.9527 10.574 54.8574 10.4104 54.7742 10.3259C54.6444 10.1946 54.4921 10.1104 54.3173 10.0732C54.1453 10.0349 53.9831 10.0444 53.8309 10.1017C53.5971 10.1896 53.4215 10.3602 53.3045 10.6133C53.1892 10.8625 53.1769 11.155 53.2678 11.4908Z" fill="white"/>
<path d="M58.6612 8.36206L58.9937 9.7313L58.8489 9.76648C58.6333 9.36339 58.4189 9.10562 58.2057 8.99318C57.9954 8.88004 57.7557 8.85614 57.4866 8.9215C57.2817 8.97123 57.1295 9.06549 57.03 9.20431C56.9305 9.3431 56.8968 9.47832 56.9287 9.60998C56.9685 9.77383 57.0494 9.9029 57.1715 9.99719C57.2913 10.0951 57.5064 10.1776 57.8171 10.2447L58.5335 10.4007C59.1978 10.5462 59.5875 10.8559 59.7025 11.3298C59.7913 11.6955 59.724 12.0248 59.5008 12.3176C59.2798 12.6067 58.9982 12.7928 58.6559 12.8759C58.4101 12.9356 58.1186 12.9599 57.7813 12.9489C57.6777 12.9431 57.5951 12.9476 57.5336 12.9626C57.4664 12.9789 57.4229 13.0297 57.4033 13.115L57.2586 13.1502L56.91 11.7151L57.0549 11.6799C57.2362 12.0697 57.4678 12.3403 57.7494 12.4919C58.0309 12.6435 58.3151 12.6845 58.6018 12.6149C58.8036 12.5659 58.9533 12.4676 59.0507 12.32C59.1503 12.1688 59.1799 12.0098 59.1394 11.843C59.0903 11.6411 58.9775 11.4889 58.8007 11.3862C58.6268 11.2827 58.3022 11.1772 57.8269 11.0696C57.3515 10.9619 57.0273 10.8393 56.8545 10.7016C56.6824 10.5667 56.5654 10.3721 56.5035 10.1175C56.4232 9.78693 56.4687 9.4831 56.6401 9.20605C56.8143 8.92827 57.0813 8.74569 57.4412 8.65832C57.5992 8.61995 57.799 8.60707 58.0406 8.61965C58.2004 8.62731 58.3052 8.62509 58.355 8.61302C58.4017 8.60166 58.436 8.58253 58.4572 8.55566C58.4787 8.52877 58.4984 8.47598 58.5164 8.39724L58.6612 8.36206Z" fill="white"/>
<path d="M63.8 8.68524L66.645 8.65342L66.6255 6.90127C66.6219 6.58818 66.6 6.38217 66.5598 6.28325C66.5288 6.20834 66.4648 6.14432 66.368 6.0912C66.2378 6.0204 66.1003 5.98581 65.9558 5.98741L65.7391 5.98984L65.7372 5.82276L68.3564 5.79346L68.3583 5.96054L68.1415 5.96298C67.9969 5.96459 67.8604 6.00074 67.7316 6.07144C67.6359 6.12067 67.5705 6.19517 67.5354 6.29492C67.5035 6.39164 67.4892 6.59052 67.4924 6.89158L67.5366 10.8429C67.5402 11.153 67.5619 11.3575 67.6021 11.4564C67.6331 11.5314 67.6956 11.5954 67.7896 11.6485C67.9228 11.7193 68.0617 11.7539 68.2063 11.7523L68.423 11.7499L68.4248 11.9169L65.8057 11.9462L65.8038 11.7791L66.0206 11.7767C66.2704 11.7739 66.4517 11.6981 66.5646 11.5493C66.6387 11.4522 66.6737 11.2199 66.6695 10.8526L66.6487 8.98759L63.8037 9.0194L63.8247 10.8845C63.8281 11.1945 63.85 11.399 63.8902 11.4979C63.9212 11.5729 63.9852 11.6369 64.082 11.69C64.2122 11.7608 64.3497 11.7954 64.4942 11.7938L64.7155 11.7913L64.7174 11.9584L62.0936 11.9877L62.0917 11.8207L62.3085 11.8182C62.5614 11.8154 62.7443 11.7396 62.8569 11.5908C62.9282 11.4937 62.9618 11.2614 62.9576 10.8941L62.9134 6.94279C62.91 6.62969 62.8881 6.42368 62.8478 6.32477C62.8169 6.24985 62.7544 6.18582 62.6604 6.13266C62.5272 6.06189 62.3883 6.02732 62.2437 6.02894L62.027 6.03136L62.0251 5.86427L64.6488 5.83492L64.6508 6.00201L64.4294 6.00449C64.285 6.00611 64.1484 6.04226 64.0197 6.11295C63.9269 6.16215 63.8629 6.23664 63.8279 6.33639C63.7929 6.43313 63.7771 6.63203 63.7805 6.93309L63.8 8.68524Z" fill="white"/>
<path d="M70.257 5.85195C70.3823 5.86848 70.4823 5.92722 70.5571 6.02818C70.6353 6.12654 70.6661 6.23841 70.6496 6.36378C70.6331 6.48915 70.5741 6.5907 70.4728 6.66844C70.3744 6.74658 70.2625 6.77738 70.1372 6.76085C70.0117 6.74433 69.9103 6.68538 69.8324 6.58403C69.7548 6.48267 69.7241 6.36931 69.7407 6.24396C69.7572 6.11858 69.8144 6.01833 69.9124 5.94318C70.0137 5.86544 70.1286 5.83503 70.257 5.85195ZM70.3459 8.0456L69.9114 11.3409C69.8776 11.5977 69.8728 11.7716 69.8972 11.8629C69.9251 11.9516 69.9719 12.0216 70.0381 12.0728C70.1073 12.1244 70.2388 12.163 70.4329 12.1886L70.4116 12.3498L68.4192 12.0871L68.4403 11.9259C68.6404 11.9523 68.7773 11.9506 68.851 11.9209C68.9248 11.8911 68.9869 11.834 69.0376 11.7496C69.0911 11.6656 69.1348 11.4967 69.1682 11.243L69.3765 9.66245C69.4352 9.2177 69.4597 8.92788 69.4501 8.793C69.4418 8.69473 69.4176 8.62473 69.3775 8.58301C69.3379 8.53831 69.2794 8.51084 69.2017 8.50061C69.1181 8.48958 69.0137 8.49859 68.8884 8.52763L68.847 8.35817L70.1489 8.01963L70.3459 8.0456Z" fill="white"/>
<path d="M72.7358 8.49062L72.5339 9.39878C73.0065 8.86847 73.4206 8.64283 73.7762 8.72188C73.9379 8.75781 74.0604 8.83749 74.144 8.96095C74.2283 9.08145 74.256 9.20636 74.2272 9.33567C74.2018 9.4503 74.142 9.5388 74.0479 9.60116C73.9539 9.66353 73.854 9.68296 73.7481 9.65943C73.6453 9.63657 73.5403 9.56081 73.4332 9.43214C73.3298 9.30117 73.2471 9.22885 73.1853 9.21513C73.1324 9.20337 73.0686 9.22001 72.9939 9.26507C72.8348 9.35617 72.6541 9.52418 72.4516 9.7691L72.0213 11.7044C71.9717 11.9278 71.9621 12.103 71.9925 12.23C72.013 12.3179 72.0659 12.399 72.1511 12.4735C72.2364 12.548 72.3702 12.6054 72.5524 12.6459L72.5171 12.8047L70.4495 12.3451L70.4848 12.1864C70.6904 12.2321 70.8506 12.2337 70.9648 12.1913C71.0486 12.1606 71.1168 12.0971 71.169 12.0007C71.1949 11.9541 71.2339 11.8131 71.2862 11.578L71.634 10.013C71.7386 9.54276 71.7903 9.26126 71.7893 9.16851C71.792 9.07348 71.7715 8.99952 71.7277 8.94661C71.6868 8.89436 71.6282 8.85975 71.5518 8.84276C71.4607 8.82251 71.3529 8.82169 71.2285 8.8403L71.2198 8.67179L72.5505 8.44946L72.7358 8.49062Z" fill="white"/>
<path d="M76.2232 7.19291C76.3438 7.23095 76.4321 7.30617 76.4882 7.41857C76.5482 7.52901 76.5591 7.64452 76.521 7.76513C76.483 7.88572 76.4073 7.9755 76.294 8.03447C76.1836 8.09435 76.068 8.10526 75.9474 8.06723C75.8269 8.02919 75.737 7.95351 75.6781 7.8402C75.6191 7.7269 75.6086 7.60994 75.6467 7.48935C75.6848 7.36876 75.7585 7.27995 75.8681 7.22295C75.9814 7.16399 76.0997 7.15397 76.2232 7.19291ZM75.93 9.36869L74.9302 12.5386C74.8522 12.7856 74.8174 12.9561 74.8255 13.0502C74.8376 13.1424 74.8716 13.2194 74.9279 13.2814C74.9869 13.3442 75.1098 13.4051 75.2965 13.4639L75.2476 13.619L73.3311 13.0145L73.3799 12.8594C73.5723 12.9201 73.7073 12.9422 73.7852 12.9257C73.863 12.9092 73.9341 12.8638 73.9987 12.7894C74.066 12.7159 74.1382 12.5572 74.2151 12.3131L74.6947 10.7927C74.8297 10.3649 74.9042 10.0838 74.9182 9.94928C74.927 9.85106 74.9154 9.77793 74.8832 9.72989C74.8519 9.67898 74.7989 9.64175 74.7243 9.6182C74.6438 9.59284 74.5394 9.58359 74.411 9.59043L74.3996 9.41637L75.7404 9.30893L75.93 9.36869Z" fill="white"/>
<path d="M77.8699 11.0184C78.5487 10.6785 79.0893 10.5969 79.4918 10.7737C79.6985 10.8644 79.8532 10.9949 79.9562 11.165C80.0603 11.3324 80.1043 11.554 80.0885 11.8298C80.0764 12.0218 79.9954 12.2887 79.8452 12.6306L79.1354 14.2474C79.0299 14.4872 78.9778 14.6583 78.9789 14.7607C78.9791 14.8429 79.0036 14.9179 79.0529 14.9855C79.1048 15.0544 79.2218 15.1288 79.4037 15.2087L79.3384 15.3575L77.4651 14.535L77.5305 14.3861L77.6091 14.4206C77.7855 14.4981 77.9197 14.5258 78.0116 14.5036C78.1075 14.48 78.1923 14.4218 78.2658 14.3292C78.2949 14.2927 78.3574 14.1655 78.4531 13.9477L79.134 12.3971C79.2852 12.0525 79.3493 11.7831 79.3262 11.5888C79.3069 11.3929 79.1912 11.2484 78.9789 11.1551C78.6509 11.0111 78.2456 11.0468 77.7628 11.2624L76.8858 13.2596C76.7733 13.5159 76.7189 13.6811 76.7226 13.7551C76.726 13.852 76.7524 13.9342 76.8015 14.0019C76.8547 14.068 76.9847 14.1464 77.1915 14.2372L77.1262 14.3861L75.2529 13.5635L75.3183 13.4147L75.4011 13.451C75.5939 13.5357 75.7447 13.5444 75.8532 13.4769C75.9657 13.408 76.0826 13.2356 76.2036 12.96L76.8209 11.5541C77.0207 11.0992 77.1313 10.8173 77.1528 10.7084C77.1772 10.6007 77.175 10.5192 77.1467 10.464C77.1211 10.41 77.0725 10.3673 77.0008 10.3358C76.9236 10.3019 76.8222 10.2821 76.6965 10.2762L76.6998 10.1001L78.0444 10.1381L78.2223 10.2162L77.8699 11.0184Z" fill="white"/>
<path d="M80.8564 14.5787C80.7061 14.3407 80.6312 14.0927 80.6315 13.8345C80.6335 13.5737 80.7049 13.3294 80.8458 13.1015C81.0611 12.7532 81.377 12.5343 81.7933 12.4449C82.2123 12.357 82.6267 12.4397 83.0364 12.693C83.3718 12.9004 83.6118 13.162 83.7563 13.4779L84.5016 13.9386C84.6117 14.0067 84.6733 14.0501 84.6864 14.0689C84.7012 14.0851 84.7077 14.1033 84.7059 14.1234C84.7069 14.1559 84.6894 14.2017 84.653 14.2606C84.6118 14.3271 84.5768 14.3693 84.5483 14.387C84.5326 14.395 84.5122 14.3965 84.487 14.3916C84.4643 14.3882 84.3979 14.3524 84.2878 14.2844L83.8307 14.0017C83.86 14.2748 83.7862 14.5547 83.6088 14.8415C83.4062 15.1693 83.1073 15.3722 82.7122 15.45C82.3173 15.5279 81.9085 15.4362 81.486 15.175C81.3118 15.0673 81.1496 14.9317 80.9995 14.7681C80.8267 14.7957 80.6967 14.834 80.6099 14.883C80.5272 14.9309 80.47 14.9805 80.4382 15.0317C80.4114 15.0753 80.4057 15.1302 80.4214 15.1965C80.4396 15.2644 80.5046 15.3453 80.6164 15.4392C80.6818 15.4938 80.8555 15.6136 81.1376 15.7986C81.6572 16.1376 81.988 16.3668 82.13 16.4864C82.3475 16.6669 82.4824 16.8724 82.5346 17.103C82.5894 17.335 82.5518 17.556 82.422 17.766C82.2431 18.0553 81.9395 18.2429 81.5114 18.3286C80.8808 18.4555 80.244 18.3203 79.6012 17.9229C79.107 17.6174 78.7584 17.2479 78.5556 16.8146C78.4427 16.5678 78.429 16.3752 78.5144 16.237C78.5525 16.1755 78.6046 16.1228 78.6707 16.0787C78.7728 16.0108 78.944 15.9344 79.1842 15.8493C79.2164 15.8373 79.4325 15.7798 79.8326 15.6766C79.7484 15.5149 79.6972 15.3859 79.6789 15.2896C79.6647 15.1923 79.6821 15.104 79.7311 15.0246C79.7866 14.935 79.8874 14.8522 80.0334 14.7761C80.1822 14.7017 80.4564 14.6359 80.8564 14.5787ZM82.857 12.837C82.6675 12.7198 82.462 12.6972 82.2407 12.7692C82.0192 12.8411 81.8118 13.0333 81.6187 13.3457C81.3685 13.7503 81.2617 14.1178 81.2981 14.4483C81.3267 14.6996 81.4436 14.8886 81.6484 15.0153C81.843 15.1356 82.0482 15.1616 82.264 15.0932C82.4796 15.0248 82.684 14.8344 82.8772 14.522C83.1289 14.1148 83.2377 13.7413 83.2035 13.4016C83.1775 13.1519 83.0618 12.9636 82.857 12.837ZM80.0248 15.838C79.8236 15.8941 79.6576 15.9597 79.5264 16.0343C79.3954 16.109 79.3004 16.1937 79.2419 16.2885C79.1659 16.4113 79.1737 16.5649 79.2651 16.7489C79.4231 17.066 79.7441 17.3741 80.2281 17.6733C80.689 17.9584 81.079 18.0862 81.398 18.0569C81.718 18.0316 81.935 17.9269 82.0489 17.7424C82.1312 17.6094 82.1246 17.4742 82.0287 17.3371C81.9304 17.1984 81.6873 17.002 81.2993 16.748C80.7325 16.3765 80.3076 16.0731 80.0248 15.838Z" fill="white"/>
<path d="M87.3071 17.6947L86.0671 18.9772C85.7994 19.2542 85.6632 19.4555 85.6589 19.5813C85.6491 19.756 85.7275 19.924 85.8942 20.0851L86.0631 20.2483L85.9469 20.3684L84.0605 18.5447L84.1766 18.4246L84.3423 18.5846C84.5284 18.7646 84.7202 18.8328 84.9175 18.789C85.0255 18.7637 85.2011 18.6254 85.4437 18.3745L88.1936 15.5303C88.4615 15.2532 88.5987 15.0529 88.6051 14.9293C88.6128 14.7524 88.5332 14.5835 88.3666 14.4223L88.201 14.2622L88.3173 14.1421L89.9307 15.7023C90.3247 16.083 90.5956 16.4245 90.7433 16.7265C90.8931 17.0263 90.9529 17.348 90.9225 17.6913C90.892 18.0346 90.7491 18.3383 90.4939 18.6023C90.1466 18.9616 89.745 19.1388 89.2892 19.1337C88.8357 19.1306 88.3923 18.9199 87.9595 18.5014C87.8534 18.3988 87.746 18.2803 87.6373 18.1459C87.5286 18.0115 87.4186 17.861 87.3071 17.6947ZM87.4861 17.5095C87.5798 17.6421 87.6658 17.7568 87.7441 17.8535C87.8224 17.95 87.893 18.0287 87.9558 18.0893C88.1808 18.307 88.4583 18.4078 88.788 18.3916C89.1221 18.3753 89.423 18.2287 89.6909 17.9515C89.8749 17.7611 90.0066 17.547 90.0857 17.3093C90.1667 17.0694 90.1746 16.8404 90.1092 16.6223C90.0459 16.4018 89.9233 16.2037 89.7414 16.028C89.6311 15.9213 89.4694 15.8048 89.2565 15.6784L87.4861 17.5095Z" fill="white"/>
<path d="M89.3793 23.4046C88.8599 23.2705 88.5466 23.1763 88.4398 23.1222C88.2806 23.0399 88.1448 22.9263 88.0321 22.7812C87.8566 22.5552 87.789 22.3086 87.8291 22.0411C87.871 21.776 88.018 21.5455 88.2701 21.3499C88.4295 21.2261 88.595 21.1548 88.7671 21.1356C89.0045 21.1076 89.2878 21.1583 89.6169 21.2876C89.9478 21.4194 90.4336 21.6866 91.0738 22.0891L91.2022 21.9893C91.528 21.7364 91.711 21.5104 91.7509 21.3117C91.7929 21.1153 91.7372 20.9183 91.584 20.721C91.4676 20.5711 91.3349 20.4836 91.1857 20.4585C91.0348 20.4309 90.9068 20.4577 90.8023 20.5389L90.6008 20.7066C90.4915 20.7916 90.3849 20.8286 90.2811 20.8176C90.1792 20.8092 90.0932 20.7597 90.0231 20.6693C89.9546 20.5813 89.9293 20.4848 89.9468 20.3797C89.9662 20.277 90.0294 20.1841 90.1364 20.101C90.3409 19.9422 90.6101 19.9011 90.9437 19.9774C91.2774 20.0537 91.5911 20.2809 91.8846 20.659C92.11 20.9491 92.2458 21.2247 92.2923 21.486C92.3275 21.6835 92.2925 21.8765 92.1872 22.065C92.1183 22.1873 91.9256 22.371 91.6093 22.6167L90.4999 23.478C90.1883 23.7198 90.0015 23.8744 89.9394 23.9418C89.8797 24.0072 89.8481 24.0622 89.8446 24.1069C89.843 24.1537 89.856 24.1952 89.8837 24.2308C89.9133 24.2689 89.9474 24.2957 89.9862 24.3113C90.0559 24.3372 90.2175 24.3662 90.471 24.3981L90.2713 24.5532C89.7077 24.5638 89.3319 24.4479 89.1435 24.2052C89.053 24.0887 89.0214 23.9646 89.0487 23.8328C89.076 23.7012 89.1862 23.5583 89.3793 23.4046ZM89.6113 23.2245L90.8563 22.258C90.4347 22.0097 90.1536 21.8563 90.0129 21.7977C89.7624 21.6912 89.5488 21.6417 89.3718 21.6494C89.1948 21.6573 89.0387 21.7137 88.903 21.819C88.7319 21.9519 88.6289 22.1139 88.5941 22.3047C88.5617 22.4937 88.5972 22.6549 88.7006 22.7881C88.8409 22.9688 89.1446 23.1143 89.6113 23.2245Z" fill="white"/>
<path d="M93.979 23.6891L93.1859 24.1753C93.8956 24.1463 94.3456 24.287 94.5361 24.5977C94.6226 24.7389 94.6507 24.8824 94.62 25.0283C94.5919 25.1726 94.5215 25.2795 94.4085 25.3487C94.3085 25.41 94.2033 25.4287 94.0931 25.4043C93.9829 25.3801 93.8993 25.3218 93.8428 25.2294C93.7876 25.1395 93.7691 25.0114 93.7871 24.8449C93.8093 24.6795 93.8039 24.5699 93.7708 24.516C93.7426 24.4697 93.6861 24.4355 93.6018 24.413C93.4256 24.3621 93.1793 24.3489 92.8625 24.3737L91.1723 25.4099C90.9773 25.5295 90.8445 25.6443 90.7744 25.7545C90.7255 25.8304 90.704 25.9249 90.7097 26.0379C90.7154 26.1509 90.7672 26.287 90.8647 26.4461L90.726 26.5312L89.6189 24.7254L89.7576 24.6405C89.8677 24.8201 89.9778 24.9363 90.0878 24.9889C90.1681 25.0279 90.2611 25.0327 90.3667 25.0032C90.4182 24.9893 90.5467 24.9195 90.752 24.7936L92.1187 23.9556C92.5294 23.7037 92.7677 23.5453 92.8337 23.4801C92.9038 23.4159 92.9427 23.3497 92.9504 23.2815C92.9595 23.2158 92.9436 23.1496 92.9028 23.0828C92.8539 23.0033 92.7796 22.9253 92.6797 22.8488L92.7947 22.7253L93.8799 23.5274L93.979 23.6891Z" fill="white"/>
<path d="M96.5657 25.8196L95.3504 26.4288L95.7835 27.2928L95.501 27.4345L95.0678 26.5705L92.6697 27.7729C92.4301 27.8929 92.2855 28.0075 92.2359 28.1166C92.1875 28.2284 92.1903 28.3381 92.2444 28.4459C92.2888 28.5347 92.3589 28.6073 92.4546 28.6637C92.553 28.7189 92.6674 28.7423 92.7979 28.734L92.877 28.8915C92.5659 28.9295 92.3 28.8962 92.0791 28.7913C91.8609 28.6853 91.7058 28.5407 91.6141 28.3576C91.5519 28.2338 91.525 28.0958 91.5328 27.9437C91.5435 27.7901 91.5979 27.6534 91.6961 27.5335C91.7969 27.4122 91.9805 27.2848 92.247 27.1512L94.7339 25.9044L94.4404 25.3191L94.5736 25.2522C94.7071 25.3706 94.8822 25.4714 95.0991 25.5546C95.32 25.6393 95.5577 25.6935 95.8122 25.7174C95.9455 25.7281 96.1757 25.7205 96.5029 25.6945L96.5657 25.8196Z" fill="white"/>
<path d="M95.7181 29.0953C96.4345 29.3461 96.8693 29.6776 97.0224 30.0895C97.1012 30.3011 97.1152 30.503 97.0646 30.6954C97.0169 30.8866 96.8885 31.0725 96.6793 31.253C96.5331 31.378 96.285 31.5056 95.935 31.6357L94.2799 32.2511C94.0345 32.3424 93.8753 32.4241 93.8025 32.4961C93.7435 32.5534 93.7068 32.6232 93.6924 32.7055C93.6792 32.7908 93.7072 32.9266 93.7765 33.1128L93.624 33.1695L92.9111 31.2519L93.0635 31.1953L93.0934 31.2756C93.1606 31.4563 93.234 31.5719 93.3139 31.6225C93.3976 31.6749 93.4984 31.6952 93.6161 31.6837C93.6625 31.6792 93.7973 31.6356 94.0203 31.5527L95.6076 30.9624C95.9605 30.8312 96.1985 30.6897 96.3219 30.5379C96.4491 30.3877 96.4724 30.2041 96.3916 29.9868C96.2668 29.6509 95.9591 29.3847 95.4684 29.1881L93.4238 29.9483C93.1614 30.0458 93.0049 30.1217 92.9544 30.1759C92.8872 30.2458 92.8465 30.3219 92.8321 30.4044C92.8217 30.4886 92.8557 30.6365 92.9345 30.8482L92.782 30.9048L92.0691 28.9873L92.2215 28.9306L92.253 29.0152C92.3264 29.2128 92.4252 29.327 92.5491 29.358C92.6769 29.3909 92.8819 29.3548 93.1642 29.2498L94.6033 28.7147C95.069 28.5416 95.3483 28.4249 95.4416 28.3645C95.5358 28.307 95.593 28.2489 95.6129 28.19C95.6338 28.1341 95.6306 28.0695 95.6033 27.9961C95.574 27.917 95.5176 27.8304 95.4343 27.736L95.5632 27.616L96.4716 28.6079L96.5393 28.79L95.7181 29.0953Z" fill="white"/>
<path d="M96.1885 33.0779C95.5888 33.2108 95.152 33.4625 94.878 33.8334C94.604 34.2043 94.5118 34.5878 94.6016 34.9843C94.6616 35.2485 94.7854 35.4612 94.9733 35.6225C95.1646 35.7859 95.4515 35.8938 95.8338 35.946L95.7767 36.1025C95.3604 36.1319 94.9528 36.0361 94.5539 35.8147C94.1577 35.5927 93.909 35.2585 93.8079 34.8123C93.698 34.3278 93.7917 33.8696 94.0891 33.438C94.39 33.0087 94.8591 32.7217 95.4962 32.5772C96.1861 32.4209 96.7634 32.4752 97.2281 32.7403C97.6962 33.0078 97.9908 33.4087 98.1119 33.9432C98.2145 34.3953 98.1488 34.8007 97.9152 35.1593C97.6846 35.5172 97.3196 35.7527 96.8205 35.8659L96.1885 33.0779ZM96.444 33.02L96.8673 34.8875C97.1223 34.8141 97.2974 34.7421 97.3925 34.6712C97.5402 34.5605 97.6446 34.421 97.7051 34.253C97.7665 34.0878 97.7793 33.9259 97.7432 33.7674C97.688 33.5237 97.543 33.3266 97.3082 33.176C97.077 33.0278 96.789 32.9757 96.444 33.02Z" fill="white"/>
<path d="M98.6738 37.3831L97.7494 37.4867C98.4042 37.7617 98.752 38.0804 98.7925 38.4423C98.8108 38.6069 98.7752 38.7488 98.6855 38.8679C98.5989 38.9866 98.4897 39.0534 98.3581 39.0682C98.2414 39.0813 98.1383 39.0534 98.0489 38.9846C97.9593 38.9159 97.9086 38.8277 97.8964 38.7199C97.8847 38.6151 97.9223 38.4913 98.0094 38.3483C98.0998 38.2078 98.1414 38.1063 98.1343 38.0434C98.1283 37.9896 98.0917 37.9345 98.025 37.8784C97.8872 37.7576 97.6697 37.641 97.3723 37.529L95.402 37.7496C95.1746 37.775 95.0058 37.8226 94.8954 37.8926C94.819 37.9405 94.7595 38.0169 94.7166 38.1217C94.6738 38.2263 94.6628 38.3716 94.6836 38.557L94.5219 38.5752L94.2864 36.4703L94.4479 36.4521C94.4714 36.6616 94.5216 36.8136 94.5988 36.9079C94.6551 36.9773 94.7373 37.021 94.8453 37.0392C94.8979 37.0486 95.0439 37.0398 95.2833 37.013L96.8764 36.8347C97.3552 36.781 97.6382 36.7386 97.7256 36.7077C97.8164 36.6794 97.8798 36.636 97.9155 36.5774C97.9518 36.5217 97.9655 36.4552 97.9569 36.3773C97.9464 36.2847 97.9123 36.1825 97.8543 36.0707L98.0108 36.0078L98.6527 37.1946L98.6738 37.3831Z" fill="white"/>
<path d="M98.8919 42.0748L97.483 42.0851L97.4819 41.9361C97.9235 41.8185 98.2235 41.6688 98.3818 41.487C98.5401 41.3082 98.6181 41.0802 98.6161 40.8032C98.6146 40.5925 98.5577 40.4228 98.4453 40.2942C98.3329 40.1655 98.209 40.1017 98.0735 40.1028C97.905 40.104 97.7609 40.1532 97.6411 40.2504C97.5184 40.3446 97.3888 40.5353 97.2524 40.8223L96.9365 41.484C96.643 42.0973 96.2524 42.4058 95.7646 42.4093C95.3882 42.4121 95.0832 42.2713 94.8493 41.9871C94.6184 41.7058 94.5017 41.389 94.4991 41.0368C94.4972 40.7838 94.5402 40.4945 94.6281 40.1686C94.6575 40.069 94.672 39.9876 94.6716 39.9244C94.6711 39.8552 94.6315 39.8012 94.5529 39.7627L94.5518 39.6136L96.0286 39.6029L96.0296 39.7519C95.6088 39.8393 95.2923 40.0027 95.0804 40.2421C94.8683 40.4815 94.7634 40.7487 94.7656 41.0437C94.7671 41.2515 94.8285 41.4197 94.95 41.5482C95.0744 41.6799 95.2224 41.7449 95.3939 41.7437C95.6017 41.7422 95.7758 41.6671 95.9162 41.5186C96.0566 41.373 96.2336 41.0812 96.4472 40.6431C96.6607 40.205 96.8543 39.9175 97.0279 39.7807C97.1986 39.644 97.4148 39.5746 97.6767 39.5728C98.0169 39.5702 98.3024 39.6841 98.5329 39.9142C98.7633 40.1473 98.88 40.4491 98.8826 40.8194C98.8839 40.982 98.8507 41.1795 98.7832 41.4118C98.7391 41.5657 98.7174 41.6682 98.7177 41.7193C98.718 41.7676 98.7288 41.805 98.7501 41.832C98.7713 41.859 98.8184 41.8903 98.8908 41.9259L98.8919 42.0748Z" fill="white"/>
</g>
<defs>
<clipPath id="clip0_2230_4146">
<rect width="129.178" height="78" fill="white"/>
</clipPath>
</defs>
</svg>
