<svg width="40" height="40" viewBox="0 0 40 40" fill="none" xmlns="http://www.w3.org/2000/svg">
<rect width="40" height="40" fill="#C6C6C6"/>
<g id="Select a payment method Desk" clip-path="url(#clip0_0_1)">
<rect width="1440" height="1083" transform="translate(-802 -515)" fill="white"/>
<g id="Frame 829">
<rect x="-454" y="-88" width="648" height="228" rx="15" fill="#00AABF" fill-opacity="0.1"/>
<g id="Frame 828">
<g id="Frame 827">
<g id="Frame 830">
<g id="Frame 822">
<rect x="-190" y="-4" width="312" height="48" rx="6" fill="#00AABF" fill-opacity="0.1"/>
<g id="Frame" clip-path="url(#clip1_0_1)">
<g id="Group">
<path id="Vector" d="M18.6696 19.7859V24.413H17.2012V12.9866H21.0941C22.0807 12.9866 22.922 13.3155 23.6103 13.9733C24.314 14.631 24.6658 15.4341 24.6658 16.3824C24.6658 17.3538 24.314 18.1568 23.6103 18.8069C22.9296 19.457 22.0884 19.7782 21.0941 19.7782H18.6696V19.7859ZM18.6696 14.3939V18.3786H21.1247C21.7059 18.3786 22.1955 18.1798 22.5778 17.7897C22.9679 17.3996 23.1667 16.9255 23.1667 16.3901C23.1667 15.8623 22.9679 15.3958 22.5778 15.0058C22.1954 14.6004 21.7136 14.4016 21.1247 14.4016H18.6696V14.3939ZM28.5052 16.3366C29.5912 16.3366 30.4478 16.6272 31.0749 17.2084C31.7021 17.7897 32.0156 18.5851 32.0156 19.5947V24.413H30.616V23.327H30.5548C29.9506 24.2219 29.1399 24.6655 28.1304 24.6655C27.2662 24.6655 26.5472 24.413 25.9659 23.9006C25.3847 23.3882 25.0941 22.7534 25.0941 21.9886C25.0941 21.1779 25.4 20.5355 26.0119 20.0612C26.6237 19.5795 27.4421 19.3423 28.4593 19.3423C29.3312 19.3423 30.0502 19.503 30.6084 19.8241V19.4877C30.6084 18.9752 30.4096 18.547 30.0042 18.1875C29.5988 17.828 29.1247 17.6521 28.5816 17.6521C27.7633 17.6521 27.1132 17.9963 26.639 18.6923L25.3464 17.8816C26.0577 16.849 27.1132 16.3366 28.5052 16.3366ZM26.6084 22.0115C26.6084 22.3939 26.7691 22.7152 27.0979 22.9675C27.4191 23.2199 27.8016 23.3499 28.2375 23.3499C28.857 23.3499 29.4077 23.1205 29.8895 22.6616C30.3714 22.2027 30.6161 21.6673 30.6161 21.0478C30.1572 20.6884 29.5224 20.5048 28.7041 20.5048C28.1075 20.5048 27.6104 20.6501 27.2127 20.933C26.8073 21.2313 26.6084 21.5909 26.6084 22.0115ZM40.0004 16.5889L35.1055 27.847H33.5912L35.4114 23.9082L32.1839 16.5889H33.7823L36.1074 22.2027H36.138L38.4019 16.5889H40.0004Z" fill="#383E41"/>
<path id="Vector_2" d="M12.706 17.4753H6.55078V19.9992L10.0957 20C9.95195 20.8398 9.48922 21.5556 8.78023 22.0329V22.0334L8.78102 22.0329L8.71719 23.5414L10.8912 23.6696L10.8903 23.6704C12.1224 22.5301 12.8284 20.8444 12.8284 18.8528C12.8288 18.3909 12.7879 17.9299 12.706 17.4753Z" fill="#0085F7"/>
<path id="Vector_3" d="M8.78102 22.0329L8.78024 22.0334C8.19297 22.4292 7.4368 22.6608 6.55234 22.6608C4.84297 22.6608 3.39289 21.509 2.87359 19.9564H2.87336L2.87359 19.9572L1.05867 19.6698L0.697266 21.6456C1.77578 23.7853 3.99203 25.2535 6.55242 25.2535C8.32172 25.2535 9.8082 24.6718 10.8904 23.6703C10.8907 23.6701 10.891 23.6698 10.8913 23.6695L8.78102 22.0329Z" fill="#00A94B"/>
<path id="Vector_4" d="M2.66844 18.7036C2.66844 18.2677 2.74109 17.8462 2.87344 17.4501L2.30672 15.7613H0.696719C0.250859 16.6462 0 17.6451 0 18.7036C0 19.7621 0.251641 20.7609 0.696719 21.6459L0.697031 21.6456L2.87344 19.9571C2.73791 19.5531 2.66868 19.1298 2.66844 18.7036Z" fill="#FFBB00"/>
<path id="Vector_5" d="M6.55273 12.153C3.99289 12.153 1.7757 13.6214 0.697266 15.7614L2.87391 17.4502C3.3932 15.8976 4.84328 14.7458 6.55266 14.7458C7.51859 14.7458 8.38367 15.0785 9.06664 15.7286L10.9366 13.8602C9.80094 12.8023 8.32023 12.153 6.55273 12.153Z" fill="#FF4031"/>
</g>
</g>
</g>
</g>
</g>
</g>
</g>
</g>
<defs>
<clipPath id="clip0_0_1">
<rect width="1440" height="1083" fill="white" transform="translate(-802 -515)"/>
</clipPath>
<clipPath id="clip1_0_1">
<rect width="40" height="40" fill="white"/>
</clipPath>
</defs>
</svg>
