<svg width="117" height="70" viewBox="0 0 117 70" fill="none" xmlns="http://www.w3.org/2000/svg">
<g clip-path="url(#clip0_2225_2941)">
<path fill-rule="evenodd" clip-rule="evenodd" d="M53.4517 0.109174C26.9245 1.35729 4.97059 13.5148 0.73737 29.3089C-0.344107 33.3768 -0.235958 37.8299 1.06181 41.8208C1.618 43.5312 2.96213 46.2739 4.1054 47.9997C10.1771 57.245 22.8922 64.6258 38.5119 67.9695C52.0457 70.8817 67.2018 70.6507 80.4114 67.3532C98.4102 62.8538 111.388 53.3465 115.204 41.867C117.182 35.8883 116.486 29.3551 113.242 23.7C110.523 18.985 105.718 14.2082 100.202 10.8029C87.8272 3.11388 71.0643 -0.707492 53.4517 0.109174ZM78.0321 3.82268C89.0323 6.22646 98.6883 10.8029 105.471 16.8277C106.29 17.5519 106.954 18.1837 106.954 18.2144C106.954 18.2608 103.709 18.2915 99.7388 18.2915H92.5085L92.1686 17.6905C91.4115 16.3809 89.3412 13.7922 87.6573 12.0664C84.4283 8.7689 81.3074 6.51923 77.0742 4.40822C75.7146 3.74564 74.5868 3.16012 74.5559 3.1293C74.4787 3.05225 75.282 3.22175 78.0321 3.82268ZM39.6705 4.16169C37.075 5.4252 35.1438 6.59627 32.9963 8.2296C29.7519 10.6642 26.4919 14.085 24.5298 17.1051L23.7574 18.2915L16.496 18.2761H9.23469L10.1617 17.4287C15.4764 12.5441 22.3823 8.66105 30.6325 5.90287C33.7534 4.87048 40.2268 3.22175 41.2927 3.20634C41.5245 3.19093 40.8447 3.59156 39.6705 4.16169ZM21.9498 21.7124C20.4202 25.1331 19.5241 28.4151 19.1842 31.9592L18.9988 33.8545H10.3625H1.7416V33.2227C1.7416 32.2828 2.29779 29.7402 2.83853 28.1994C3.70371 25.7802 4.81608 23.7771 6.65459 21.3271L7.67427 19.9866H15.1983H22.7222L21.9498 21.7124ZM109.781 21.4965C111.851 24.2856 113.242 27.0746 113.968 29.9252C114.37 31.466 114.694 33.6386 114.555 33.7774C114.509 33.8236 110.631 33.8545 105.919 33.8545C99.2135 33.8545 97.3597 33.8083 97.3133 33.6541C97.2824 33.5616 97.1742 32.6834 97.0815 31.728C96.6953 27.9837 95.5829 24.0698 93.9762 20.8956L93.5126 19.9866H101.083H108.653L109.781 21.4965ZM19.0452 36.1966C19.0452 39.6173 20.204 44.4094 21.9498 48.2924L22.7222 50.0336H15.2137H7.68973L6.96358 49.1091C4.49164 46.0274 2.76128 42.4371 2.06604 38.9701C1.81884 37.7374 1.6489 35.9962 1.72616 35.5032C1.72616 35.4415 5.63491 35.3953 10.3934 35.3953H19.0452V36.1966ZM91.7267 49.7905C94.2235 45.3149 95.6277 40.2696 95.6277 34.9316C95.6277 16.4803 78.8501 1.52253 58.1538 1.52253C37.4576 1.52253 20.68 16.4803 20.68 34.9316C20.68 53.3829 37.4576 68.3407 58.1538 68.3407C72.7541 68.3407 85.4041 60.8967 91.5895 50.0336H91.6123L91.7267 49.7905ZM114.679 35.6573C114.679 36.4739 114.292 38.8931 113.968 40.1567C113.211 43.0227 111.821 45.8116 109.766 48.5236L108.638 50.0336H101.067H93.5126L93.9762 49.1246C95.7219 45.6421 96.9734 40.9886 97.1742 37.1981L97.267 35.3953H105.98C114.169 35.3953 114.679 35.4106 114.679 35.6573ZM24.5608 52.9459C28.0679 58.2619 33.2898 62.7304 39.6705 65.8739C42.0035 67.0141 41.8798 67.0295 37.8938 66.1204C26.4456 63.4855 16.9441 58.8629 10.1617 52.5915L9.23469 51.744H16.496L23.7574 51.7287L24.5608 52.9459ZM106.954 51.8057C106.954 51.8364 106.29 52.4682 105.471 53.1924C98.7037 59.2019 89.1249 63.7475 78.063 66.1975C74.3087 67.0295 74.2779 67.0141 77.0587 65.6274C81.3692 63.4701 84.4746 61.2204 87.6727 57.923C89.3876 56.151 91.4269 53.6239 92.1686 52.3296L92.5085 51.7287H99.7388C103.709 51.7287 106.954 51.7594 106.954 51.8057Z" fill="#076CB3"/>
<path d="M50.811 61.2851H47.9713V60.859L48.8033 60.3645L48.3377 59.2308H45.9789L45.5591 60.2503L46.727 60.7906L46.4827 61.2851H44.0171V60.859L44.8415 60.2427L46.7957 55.5482L48.1163 55.1601L50.2842 60.4025L51.0629 60.7906L50.811 61.2851ZM47.1697 56.3623L46.2232 58.6449H48.101L47.1697 56.3623ZM62.1644 56.309L60.4621 61.034L59.1492 61.4221L58.0652 58.3634L57.2102 61.034L55.8896 61.4221L53.8667 56.1645L53.111 55.7917L53.3553 55.2971H55.8286V55.7232L55.2942 56.1188L56.8133 60.1438L57.7064 57.3667L57.2789 56.1645L56.5843 55.7993L56.8286 55.3047H59.5003V55.7308L58.737 56.2025L60.0881 60.1514L61.424 56.3623L60.2179 55.7993L60.4698 55.3047H62.9278L62.9354 55.7232L62.1644 56.309ZM68.9777 55.1525C69.2729 55.1525 69.6164 55.1906 70.0083 55.2667C70.4052 55.3427 70.6953 55.4239 70.8785 55.5101V57.1308H70.1533C69.7615 56.3954 69.222 56.0275 68.535 56.0275C68.255 56.0275 67.9981 56.1163 67.764 56.2938C67.5298 56.4715 67.3441 56.7149 67.2067 57.0243C67.0745 57.3337 67.0083 57.6812 67.0083 58.0667C67.0083 58.503 67.0745 58.9036 67.2067 59.2688C67.3441 59.6291 67.5502 59.9182 67.8251 60.1362C68.0999 60.3493 68.4409 60.4558 68.8479 60.4558C69.3111 60.4558 69.9701 60.2022 70.825 59.6949L71.1304 60.1819L69.7258 61.2699C69.5019 61.3359 69.2856 61.3791 69.077 61.3993C68.8733 61.4247 68.6546 61.4373 68.4205 61.4373C67.8505 61.4373 67.3441 61.308 66.9014 61.0493C66.4586 60.7906 66.1151 60.4356 65.8709 59.984C65.6266 59.5275 65.5044 59.0101 65.5044 58.4319C65.5044 57.8384 65.6877 57.2906 66.0541 56.7884C66.4205 56.2812 66.876 55.883 67.4205 55.5938C67.965 55.2997 68.484 55.1525 68.9777 55.1525Z" fill="#076CB3"/>
<mask id="mask0_2225_2941" style="mask-type:luminance" maskUnits="userSpaceOnUse" x="42" y="14" width="31" height="38">
<path d="M72.8659 14.1112H42.4705V51.3247H72.8659V14.1112Z" fill="white"/>
</mask>
<g mask="url(#mask0_2225_2941)">
<path d="M71.0232 28.0603V27.0842H69.2359V25.9686H58.4991V24.7136H67.1679V25.4108H67.6385V23.7375H58.4991C58.4991 23.7375 58.1542 23.0873 58.4991 23.0873H63.3125V21.4594H59.6441L58.3457 18.0657H57.9977V15.042L57.6681 14.1112L57.3386 15.042V18.0628H56.9905L55.6921 21.4564H52.0239V23.0842H56.8373C57.1822 23.0842 56.8373 23.7344 56.8373 23.7344H47.6994V25.4078H48.17V24.7106H56.8388V25.9656H46.1005V27.0812H44.313V28.0573H56.8388V29.2668H47.0877V32.7074H47.1582C50.707 31.0038 54.8935 30.1035 54.8935 30.1035V29.8246L56.8373 30.0109L57.6681 30.3595L58.4991 29.9412L60.4428 29.8246V30.1035C60.4428 30.1035 64.6294 31.0038 68.1781 32.7074H68.2486V29.2668H58.4975V28.0573H71.0232V28.0603Z" fill="#076CB3"/>
<path d="M59.6136 31.5949V30.8037H55.7245V31.5949C55.7245 31.5949 49.2354 32.9894 45.5671 35.5933C45.5671 35.5933 50.2226 41.2195 50.2226 49.9606H65.1153C65.1153 41.2195 69.7709 35.5933 69.7709 35.5933C66.1025 32.9894 59.6136 31.5949 59.6136 31.5949ZM59.3039 34.6203C58.3105 34.4399 57.6683 34.3852 57.6683 34.3852C57.6683 34.3852 57.0259 34.4399 56.0326 34.6203C54.1378 34.9643 50.9661 35.7616 48.5287 37.5001C48.5287 37.5001 51.4705 34.8763 55.9636 33.9442C56.5094 33.8305 57.078 33.7426 57.6683 33.688C58.2569 33.7442 58.8272 33.832 59.3729 33.9442C63.866 34.8748 66.8077 37.5001 66.8077 37.5001C64.3703 35.7616 61.1986 34.9628 59.3039 34.6203Z" fill="#076CB3"/>
<path d="M72.8659 49.9606H57.6682H42.4705L52.6309 50.6426L45.567 51.3247H57.6682H69.7708L62.7055 50.6426L72.8659 49.9606Z" fill="#076CB3"/>
</g>
<path d="M27.1441 33.162L29.0226 33.1236L29.0166 33.249C28.4482 33.3904 28.0337 33.6104 27.7727 33.9093C27.5117 34.2083 27.3711 34.575 27.3508 35.0096C27.3337 35.3739 27.4117 35.7076 27.5848 36.0104C27.7551 36.3133 28.0393 36.5591 28.4377 36.7479C28.836 36.9343 29.3371 37.0414 29.9409 37.0694C30.4392 37.0927 30.8747 37.0331 31.2478 36.8908C31.6207 36.7486 31.9122 36.5229 32.1221 36.2134C32.332 35.9013 32.4467 35.5401 32.466 35.1298C32.4826 34.7735 32.4216 34.4556 32.2826 34.1759C32.1411 33.8962 31.8504 33.5824 31.4107 33.2347L31.4979 33.1129C31.9752 33.411 32.3189 33.7489 32.5291 34.1265C32.7394 34.5042 32.8328 34.9454 32.8091 35.4502C32.7666 36.3596 32.3951 37.0484 31.6947 37.5161C31.1737 37.8653 30.5719 38.0238 29.8896 37.9922C29.3398 37.9666 28.8406 37.8203 28.3917 37.5532C27.9429 37.2862 27.6027 36.9323 27.3709 36.4915C27.1366 36.0478 27.0314 35.5708 27.0553 35.0607C27.0738 34.664 27.1897 34.2772 27.4027 33.9003C27.4675 33.7897 27.5011 33.7101 27.5035 33.6616C27.5068 33.5887 27.484 33.5241 27.4352 33.4676C27.3654 33.394 27.2661 33.3394 27.1375 33.3037L27.1441 33.162Z" fill="#076CB3"/>
<path d="M29.3426 31.2641L30.1654 31.4203C29.6752 31.011 29.4609 30.6456 29.5222 30.3245C29.5501 30.1786 29.6185 30.0664 29.7273 29.988C29.8334 29.9091 29.9451 29.8809 30.0622 29.9031C30.1661 29.9228 30.2474 29.974 30.3061 30.0567C30.3648 30.1393 30.3851 30.2285 30.3668 30.324C30.349 30.4169 30.2836 30.5131 30.1708 30.6127C30.0557 30.7091 29.993 30.7852 29.9823 30.841C29.9731 30.8888 29.9899 30.9455 30.0325 31.0114C30.1189 31.1517 30.275 31.3092 30.501 31.4841L32.2545 31.8172C32.4568 31.8557 32.6148 31.8596 32.7282 31.8288C32.8067 31.808 32.8783 31.7583 32.943 31.6798C33.0077 31.6014 33.0557 31.4798 33.0872 31.3153L33.231 31.3426L32.8739 33.2098L32.7301 33.1825C32.7656 32.9967 32.7627 32.8531 32.7215 32.7517C32.6915 32.6773 32.6325 32.6179 32.5444 32.5737C32.5017 32.5518 32.3738 32.5207 32.1608 32.4801L30.7427 32.2108C30.3168 32.1299 30.062 32.0911 29.9786 32.0946C29.8929 32.0947 29.827 32.1152 29.7805 32.156C29.7346 32.1939 29.7051 32.2475 29.6918 32.3165C29.6761 32.3988 29.6783 32.4955 29.6985 32.6066L29.547 32.619L29.3105 31.4313L29.3426 31.2641Z" fill="#076CB3"/>
<path d="M30.756 26.4854L32.9083 27.1621C33.3194 27.2913 33.5742 27.3616 33.673 27.3728C33.77 27.3806 33.8432 27.3696 33.8924 27.3397C33.9424 27.3073 33.9764 27.2628 33.9943 27.2061C34.0197 27.1262 34.0262 27.0291 34.014 26.9147L34.167 26.9034L34.2699 28.1001L34.215 28.274L33.4626 28.0376C33.6973 28.4457 33.8321 28.743 33.8668 28.9296C33.9016 29.1161 33.8908 29.2983 33.8346 29.4762C33.7717 29.6746 33.6602 29.8294 33.5001 29.9405C33.338 30.0483 33.1575 30.1019 32.9586 30.1018C32.7597 30.1015 32.4948 30.0495 32.1639 29.9455L30.5779 29.4467C30.4099 29.3939 30.2879 29.3754 30.2118 29.3911C30.1357 29.4069 30.0694 29.4456 30.0131 29.5072C29.9548 29.5653 29.8977 29.6876 29.8415 29.8739L29.698 29.8288L30.0906 28.5881L32.4677 29.3355C32.7987 29.4396 33.0339 29.451 33.1731 29.3702C33.3133 29.2868 33.4089 29.1638 33.4604 29.0016C33.4953 28.8908 33.5001 28.7548 33.4743 28.5937C33.4493 28.4301 33.3692 28.2206 33.2339 27.9657L31.2212 27.3329C31.0196 27.2696 30.872 27.2642 30.7786 27.317C30.6834 27.3664 30.5965 27.5063 30.518 27.7365L30.3745 27.6914L30.756 26.4854Z" fill="#076CB3"/>
<path d="M29.5914 24.0012C29.6371 23.8973 29.713 23.8257 29.8192 23.7866C29.9238 23.7438 30.0283 23.7452 30.1326 23.7909C30.2368 23.8365 30.3098 23.9128 30.3516 24.0196C30.3943 24.1239 30.3929 24.228 30.3471 24.3319C30.3013 24.4358 30.2249 24.5086 30.1177 24.5502C30.0106 24.5919 29.9049 24.5898 29.8006 24.5443C29.6963 24.4986 29.624 24.4242 29.5836 24.3209C29.542 24.2141 29.5445 24.1075 29.5914 24.0012ZM31.5103 24.4737L34.2505 25.673C34.464 25.7665 34.6132 25.8141 34.6983 25.8159C34.7819 25.8141 34.8543 25.7911 34.9152 25.747C34.9771 25.7004 35.0436 25.5966 35.1144 25.4359L35.2484 25.4945L34.5209 27.1459L34.3869 27.0872C34.4599 26.9215 34.4928 26.8031 34.4856 26.732C34.4784 26.661 34.4447 26.5931 34.3844 26.5284C34.3252 26.4611 34.1901 26.3814 33.9792 26.289L32.665 25.7138C32.2951 25.5519 32.0507 25.4583 31.9317 25.4327C31.8446 25.4153 31.7781 25.4186 31.7319 25.4427C31.6833 25.4656 31.6448 25.5093 31.6164 25.5737C31.586 25.6428 31.5675 25.7351 31.5611 25.8503L31.4042 25.8437L31.4384 24.637L31.5103 24.4737Z" fill="#076CB3"/>
<path d="M33.1471 21.3572L34.2544 21.9742L34.189 22.091C33.7908 21.9868 33.4895 21.9706 33.2847 22.0421C33.0812 22.1114 32.9187 22.2546 32.7969 22.4715C32.7044 22.6367 32.6734 22.7943 32.7041 22.9445C32.7348 23.0948 32.8033 23.1995 32.9098 23.2588C33.0423 23.3326 33.1771 23.3582 33.3141 23.3355C33.452 23.3164 33.6383 23.2251 33.8729 23.0617L34.4146 22.6857C34.9173 22.3373 35.3603 22.2701 35.7436 22.4836C36.0394 22.6485 36.2155 22.8936 36.2722 23.2191C36.3275 23.541 36.278 23.84 36.1232 24.116C36.0121 24.3141 35.8497 24.5206 35.6358 24.7359C35.5685 24.8005 35.5209 24.8576 35.4931 24.9071C35.4627 24.9614 35.4697 25.021 35.5141 25.0859L35.4486 25.2026L34.288 24.5559L34.3534 24.4391C34.7217 24.5577 35.042 24.5707 35.3146 24.4779C35.5871 24.3852 35.7882 24.2233 35.9178 23.9922C36.009 23.8295 36.0358 23.6709 35.998 23.5168C35.9592 23.359 35.8723 23.2425 35.7375 23.1674C35.5742 23.0764 35.4046 23.0577 35.2286 23.1114C35.0538 23.1625 34.7854 23.3117 34.4233 23.5587C34.0611 23.8058 33.7817 23.9442 33.5849 23.9739C33.3906 24.0049 33.1904 23.963 32.9845 23.8483C32.7171 23.6993 32.5445 23.4839 32.4665 23.2021C32.3899 22.918 32.4329 22.6309 32.5956 22.3408C32.6669 22.2134 32.7808 22.0741 32.9371 21.9227C33.04 21.8223 33.1027 21.752 33.1252 21.7119C33.1464 21.6741 33.1546 21.6401 33.15 21.6095C33.1453 21.5791 33.1226 21.534 33.0816 21.474L33.1471 21.3572Z" fill="#076CB3"/>
<path d="M35.2292 20.9253C35.6756 21.2508 36.1055 21.3961 36.5191 21.3609C36.9329 21.3259 37.2471 21.1607 37.4617 20.8652C37.6048 20.6684 37.675 20.4588 37.6724 20.2368C37.669 20.0109 37.5715 19.7537 37.3795 19.465L37.5194 19.4107C37.7867 19.6739 37.9642 20.0055 38.0518 20.4055C38.137 20.8041 38.0589 21.1696 37.8173 21.5023C37.5549 21.8634 37.1894 22.0716 36.7208 22.1269C36.2516 22.1786 35.7787 22.0324 35.3022 21.6885C34.7863 21.3161 34.4799 20.8948 34.383 20.4246C34.2856 19.9507 34.3816 19.5145 34.671 19.1162C34.9158 18.7792 35.2289 18.5832 35.6102 18.5281C35.9894 18.4715 36.3656 18.5779 36.7389 18.8474L35.2292 20.9253ZM35.0382 20.7874L36.0493 19.3955C35.8482 19.267 35.6954 19.1917 35.5909 19.1698C35.4282 19.1357 35.272 19.148 35.1222 19.2068C34.9741 19.2633 34.8571 19.3507 34.7712 19.4688C34.6392 19.6505 34.5922 19.865 34.6299 20.1124C34.6671 20.3562 34.8033 20.5811 35.0382 20.7874Z" fill="#076CB3"/>
<path d="M42.2098 14.649L42.3291 14.5814L42.9696 16.009L39.7763 18.8337L39.6765 18.7215L39.8315 18.5844C40.006 18.4302 40.0802 18.2632 40.0545 18.0838C40.0394 17.9814 39.9275 17.8131 39.7189 17.5786L37.3573 14.9262C37.1287 14.6696 36.9573 14.534 36.8429 14.5196C36.6847 14.5007 36.5274 14.5601 36.3714 14.6983L36.2162 14.8354L36.1165 14.7234L37.9836 13.0715L38.0836 13.1837C37.8627 13.3753 37.7267 13.5319 37.6752 13.6532C37.6258 13.7728 37.6137 13.8792 37.6389 13.9726C37.664 14.066 37.7854 14.2349 38.0032 14.4795L40.3028 17.062C40.4522 17.2298 40.571 17.3307 40.6591 17.3646C40.7213 17.3855 40.7867 17.3837 40.8554 17.359C40.9241 17.3344 41.0912 17.2046 41.3567 16.9696L41.6579 16.7033C41.9742 16.4236 42.1754 16.2039 42.2617 16.0444C42.3481 15.885 42.3918 15.6999 42.3929 15.4895C42.3922 15.277 42.3311 14.9969 42.2098 14.649Z" fill="#076CB3"/>
<path d="M40.8954 10.4878C40.9892 10.4235 41.0917 10.4027 41.2024 10.4252C41.314 10.4439 41.402 10.5 41.4664 10.5936C41.5308 10.6871 41.5526 10.7903 41.5315 10.903C41.5128 11.0142 41.4564 11.1019 41.3626 11.1661C41.2686 11.2303 41.1652 11.2519 41.0521 11.231C40.939 11.21 40.8503 11.1528 40.7859 11.0592C40.7214 10.9657 40.6994 10.8644 40.7197 10.7554C40.7407 10.6428 40.7992 10.5535 40.8954 10.4878ZM42.2758 11.8979L43.9695 14.3572C44.1015 14.5488 44.2031 14.6678 44.2744 14.714C44.3465 14.7564 44.42 14.775 44.4951 14.7694C44.5724 14.7624 44.6837 14.7091 44.829 14.6098L44.9119 14.7302L43.42 15.7508L43.3373 15.6305C43.4869 15.5281 43.5776 15.4448 43.6091 15.3806C43.6404 15.3164 43.6478 15.241 43.6307 15.1543C43.616 15.0662 43.5434 14.9273 43.4131 14.738L42.6007 13.5585C42.3722 13.2265 42.2141 13.0185 42.1265 12.9342C42.0617 12.8736 42.0034 12.8414 41.9515 12.8376C41.898 12.8316 41.8422 12.8485 41.7841 12.8882C41.7215 12.9311 41.6571 12.9998 41.5906 13.0943L41.4608 13.0062L42.1284 11.9989L42.2758 11.8979Z" fill="#076CB3"/>
<path d="M44.5353 11.4343C44.6724 10.767 44.9155 10.3404 45.2645 10.1545C45.4438 10.0589 45.6223 10.0221 45.8 10.0439C45.9764 10.0633 46.1578 10.1551 46.3442 10.3193C46.4734 10.4343 46.6172 10.6395 46.7757 10.935L47.5249 12.3326C47.6361 12.54 47.7282 12.6717 47.8012 12.7277C47.8595 12.7733 47.9263 12.7975 48.0015 12.8003C48.0792 12.8018 48.1969 12.7605 48.3547 12.6765L48.4237 12.8052L46.7991 13.6705L46.7302 13.5418L46.7983 13.5055C46.9513 13.424 47.0455 13.3447 47.081 13.2676C47.1177 13.1868 47.1236 13.0948 47.0991 12.9915C47.0894 12.9506 47.0341 12.8361 46.9332 12.6478L46.2146 11.3074C46.0548 11.0095 45.8998 10.8148 45.7493 10.7234C45.6 10.6283 45.4333 10.6298 45.2493 10.7278C44.9647 10.8794 44.7645 11.1852 44.6484 11.6452L45.574 13.3718C45.6928 13.5934 45.7794 13.7234 45.8338 13.7618C45.9044 13.8131 45.9772 13.8402 46.0526 13.843C46.1289 13.8421 46.2567 13.7939 46.4361 13.6984L46.505 13.8271L44.8805 14.6924L44.8115 14.5637L44.8833 14.5255C45.0506 14.4363 45.1406 14.3348 45.1532 14.2208C45.1671 14.1032 45.11 13.9253 44.9822 13.6869L44.3307 12.4716C44.1199 12.0784 43.9819 11.844 43.9168 11.7684C43.8541 11.6915 43.7953 11.6478 43.7404 11.6371C43.688 11.6253 43.6307 11.6359 43.5685 11.669C43.5016 11.7046 43.4311 11.7652 43.357 11.8506L43.2341 11.7506L44.0093 10.823L44.1636 10.7409L44.5353 11.4343Z" fill="#076CB3"/>
<path d="M48.0437 10.5323C48.2358 11.0492 48.5141 11.4067 48.8786 11.605C49.243 11.8032 49.5965 11.8382 49.9389 11.7098C50.1674 11.6241 50.3418 11.488 50.4626 11.3013C50.5849 11.1111 50.6458 10.8429 50.6455 10.4966L50.7921 10.5283C50.8695 10.8947 50.834 11.2688 50.6856 11.6507C50.5363 12.03 50.2687 12.292 49.883 12.4365C49.4644 12.5935 49.0443 12.5662 48.6228 12.3547C48.2028 12.1398 47.8892 11.7579 47.6822 11.2091C47.458 10.6148 47.4355 10.0949 47.615 9.64947C47.7961 9.20056 48.1176 8.88954 48.5793 8.71644C48.97 8.56995 49.3396 8.57861 49.6881 8.7424C50.0358 8.90367 50.2906 9.19927 50.4529 9.6292L48.0437 10.5323ZM47.9607 10.3123L49.5745 9.70737C49.4777 9.48956 49.3919 9.34276 49.317 9.26693C49.2001 9.14908 49.063 9.07348 48.9056 9.04011C48.7507 9.00579 48.6047 9.01431 48.4677 9.06566C48.2572 9.14461 48.0991 9.29767 47.9938 9.52483C47.8899 9.74851 47.8788 10.011 47.9607 10.3123Z" fill="#076CB3"/>
<path d="M52.8167 7.5043L53.116 8.73311L52.9857 8.76468C52.7915 8.40293 52.5985 8.1716 52.4065 8.07069C52.2172 7.96915 52.0014 7.94771 51.7591 8.00637C51.5746 8.05099 51.4376 8.13559 51.348 8.26016C51.2584 8.38473 51.228 8.50608 51.2568 8.62423C51.2926 8.77128 51.3654 8.88711 51.4754 8.97173C51.5832 9.05962 51.777 9.13367 52.0566 9.19388L52.7017 9.33388C53.2998 9.46439 53.6506 9.74233 53.7542 10.1677C53.8341 10.4959 53.7736 10.7914 53.5726 11.0541C53.3736 11.3136 53.12 11.4806 52.8119 11.5552C52.5906 11.6088 52.3281 11.6306 52.0244 11.6207C51.9312 11.6155 51.8568 11.6196 51.8014 11.6329C51.7409 11.6476 51.7017 11.6932 51.6841 11.7698L51.5538 11.8013L51.24 10.5135L51.3704 10.4819C51.5337 10.8316 51.7421 11.0745 51.9957 11.2106C52.2491 11.3466 52.5051 11.3834 52.7632 11.3209C52.9449 11.2769 53.0797 11.1887 53.1674 11.0563C53.257 10.9206 53.2837 10.7779 53.2472 10.6282C53.203 10.4471 53.1015 10.3104 52.9423 10.2182C52.7857 10.1254 52.4934 10.0307 52.0655 9.93413C51.6375 9.83753 51.3456 9.72744 51.19 9.60385C51.035 9.48287 50.9296 9.30817 50.874 9.07973C50.8017 8.78303 50.8426 8.51037 50.9969 8.26173C51.1538 8.01244 51.3942 7.84859 51.7183 7.77018C51.8605 7.73575 52.0404 7.72418 52.2579 7.73547C52.4018 7.74234 52.4962 7.74035 52.541 7.72952C52.5831 7.71933 52.6139 7.70216 52.633 7.67804C52.6523 7.65392 52.6701 7.60654 52.6863 7.53587L52.8167 7.5043Z" fill="#076CB3"/>
<path d="M57.4438 7.79453L60.0053 7.76598L59.9877 6.19353C59.9845 5.91255 59.9648 5.72768 59.9286 5.6389C59.9007 5.57167 59.8431 5.51422 59.7559 5.46654C59.6386 5.40301 59.5148 5.37196 59.3848 5.3734L59.1896 5.37559L59.188 5.22564L61.5462 5.19934L61.5478 5.34929L61.3527 5.35147C61.2225 5.35293 61.0995 5.38537 60.9836 5.44881C60.8975 5.493 60.8386 5.55985 60.807 5.64937C60.7782 5.73617 60.7653 5.91466 60.7682 6.18483L60.8081 9.73093C60.8113 10.0092 60.8308 10.1927 60.8671 10.2815C60.895 10.3487 60.9512 10.4062 61.0358 10.4539C61.1557 10.5174 61.2808 10.5484 61.411 10.547L61.6061 10.5448L61.6078 10.6948L59.2496 10.7211L59.2479 10.5711L59.4431 10.5689C59.668 10.5664 59.8313 10.4984 59.9328 10.3649C59.9996 10.2777 60.0311 10.0692 60.0274 9.73963L60.0086 8.06587L57.4471 8.09442L57.466 9.76818C57.469 10.0465 57.4887 10.23 57.5249 10.3187C57.5528 10.386 57.6104 10.4434 57.6976 10.4911C57.8149 10.5547 57.9387 10.5857 58.0687 10.5843L58.268 10.582L58.2697 10.732L55.9073 10.7583L55.9057 10.6084L56.1008 10.6062C56.3286 10.6036 56.4932 10.5356 56.5946 10.4021C56.6588 10.3149 56.689 10.1065 56.6853 9.77688L56.6454 6.23079C56.6424 5.94981 56.6227 5.76493 56.5864 5.67616C56.5585 5.60892 56.5023 5.55146 56.4177 5.50376C56.2977 5.44025 56.1727 5.40922 56.0425 5.41067L55.8474 5.41284L55.8457 5.26289L58.2079 5.23655L58.2097 5.3865L58.0104 5.38873C57.8804 5.39018 57.7574 5.42262 57.6415 5.48606C57.558 5.53022 57.5004 5.59707 57.4689 5.68659C57.4374 5.77341 57.4231 5.95191 57.4261 6.22209L57.4438 7.79453Z" fill="#076CB3"/>
<path d="M63.257 5.25163C63.3698 5.26646 63.4599 5.31918 63.5272 5.40978C63.5976 5.49806 63.6253 5.59845 63.6105 5.71096C63.5956 5.82347 63.5425 5.91461 63.4513 5.98438C63.3627 6.0545 63.262 6.08214 63.1491 6.06731C63.0362 6.05248 62.9448 5.99958 62.8747 5.90862C62.8048 5.81766 62.7772 5.71593 62.7922 5.60343C62.807 5.49092 62.8585 5.40094 62.9468 5.3335C63.038 5.26374 63.1414 5.23644 63.257 5.25163ZM63.3371 7.22029L62.9458 10.1777C62.9154 10.408 62.9111 10.5642 62.933 10.6461C62.9582 10.7257 63.0003 10.7885 63.0599 10.8345C63.1222 10.8808 63.2406 10.9154 63.4153 10.9384L63.3962 11.083L61.6023 10.8473L61.6213 10.7027C61.8015 10.7263 61.9247 10.7248 61.9911 10.6981C62.0575 10.6714 62.1135 10.6202 62.1591 10.5444C62.2073 10.469 62.2466 10.3174 62.2767 10.0897L62.4642 8.67131C62.5171 8.27217 62.5391 8.01208 62.5305 7.89103C62.523 7.80284 62.5013 7.74002 62.4652 7.70259C62.4295 7.66247 62.3768 7.63782 62.3068 7.62863C62.2316 7.61874 62.1376 7.62682 62.0248 7.65288L61.9874 7.5008L63.1597 7.19698L63.3371 7.22029Z" fill="#076CB3"/>
<path d="M65.489 7.61979L65.3072 8.43481C65.7327 7.95889 66.1055 7.75639 66.4257 7.82733C66.5713 7.85958 66.6816 7.93108 66.7568 8.04188C66.8328 8.15002 66.8577 8.26212 66.8318 8.37817C66.8089 8.48104 66.755 8.56046 66.6704 8.61643C66.5857 8.67241 66.4958 8.68984 66.4004 8.66873C66.3079 8.64821 66.2133 8.58022 66.1169 8.46474C66.0237 8.34721 65.9494 8.2823 65.8937 8.26999C65.8461 8.25943 65.7886 8.27438 65.7213 8.31481C65.5781 8.39657 65.4154 8.54735 65.2331 8.76714L64.8457 10.504C64.801 10.7044 64.7924 10.8617 64.8197 10.9757C64.8382 11.0545 64.8858 11.1273 64.9625 11.1942C65.0393 11.261 65.1598 11.3126 65.3238 11.3489L65.292 11.4914L63.4304 11.0789L63.4622 10.9365C63.6474 10.9775 63.7916 10.979 63.8944 10.9409C63.9699 10.9134 64.0313 10.8564 64.0783 10.7699C64.1016 10.728 64.1367 10.6015 64.1838 10.3905L64.4969 8.98602C64.5911 8.56402 64.6376 8.31139 64.6368 8.22816C64.6392 8.14287 64.6207 8.07649 64.5813 8.02901C64.5445 7.98212 64.4918 7.95106 64.4229 7.93582C64.3409 7.91764 64.2439 7.9169 64.1319 7.9336L64.124 7.78238L65.3222 7.58286L65.489 7.61979Z" fill="#076CB3"/>
<path d="M68.6289 6.45511C68.7375 6.48925 68.817 6.55676 68.8675 6.65763C68.9215 6.75675 68.9313 6.86041 68.8971 6.96864C68.8628 7.07687 68.7946 7.15743 68.6926 7.21036C68.5932 7.26409 68.4892 7.27389 68.3806 7.23976C68.2721 7.20562 68.1912 7.13771 68.1382 7.03601C68.085 6.93433 68.0756 6.82938 68.1098 6.72115C68.1441 6.61293 68.2105 6.53323 68.3091 6.48207C68.4112 6.42916 68.5177 6.42017 68.6289 6.45511ZM68.3649 8.40774L67.4647 11.2525C67.3945 11.4742 67.3631 11.6272 67.3705 11.7117C67.3813 11.7944 67.412 11.8635 67.4626 11.9191C67.5158 11.9755 67.6264 12.0301 67.7945 12.083L67.7505 12.2221L66.0249 11.6796L66.0689 11.5404C66.2421 11.5949 66.3637 11.6147 66.4338 11.5999C66.5039 11.5851 66.5679 11.5443 66.626 11.4776C66.6867 11.4117 66.7516 11.2692 66.8209 11.0502L67.2527 9.68573C67.3742 9.3018 67.4413 9.04948 67.4539 8.92878C67.4618 8.84063 67.4514 8.775 67.4224 8.7319C67.3942 8.6862 67.3465 8.65279 67.2793 8.63165C67.2069 8.6089 67.1129 8.6006 66.9973 8.60674L66.987 8.45053L68.1942 8.3541L68.3649 8.40774Z" fill="#076CB3"/>
<path d="M70.1116 9.88824C70.7227 9.5832 71.2095 9.50999 71.5719 9.66859C71.758 9.75006 71.8973 9.86714 71.9901 10.0198C72.0837 10.17 72.1234 10.3689 72.1091 10.6164C72.0983 10.7887 72.0253 11.0283 71.8901 11.3351L71.251 12.786C71.1561 13.0012 71.1091 13.1548 71.1101 13.2467C71.1103 13.3205 71.1323 13.3878 71.1767 13.4485C71.2235 13.5103 71.3288 13.577 71.4926 13.6487L71.4338 13.7823L69.7472 13.0441L69.806 12.9105L69.8768 12.9415C70.0356 13.011 70.1565 13.0359 70.2392 13.016C70.3255 12.9948 70.4019 12.9426 70.4681 12.8594C70.4943 12.8267 70.5505 12.7126 70.6367 12.5171L71.2497 11.1255C71.3859 10.8163 71.4436 10.5745 71.4228 10.4001C71.4055 10.2243 71.3012 10.0946 71.1101 10.011C70.8148 9.88168 70.4499 9.91376 70.0152 10.1072L69.2256 11.8995C69.1243 12.1296 69.0753 12.2778 69.0786 12.3442C69.0817 12.4312 69.1054 12.505 69.1497 12.5657C69.1976 12.625 69.3146 12.6954 69.5008 12.7769L69.442 12.9105L67.7554 12.1723L67.8142 12.0387L67.8888 12.0713C68.0624 12.1474 68.1981 12.1551 68.2958 12.0946C68.3971 12.0327 68.5023 11.8781 68.6113 11.6307L69.1672 10.369C69.347 9.96075 69.4466 9.70779 69.466 9.61004C69.4879 9.51336 69.486 9.44026 69.4604 9.39072C69.4374 9.34226 69.3937 9.30392 69.3291 9.27567C69.2596 9.24525 69.1683 9.22741 69.0552 9.22214L69.0581 9.06412L70.2688 9.09825L70.4289 9.16832L70.1116 9.88824Z" fill="#076CB3"/>
<path d="M72.8007 13.0834C72.6654 12.8699 72.5979 12.6472 72.5982 12.4155C72.6 12.1815 72.6643 11.9622 72.7911 11.7577C72.985 11.4451 73.2694 11.2487 73.6443 11.1684C74.0215 11.0895 74.3946 11.1638 74.7635 11.3911C75.0655 11.5772 75.2816 11.812 75.4116 12.0955L76.0827 12.509C76.1818 12.5701 76.2373 12.6091 76.2491 12.6259C76.2624 12.6404 76.2683 12.6567 76.2666 12.6748C76.2676 12.704 76.2517 12.745 76.219 12.7979C76.1819 12.8576 76.1504 12.8955 76.1248 12.9113C76.1106 12.9186 76.0923 12.9199 76.0695 12.9155C76.0491 12.9124 75.9893 12.8803 75.8902 12.8193L75.4787 12.5656C75.5051 12.8107 75.4386 13.0619 75.2788 13.3193C75.0964 13.6135 74.8273 13.7955 74.4716 13.8654C74.116 13.9352 73.7479 13.8529 73.3675 13.6186C73.2107 13.5219 73.0647 13.4002 72.9295 13.2534C72.7739 13.2782 72.6569 13.3125 72.5788 13.3565C72.5042 13.3995 72.4527 13.444 72.4241 13.49C72.4 13.529 72.3949 13.5783 72.409 13.6378C72.4254 13.6988 72.484 13.7714 72.5846 13.8557C72.6434 13.9047 72.7999 14.0122 73.0538 14.1782C73.5217 14.4824 73.8196 14.6881 73.9474 14.7954C74.1432 14.9574 74.2647 15.1418 74.3117 15.3488C74.361 15.557 74.3271 15.7554 74.2103 15.9438C74.0493 16.2035 73.7758 16.3718 73.3904 16.4487C72.8226 16.5626 72.2493 16.4413 71.6705 16.0846C71.2255 15.8104 70.9117 15.4788 70.7291 15.09C70.6275 14.8685 70.6151 14.6957 70.692 14.5716C70.7263 14.5164 70.7732 14.4691 70.8328 14.4295C70.9246 14.3687 71.0788 14.3 71.2951 14.2237C71.3241 14.2129 71.5187 14.1613 71.8788 14.0687C71.803 13.9236 71.757 13.8078 71.7405 13.7214C71.7277 13.6341 71.7434 13.5549 71.7875 13.4836C71.8375 13.4032 71.9282 13.3288 72.0597 13.2606C72.1936 13.1938 72.4405 13.1347 72.8007 13.0834ZM74.6019 11.5203C74.4314 11.4152 74.2463 11.3949 74.047 11.4595C73.8476 11.524 73.6609 11.6965 73.487 11.9768C73.2617 12.34 73.1656 12.6698 73.1983 12.9664C73.2241 13.1919 73.3293 13.3615 73.5138 13.4752C73.689 13.5832 73.8737 13.6065 74.068 13.5451C74.2622 13.4838 74.4462 13.3129 74.6201 13.0325C74.8468 12.6671 74.9447 12.3319 74.9139 12.0271C74.8905 11.8029 74.7864 11.634 74.6019 11.5203ZM72.0519 14.2136C71.8708 14.2639 71.7213 14.3227 71.6032 14.3897C71.4852 14.4568 71.3997 14.5327 71.347 14.6178C71.2786 14.7281 71.2856 14.8659 71.3679 15.031C71.5102 15.3156 71.7992 15.5921 72.235 15.8607C72.65 16.1165 73.0011 16.2311 73.2883 16.2048C73.5764 16.1822 73.7718 16.0882 73.8744 15.9226C73.9485 15.8032 73.9425 15.6819 73.8562 15.5589C73.7677 15.4344 73.5488 15.2582 73.1994 15.0302C72.6891 14.6968 72.3066 14.4246 72.0519 14.2136Z" fill="#076CB3"/>
<path d="M78.6086 15.8798L77.4922 17.0307C77.2511 17.2793 77.1286 17.46 77.1247 17.5729C77.1158 17.7296 77.1864 17.8804 77.3365 18.025L77.4886 18.1715L77.3839 18.2793L75.6855 16.6426L75.7901 16.5348L75.9393 16.6784C76.1068 16.84 76.2794 16.9011 76.4571 16.8618C76.5544 16.8391 76.7125 16.715 76.9309 16.4898L79.4068 13.9373C79.6481 13.6887 79.7716 13.5089 79.7773 13.398C79.7842 13.2393 79.7126 13.0876 79.5626 12.943L79.4135 12.7993L79.5182 12.6915L80.9709 14.0917C81.3256 14.4334 81.5695 14.7398 81.7025 15.0108C81.8374 15.2799 81.8912 15.5686 81.8639 15.8767C81.8364 16.1848 81.7077 16.4573 81.4779 16.6943C81.1652 17.0168 80.8036 17.1757 80.3932 17.1712C79.9849 17.1684 79.5857 16.9793 79.196 16.6037C79.1005 16.5117 79.0038 16.4053 78.9059 16.2847C78.8081 16.164 78.709 16.029 78.6086 15.8798ZM78.7698 15.7136C78.8542 15.8326 78.9316 15.9355 79.0021 16.0222C79.0726 16.1088 79.1362 16.1795 79.1927 16.2339C79.3953 16.4292 79.6451 16.5197 79.942 16.5052C80.2428 16.4905 80.5137 16.359 80.7549 16.1102C80.9206 15.9394 81.0392 15.7472 81.1104 15.5339C81.1834 15.3186 81.1905 15.1131 81.1316 14.9173C81.0746 14.7195 80.9642 14.5417 80.8005 14.384C80.7011 14.2883 80.5555 14.1837 80.3638 14.0703L78.7698 15.7136Z" fill="#076CB3"/>
<path d="M80.4743 21.004C80.0065 20.8836 79.7245 20.7991 79.6283 20.7506C79.4849 20.6767 79.3627 20.5747 79.2612 20.4446C79.1033 20.2417 79.0423 20.0204 79.0784 19.7804C79.1162 19.5424 79.2486 19.3356 79.4755 19.1601C79.619 19.049 79.7681 18.9849 79.923 18.9678C80.1367 18.9426 80.3918 18.9881 80.6881 19.1042C80.9861 19.2225 81.4235 19.4622 81.9999 19.8234L82.1155 19.7339C82.4089 19.5069 82.5736 19.3041 82.6096 19.1258C82.6473 18.9495 82.5972 18.7727 82.4593 18.5956C82.3545 18.4612 82.235 18.3826 82.1006 18.36C81.9647 18.3353 81.8496 18.3594 81.7554 18.4323L81.574 18.5828C81.4756 18.659 81.3796 18.6922 81.2862 18.6824C81.1944 18.6748 81.117 18.6304 81.0538 18.5493C80.9922 18.4703 80.9695 18.3837 80.9851 18.2894C81.0026 18.1972 81.0595 18.1138 81.1559 18.0392C81.34 17.8967 81.5824 17.8598 81.8827 17.9283C82.1832 17.9968 82.4656 18.2007 82.7299 18.54C82.9328 18.8004 83.0551 19.0477 83.097 19.2822C83.1287 19.4594 83.0971 19.6326 83.0023 19.8018C82.9403 19.9115 82.7668 20.0764 82.482 20.2969L81.4831 21.0698C81.2026 21.2869 81.0344 21.4257 80.9785 21.4861C80.9248 21.5448 80.8963 21.5942 80.8931 21.6343C80.8917 21.6763 80.9034 21.7135 80.9284 21.7455C80.955 21.7797 80.9857 21.8037 81.0207 21.8177C81.0834 21.841 81.2289 21.867 81.4572 21.8956L81.2773 22.0348C80.7699 22.0443 80.4315 21.9403 80.2619 21.7225C80.1804 21.618 80.152 21.5066 80.1765 21.3883C80.2011 21.2702 80.3004 21.1419 80.4743 21.004ZM80.6831 20.8424L81.804 19.975C81.4244 19.7522 81.1714 19.6145 81.0447 19.5619C80.8192 19.4664 80.6268 19.4219 80.4675 19.4289C80.3081 19.4359 80.1675 19.4865 80.0454 19.581C79.8913 19.7003 79.7986 19.8457 79.7673 20.0169C79.7381 20.1865 79.77 20.3313 79.8632 20.4508C79.9895 20.6129 80.2629 20.7435 80.6831 20.8424Z" fill="#076CB3"/>
<path d="M84.6159 21.2595L83.9018 21.6958C84.5408 21.6698 84.946 21.7961 85.1175 22.0749C85.1954 22.2016 85.2206 22.3304 85.193 22.4614C85.1678 22.5909 85.1043 22.6868 85.0026 22.7489C84.9125 22.804 84.8179 22.8207 84.7186 22.7988C84.6194 22.7771 84.5442 22.7248 84.4932 22.6418C84.4435 22.5612 84.4269 22.4462 84.4431 22.2968C84.4631 22.1484 84.4582 22.05 84.4284 22.0016C84.403 21.9601 84.3522 21.9294 84.2763 21.9092C84.1176 21.8635 83.8959 21.8516 83.6106 21.8739L82.0888 22.8038C81.9132 22.9112 81.7937 23.0142 81.7306 23.1131C81.6866 23.1812 81.6671 23.266 81.6723 23.3674C81.6774 23.4688 81.724 23.591 81.8119 23.7337L81.687 23.8101L80.6902 22.1896L80.8151 22.1134C80.9142 22.2745 81.0133 22.3788 81.1124 22.426C81.1847 22.461 81.2684 22.4653 81.3635 22.4389C81.4098 22.4264 81.5256 22.3638 81.7104 22.2507L82.941 21.4987C83.3107 21.2727 83.5253 21.1305 83.5847 21.0719C83.6478 21.0144 83.6828 20.9549 83.6898 20.8938C83.6979 20.8348 83.6836 20.7753 83.6469 20.7154C83.6029 20.644 83.536 20.5741 83.446 20.5054L83.5496 20.3946L84.5267 21.1144L84.6159 21.2595Z" fill="#076CB3"/>
<path d="M86.9447 23.1715L85.8505 23.7182L86.2405 24.4936L85.9861 24.6208L85.5961 23.8454L83.4369 24.9244C83.2212 25.0322 83.091 25.135 83.0463 25.2329C83.0028 25.3332 83.0053 25.4317 83.054 25.5284C83.0939 25.6081 83.1571 25.6733 83.2433 25.7239C83.3318 25.7734 83.4348 25.7944 83.5524 25.787L83.6236 25.9284C83.3435 25.9624 83.1041 25.9325 82.9052 25.8384C82.7087 25.7433 82.569 25.6135 82.4865 25.4492C82.4305 25.3381 82.4062 25.2142 82.4133 25.0777C82.4229 24.9399 82.4719 24.8172 82.5603 24.7096C82.6511 24.6007 82.8164 24.4864 83.0563 24.3665L85.2955 23.2476L85.0312 22.7223L85.1511 22.6623C85.2713 22.7685 85.429 22.859 85.6243 22.9337C85.8231 23.0097 86.0372 23.0584 86.2663 23.0798C86.3864 23.0893 86.5936 23.0826 86.8882 23.0592L86.9447 23.1715Z" fill="#076CB3"/>
<path d="M86.1817 26.1111C86.8267 26.3362 87.2182 26.6336 87.356 27.0033C87.427 27.1932 87.4396 27.3744 87.3941 27.5471C87.3511 27.7186 87.2354 27.8854 87.0471 28.0474C86.9155 28.1596 86.6921 28.2742 86.377 28.3909L84.8868 28.9432C84.6658 29.0251 84.5225 29.0984 84.457 29.163C84.4038 29.2145 84.3708 29.2771 84.3579 29.351C84.3459 29.4275 84.3712 29.5494 84.4335 29.7165L84.2962 29.7674L83.6543 28.0465L83.7916 27.9957L83.8185 28.0678C83.879 28.2299 83.9451 28.3337 84.017 28.379C84.0924 28.4261 84.1831 28.4443 84.2892 28.434C84.3309 28.4299 84.4522 28.3908 84.6531 28.3164L86.0822 27.7867C86.3999 27.6689 86.6142 27.5419 86.7254 27.4057C86.8399 27.2709 86.8608 27.1062 86.7881 26.9111C86.6757 26.6097 86.3987 26.3708 85.9569 26.1944L84.1159 26.8765C83.8797 26.9641 83.7389 27.0322 83.6933 27.0809C83.6328 27.1435 83.5962 27.2119 83.5833 27.2859C83.5738 27.3614 83.6045 27.4942 83.6754 27.6842L83.5382 27.7349L82.8962 26.0141L83.0335 25.9632L83.0618 26.0392C83.1279 26.2165 83.2169 26.319 83.3284 26.3468C83.4435 26.3763 83.6281 26.3439 83.8822 26.2497L85.178 25.7695C85.5973 25.6142 85.8488 25.5095 85.9327 25.4552C86.0175 25.4036 86.069 25.3515 86.0869 25.2986C86.1058 25.2484 86.1029 25.1904 86.0783 25.1246C86.052 25.0536 86.0012 24.9759 85.9262 24.8912L86.0422 24.7834L86.8601 25.6737L86.9211 25.837L86.1817 26.1111Z" fill="#076CB3"/>
<path d="M86.6051 29.6852C86.0652 29.8045 85.6718 30.0304 85.4252 30.3633C85.1784 30.6961 85.0954 31.0403 85.1763 31.3961C85.2303 31.6332 85.3418 31.8241 85.511 31.9688C85.6832 32.1155 85.9415 32.2123 86.2857 32.2592L86.2343 32.3996C85.8595 32.426 85.4925 32.34 85.1333 32.1413C84.7766 31.9421 84.5527 31.6422 84.4617 31.2417C84.3627 30.8069 84.4471 30.3958 84.7148 30.0084C84.9858 29.6231 85.4081 29.3655 85.9817 29.2359C86.603 29.0956 87.1228 29.1443 87.5411 29.3823C87.9626 29.6223 88.2278 29.9821 88.3369 30.4618C88.4292 30.8675 88.3701 31.2313 88.1598 31.5531C87.9522 31.8743 87.6235 32.0857 87.1741 32.1873L86.6051 29.6852ZM86.8352 29.6332L87.2163 31.3092C87.4459 31.2434 87.6035 31.1788 87.6892 31.1151C87.8221 31.0158 87.9161 30.8906 87.9706 30.7398C88.0259 30.5915 88.0374 30.4463 88.0049 30.304C87.9552 30.0853 87.8246 29.9084 87.6132 29.7732C87.405 29.6403 87.1458 29.5935 86.8352 29.6332Z" fill="#076CB3"/>
<path d="M88.8426 33.549L88.0103 33.6419C88.5999 33.8887 88.913 34.1747 88.9495 34.4995C88.966 34.6472 88.934 34.7745 88.8532 34.8815C88.7752 34.988 88.6769 35.0479 88.5584 35.0612C88.4533 35.0729 88.3605 35.0479 88.28 34.9862C88.1993 34.9245 88.1537 34.8453 88.1427 34.7486C88.1322 34.6546 88.166 34.5435 88.2444 34.4151C88.3258 34.2891 88.3632 34.1979 88.3569 34.1415C88.3515 34.0932 88.3186 34.0438 88.2585 33.9935C88.1344 33.885 87.9385 33.7804 87.6708 33.6798L85.8968 33.8778C85.6921 33.9006 85.5401 33.9434 85.4407 34.0062C85.3719 34.0492 85.3183 34.1177 85.2797 34.2118C85.2411 34.3057 85.2313 34.436 85.25 34.6024L85.1044 34.6187L84.8923 32.7297L85.0378 32.7134C85.0589 32.9014 85.1041 33.0378 85.1737 33.1225C85.2243 33.1847 85.2983 33.224 85.3956 33.2403C85.4429 33.2488 85.5744 33.2409 85.7899 33.2168L87.2243 33.0568C87.6554 33.0086 87.9102 32.9706 87.9889 32.9428C88.0707 32.9174 88.1277 32.8784 88.1599 32.8259C88.1925 32.7759 88.2049 32.7162 88.1971 32.6463C88.1877 32.5632 88.157 32.4714 88.1048 32.3711L88.2457 32.3147L88.8236 33.3798L88.8426 33.549Z" fill="#076CB3"/>
<path d="M89.0392 37.7595L87.7706 37.7687L87.7697 37.635C88.1673 37.5294 88.4374 37.3951 88.5799 37.232C88.7225 37.0715 88.7927 36.8669 88.7909 36.6183C88.7895 36.4292 88.7383 36.2769 88.6371 36.1615C88.5359 36.046 88.4243 35.9887 88.3023 35.9897C88.1506 35.9908 88.0209 36.0349 87.913 36.1222C87.8026 36.2067 87.6858 36.3779 87.563 36.6355L87.2786 37.2292C87.0143 37.7797 86.6627 38.0565 86.2235 38.0597C85.8846 38.0622 85.6099 37.9359 85.3994 37.6808C85.1915 37.4283 85.0864 37.144 85.084 36.8279C85.0824 36.6009 85.1211 36.3412 85.2002 36.0488C85.2267 35.9594 85.2398 35.8864 85.2393 35.8296C85.2389 35.7675 85.2033 35.7191 85.1325 35.6845L85.1315 35.5507L86.4611 35.5411L86.4621 35.6748C86.0832 35.7533 85.7983 35.8999 85.6074 36.1148C85.4164 36.3296 85.3221 36.5693 85.324 36.8341C85.3254 37.0206 85.3806 37.1715 85.49 37.2869C85.602 37.405 85.7352 37.4634 85.8897 37.4623C86.0768 37.4609 86.2335 37.3936 86.3599 37.2603C86.4864 37.1296 86.6457 36.8677 86.8381 36.4746C87.0303 36.0814 87.2046 35.8234 87.3609 35.7007C87.5146 35.578 87.7093 35.5157 87.9451 35.5141C88.2514 35.5117 88.5084 35.614 88.7159 35.8205C88.9234 36.0297 89.0285 36.3005 89.0309 36.6328C89.032 36.7788 89.0021 36.956 88.9413 37.1645C88.9016 37.3025 88.8821 37.3945 88.8824 37.4405C88.8826 37.4838 88.8923 37.5174 88.9115 37.5416C88.9307 37.5658 88.973 37.5939 89.0382 37.6258L89.0392 37.7595Z" fill="#076CB3"/>
</g>
<defs>
<clipPath id="clip0_2225_2941">
<rect width="116.308" height="70" fill="white"/>
</clipPath>
</defs>
</svg>
