<svg width="23" height="23" viewBox="0 0 23 23" fill="none" xmlns="http://www.w3.org/2000/svg">
<g id="Frame" clip-path="url(#clip0_55_191)">
<g id="Group">
<path id="Vector" d="M11.5 0C9.21344 0.00304266 7.02141 0.912723 5.40456 2.52956C3.78772 4.14641 2.87804 6.33844 2.875 8.625C2.875 14.817 10.9106 22.5723 11.252 22.8994C11.3184 22.9639 11.4074 23 11.5 23C11.5926 23 11.6816 22.9639 11.748 22.8994C12.0894 22.5723 20.125 14.817 20.125 8.625C20.122 6.33844 19.2123 4.14641 17.5954 2.52956C15.9786 0.912723 13.7866 0.00304266 11.5 0ZM11.5 12.5781C10.7181 12.5781 9.95385 12.3463 9.30376 11.9119C8.65367 11.4775 8.14699 10.8601 7.84779 10.1378C7.54859 9.41546 7.4703 8.62061 7.62283 7.85378C7.77537 7.08695 8.15186 6.38257 8.70472 5.82972C9.25757 5.27686 9.96195 4.90037 10.7288 4.74783C11.4956 4.5953 12.2905 4.67359 13.0128 4.97279C13.7351 5.27199 14.3525 5.77867 14.7869 6.42876C15.2213 7.07885 15.4531 7.84315 15.4531 8.625C15.4525 9.67323 15.0358 10.6783 14.2945 11.4195C13.5533 12.1608 12.5482 12.5775 11.5 12.5781Z" fill="white"/>
</g>
</g>
<defs>
<clipPath id="clip0_55_191">
<rect width="23" height="23" fill="white"/>
</clipPath>
</defs>
</svg>
