<svg width="40" height="40" viewBox="0 0 40 40" fill="none" xmlns="http://www.w3.org/2000/svg">
<g id="Frame" clip-path="url(#clip0_2210_3061)">
<g id="Group">
<g id="Group_2">
<path id="Vector" fill-rule="evenodd" clip-rule="evenodd" d="M20 40C31.0456 40 40 31.0456 40 20C40 8.95437 31.0456 0 20 0C8.95437 0 0 8.95437 0 20C0 31.0456 8.95437 40 20 40Z" fill="white"/>
<path id="Vector_2" fill-rule="evenodd" clip-rule="evenodd" d="M19.9956 28.0378C21.1168 27.0253 22.0126 25.7883 22.6248 24.4072C23.237 23.0261 23.552 21.5317 23.5494 20.0209C23.5494 16.8428 22.1825 13.9853 19.9956 12.0062C18.0112 10.2029 15.4252 9.20511 12.7438 9.20812C6.76219 9.20812 1.92188 14.0487 1.92188 20.0209C1.92188 25.9953 6.76219 30.8362 12.7438 30.8362C15.525 30.8362 18.0819 29.7756 19.9956 28.0378Z" fill="#4186CD"/>
<path id="Vector_3" fill-rule="evenodd" clip-rule="evenodd" d="M19.9941 28.0378C21.1153 27.0253 22.0111 25.7883 22.6233 24.4072C23.2356 23.0261 23.5506 21.5317 23.5479 20.0209C23.5479 16.8428 22.181 13.9853 19.9941 12.0063V28.0378Z" fill="#4487CA"/>
<path id="Vector_4" fill-rule="evenodd" clip-rule="evenodd" d="M27.2639 9.20844C24.4661 9.20844 21.9092 10.2672 19.9958 12.0066C19.6059 12.3637 19.2406 12.7467 18.9023 13.1531H21.0892C21.3924 13.5124 21.6667 13.895 21.9095 14.2975H18.0823C17.8551 14.6687 17.6457 15.0506 17.4552 15.4419H22.5364C22.7108 15.8139 22.8611 16.1968 22.9864 16.5881H17.0052C16.8731 16.9622 16.7657 17.3444 16.6836 17.7325H23.3086C23.4695 18.4706 23.5498 19.2369 23.5498 20.0212C23.5498 21.2225 23.3567 22.3778 22.987 23.4562H17.0052C17.1339 23.8494 17.2786 24.2312 17.4552 24.6025H22.5364C22.3433 24.9981 22.1505 25.3803 21.9092 25.7472H18.082C18.3233 26.1472 18.613 26.5291 18.9023 26.8919H21.0892C20.7509 27.298 20.3856 27.6808 19.9958 28.0378C21.9854 29.8433 24.5772 30.8412 27.2639 30.8362C33.2295 30.8362 38.0695 25.9956 38.0695 20.0212C38.0695 14.0494 33.2292 9.20875 27.2639 9.20875" fill="#CA4638"/>
<g id="Group_3">
<path id="Vector_5" fill-rule="evenodd" clip-rule="evenodd" d="M36.9261 26.0281H36.9745C36.9908 26.0281 37.0064 26.0306 37.0064 26.0238C37.023 26.015 37.0386 26.0019 37.0386 25.9891C37.0386 25.9753 37.0227 25.9625 37.0064 25.9559C37.0064 25.9491 36.9745 25.9513 36.9745 25.9513H36.9261V26.0281ZM36.9261 26.2041H36.862V25.8966H36.9905C37.0227 25.8966 37.0386 25.8966 37.0708 25.9122C37.0904 25.9331 37.1019 25.9604 37.103 25.9891C37.103 26.0241 37.0867 26.055 37.0545 26.0678L37.103 26.2041H37.0227L36.9905 26.0813H36.9258L36.9261 26.2041ZM36.9745 26.3163C37.1192 26.3163 37.248 26.1975 37.248 26.0503C37.248 25.9028 37.1192 25.7844 36.9745 25.7844C36.8302 25.7844 36.7173 25.9031 36.7173 26.05C36.7173 26.1975 36.8298 26.3163 36.9745 26.3163ZM36.6208 26.0503C36.6208 25.8566 36.7817 25.7013 36.9745 25.7013C37.1677 25.7013 37.3283 25.8569 37.3283 26.0503C37.3283 26.2438 37.1673 26.3994 36.9745 26.3994C36.7817 26.3994 36.6208 26.2438 36.6208 26.0503ZM11.0539 23.0303H9.68672L10.4905 18.8153L8.64109 23.0303H7.51547L7.29047 18.8397L6.39047 23.0303H5.15234L6.19734 17.5484H8.33609L8.36797 20.9419L9.84766 17.5481H12.1145L11.0539 23.0303ZM26.0883 22.975C25.7186 23.0766 25.4289 23.1203 25.1236 23.1203C24.432 23.1203 24.062 22.7753 24.062 22.1406C24.062 22.0156 24.062 21.8819 24.0939 21.7406L24.1742 21.3038L24.2389 20.9525L24.8658 17.5478H26.2005L26.0077 18.5713H26.6989L26.5061 19.6541H25.8148L25.4611 21.5144C25.4452 21.5978 25.4452 21.6572 25.4452 21.6988C25.4452 21.9294 25.5736 22.0306 25.8952 22.0306C26.0561 22.0306 26.1683 22.0175 26.2652 21.9888L26.0883 22.975ZM20.7502 19.9797C20.7502 20.5441 21.0558 20.9309 21.7792 21.2225C22.3261 21.4469 22.422 21.5128 22.422 21.7147C22.422 21.9941 22.1808 22.1188 21.6345 22.1188C21.2323 22.1188 20.8464 22.0641 20.4127 21.9409L20.2355 22.9709L20.2839 22.9797L20.5411 23.0259C20.6214 23.0391 20.7342 23.0522 20.8948 23.0653C21.2164 23.0894 21.4736 23.1028 21.6505 23.1028C23.0817 23.1028 23.7411 22.6309 23.7411 21.6138C23.7411 21.0031 23.4677 20.6428 22.7923 20.3725C22.2133 20.1463 22.1492 20.0978 22.1492 19.8894C22.1492 19.6478 22.3742 19.5247 22.8086 19.5247C23.0817 19.5247 23.4517 19.5513 23.7892 19.5931L23.9823 18.5606C23.6286 18.5122 23.098 18.4728 22.7923 18.4728C21.2648 18.4728 20.7339 19.1581 20.7502 19.9797ZM14.4948 21.0447C14.3935 21.0319 14.2914 21.0255 14.1892 21.0253C13.4336 21.0253 13.0477 21.2534 13.0477 21.7034C13.0477 21.9803 13.2405 22.1584 13.5302 22.1584C14.0767 22.1584 14.4789 21.7038 14.4948 21.0447ZM15.4114 23.0303H14.2858L14.318 22.5672C13.9642 22.9338 13.5139 23.1072 12.9027 23.1072C12.163 23.1072 11.6645 22.6109 11.6645 21.8903C11.6645 20.8031 12.533 20.1706 14.028 20.1706C14.1889 20.1706 14.3817 20.1813 14.5748 20.2056C14.623 20.0584 14.6392 19.9947 14.6392 19.9156C14.6392 19.6191 14.398 19.5094 13.7708 19.5094C13.3848 19.5094 12.9508 19.5575 12.6452 19.6344L12.468 19.6806L12.3395 19.7088L12.5323 18.7078C13.2073 18.5359 13.6417 18.4703 14.1402 18.4703C15.2977 18.4703 15.9089 18.9228 15.9089 19.7797C15.9089 19.9991 15.893 20.1659 15.7964 20.6625L15.523 22.2438L15.4748 22.5272L15.4427 22.7531L15.4105 22.9094V23.0303H15.4114ZM19.1742 20.2803C19.1742 20.1881 19.1905 20.1116 19.1905 20.0541C19.1905 19.6916 18.9492 19.4784 18.547 19.4784C18.113 19.4784 17.8073 19.7641 17.6948 20.2778L19.1742 20.2803ZM19.8336 22.9334C19.3827 23.055 18.9175 23.1156 18.4505 23.1138C16.9392 23.1138 16.167 22.4284 16.167 21.1172C16.167 19.5863 17.1639 18.4597 18.5148 18.4597C19.6242 18.4597 20.332 19.09 20.332 20.0803C20.332 20.41 20.2836 20.7281 20.1548 21.1806H17.4858C17.4695 21.2484 17.4695 21.2797 17.4695 21.3213C17.4695 21.8369 17.8717 22.1006 18.6595 22.1006C19.1417 22.1006 19.5761 22.0153 20.0586 21.8194L19.8336 22.9334ZM32.8258 20.4759C32.8258 20.0103 32.633 19.5688 32.0864 19.5688C31.3952 19.5688 30.977 20.3816 30.977 21.0975C30.977 21.7016 31.2664 22.1078 31.7489 22.0988C32.0383 22.0988 32.6655 21.7013 32.778 21.0072C32.8098 20.8469 32.8258 20.6697 32.8258 20.4759ZM34.1927 21.0094C33.9995 22.4919 32.9545 23.1491 31.5717 23.1491C30.0602 23.1491 29.4492 22.2266 29.4492 21.0953C29.4492 19.5141 30.4783 18.4444 32.0867 18.4444C33.4852 18.4444 34.2252 19.325 34.2252 20.4566C34.2252 20.7306 34.2252 20.7503 34.1927 21.0094Z" fill="#231F20"/>
</g>
<path id="Vector_6" fill-rule="evenodd" clip-rule="evenodd" d="M34.6441 22.345H34.6922C34.6922 22.345 34.7084 22.345 34.7244 22.3387C34.74 22.3319 34.7403 22.3169 34.7403 22.3034C34.7403 22.2925 34.7403 22.2794 34.7244 22.2728C34.7244 22.2666 34.6922 22.2666 34.6763 22.2666H34.6441V22.345ZM34.6441 22.5187H34.5794V22.2112H34.7081C34.7244 22.2112 34.7566 22.2137 34.7884 22.2291C34.8084 22.2498 34.8197 22.2772 34.8203 22.3059C34.8203 22.3387 34.8044 22.3719 34.7722 22.385L34.8203 22.5191H34.74L34.6919 22.3981H34.6441V22.5187ZM34.6922 22.6306C34.8372 22.6306 34.9497 22.5119 34.9497 22.3647C34.9503 22.3304 34.944 22.2964 34.9314 22.2645C34.9187 22.2327 34.8999 22.2036 34.8759 22.1791C34.852 22.1546 34.8234 22.135 34.7919 22.1216C34.7603 22.1082 34.7265 22.1012 34.6922 22.1009C34.5475 22.1009 34.4187 22.2197 34.4187 22.3647C34.4187 22.5122 34.5475 22.6306 34.6922 22.6306ZM34.3384 22.3647C34.3384 22.1734 34.4994 22.0178 34.6922 22.0178C34.8853 22.0178 35.0459 22.1734 35.0459 22.3647C35.0459 22.5581 34.8853 22.7137 34.6922 22.7137C34.5991 22.7141 34.5096 22.6776 34.4433 22.6122C34.3771 22.5468 34.3393 22.4578 34.3384 22.3647ZM11.3925 22.7137H10.0419L10.8456 18.4991L8.99625 22.7137H7.77438L7.54938 18.5256L6.74531 22.7137H5.52344L6.56844 17.2319H8.67469L8.77094 20.6275L10.2666 17.2319H12.4534L11.3925 22.7137ZM26.4272 22.6616C26.0575 22.7625 25.7678 22.8062 25.4622 22.8062C24.7709 22.8062 24.4006 22.4594 24.4006 21.8272C24.4006 21.7016 24.4169 21.5678 24.4331 21.4272L24.5134 20.9897L24.5775 20.6359L25.205 17.2319H26.5394L26.3466 18.2553H27.0381L26.845 19.3403H26.1534L25.8 21.2006C25.7837 21.2819 25.7838 21.3431 25.7838 21.385C25.7838 21.6162 25.9284 21.7147 26.25 21.7147C26.3947 21.7147 26.5075 21.7016 26.6038 21.6728L26.4272 22.6616Z" fill="white"/>
<path id="Vector_7" fill-rule="evenodd" clip-rule="evenodd" d="M29.8841 19.5356L29.8522 19.395L30.1253 18.6969C30.0606 18.69 30.0288 18.6881 30.0288 18.6837C29.9484 18.6681 29.9162 18.6597 29.9 18.6597C29.8579 18.6509 29.8149 18.6472 29.7719 18.6487C29.3219 18.6487 29.0156 18.8441 28.5978 19.3712L28.7428 18.5784H27.3438L26.5234 23.0303H27.8584C28.035 22.0091 28.1156 21.4272 28.2281 20.9437C28.405 20.1422 29 19.7775 29.4344 19.8587C29.4822 19.8675 29.5144 19.8675 29.5788 19.8919L29.6591 19.9222L29.8841 19.5356Z" fill="#231F20"/>
<path id="Vector_8" fill-rule="evenodd" clip-rule="evenodd" d="M30.3498 18.2925C30.2373 18.2488 30.2217 18.2488 30.2055 18.2444C30.1408 18.2288 30.093 18.22 30.093 18.2178C30.0449 18.2109 29.9965 18.2072 29.948 18.2069C29.5139 18.2069 29.1923 18.4047 28.7742 18.9319L28.903 18.2553H27.6811L26.8605 22.7138H28.2114C28.6936 19.9881 28.9027 19.5094 29.5458 19.5094C29.5942 19.5094 29.6423 19.5138 29.7067 19.5203L29.8677 19.5531L30.3498 18.2925ZM21.088 19.6656C21.088 20.2275 21.4098 20.6166 22.1333 20.9088C22.6802 21.1306 22.7605 21.1963 22.7605 21.4009C22.7605 21.6775 22.5195 21.8025 21.9886 21.8025C21.5705 21.8025 21.2005 21.7475 20.7667 21.6269L20.5736 22.655L20.638 22.6656L20.8792 22.7094C20.9595 22.725 21.0886 22.7381 21.2489 22.7494C21.5705 22.7734 21.8114 22.7863 21.9886 22.7863C23.4355 22.7863 24.0948 22.3163 24.0948 21.2994C24.0948 20.6869 23.8217 20.3288 23.1302 20.0584C22.5677 19.8322 22.5027 19.7819 22.5027 19.5728C22.5027 19.3334 22.728 19.2103 23.162 19.2103C23.4352 19.2103 23.7892 19.2347 24.143 19.2763L24.3358 18.2444C23.982 18.1959 23.4514 18.1563 23.1302 18.1563C21.6189 18.1563 21.088 18.8419 21.088 19.6656ZM14.7852 20.7284C14.6837 20.7163 14.5817 20.7105 14.4795 20.7109C13.7236 20.7109 13.3377 20.9391 13.3377 21.3891C13.3377 21.6663 13.5145 21.8441 13.8202 21.8441C14.367 21.8441 14.753 21.3872 14.7852 20.7284ZM15.7658 22.7138H14.6402L14.6723 22.2528C14.3348 22.6191 13.8683 22.7906 13.257 22.7906C12.5336 22.7906 12.0352 22.2941 12.0352 21.5738C12.0352 20.4884 12.9033 19.8541 14.3986 19.8541C14.5433 19.8541 14.7361 19.8669 14.9452 19.8891C14.9773 19.7419 14.9933 19.6806 14.9933 19.5994C14.9933 19.305 14.752 19.1953 14.1248 19.1953C13.7389 19.1953 13.3045 19.2413 13.0155 19.3181L12.8223 19.3666L12.7098 19.3953L12.887 18.3913C13.562 18.22 13.9964 18.1566 14.4948 18.1566C15.6523 18.1566 16.2636 18.6091 16.2636 19.4634C16.2636 19.6831 16.2477 19.85 16.1673 20.3463L15.8777 21.93L15.8295 22.2134L15.7973 22.4397L15.7811 22.5928L15.7658 22.7138ZM19.4642 19.9663V19.7378C19.4642 19.3753 19.2392 19.1644 18.837 19.1644C18.403 19.1644 18.0973 19.4475 17.9686 19.9641L19.4642 19.9663ZM20.172 22.6194C19.7263 22.7397 19.2665 22.8003 18.8048 22.7997C17.2936 22.7997 16.5055 22.1144 16.5055 20.8009C16.5055 19.2725 17.5023 18.1456 18.853 18.1456C19.9623 18.1456 20.6698 18.7759 20.6698 19.7644C20.6698 20.0938 20.6214 20.4144 20.5086 20.8666H17.8398C17.8236 20.9347 17.8236 20.9656 17.8236 21.0072C17.8236 21.5234 18.2255 21.7872 18.9973 21.7872C19.4798 21.7872 19.9139 21.6991 20.3961 21.5034L20.172 22.6194ZM33.148 20.1222C33.148 19.6566 32.9552 19.2153 32.4086 19.2153C31.7173 19.2153 31.2992 20.0278 31.2992 20.7441C31.2992 21.3503 31.5889 21.7566 32.0711 21.7475C32.3608 21.7475 32.9877 21.35 33.1002 20.6559C33.132 20.4934 33.148 20.3156 33.148 20.1222ZM34.547 20.6938C34.3377 22.1759 33.3086 22.8347 31.9261 22.8347C30.3986 22.8347 29.7873 21.9097 29.7873 20.7788C29.7873 19.1997 30.8323 18.1281 32.4408 18.1281C33.8392 18.1281 34.5792 19.0088 34.5792 20.14C34.5792 20.4166 34.5792 20.4344 34.547 20.6938Z" fill="white"/>
</g>
</g>
</g>
<defs>
<clipPath id="clip0_2210_3061">
<rect width="40" height="40" fill="white"/>
</clipPath>
</defs>
</svg>
