<svg width="60" height="36" viewBox="0 0 60 36" fill="none" xmlns="http://www.w3.org/2000/svg">
<g clip-path="url(#clip0_2225_3607)">
<path fill-rule="evenodd" clip-rule="evenodd" d="M27.3952 0.0560437C13.7994 0.697929 2.54754 6.95038 0.377919 15.073C-0.176363 17.1651 -0.120934 19.4553 0.544205 21.5077C0.82926 22.3874 1.51816 23.7979 2.10411 24.6855C5.21601 29.4402 11.7328 33.236 19.7382 34.9556C26.6747 36.4533 34.4425 36.3345 41.2127 34.6387C50.4375 32.3247 57.0889 27.4353 59.0447 21.5315C60.0582 18.4568 59.7019 15.0968 58.0391 12.1885C56.6454 9.7636 54.1829 7.307 51.3561 5.55566C45.0135 1.60132 36.4221 -0.363956 27.3952 0.0560437ZM39.9932 1.96585C45.6311 3.20208 50.5801 5.55566 54.0562 8.65415C54.4759 9.0266 54.8163 9.35153 54.8163 9.36732C54.8163 9.39115 53.1535 9.40695 51.1185 9.40695H47.4127L47.2385 9.09789C46.8505 8.42435 45.7895 7.09302 44.9264 6.20547C43.2715 4.50962 41.6719 3.35265 39.5023 2.26698C38.8055 1.92623 38.2275 1.6251 38.2116 1.60925C38.1721 1.56963 38.5838 1.6568 39.9932 1.96585ZM20.3321 2.14019C19.0018 2.79 18.012 3.39227 16.9114 4.23226C15.2485 5.48434 13.5777 7.2436 12.5721 8.7968L12.1762 9.40695L8.45457 9.39905H4.73299L5.20809 8.96321C7.93202 6.45113 11.4714 4.45415 15.6999 3.03566C17.2994 2.50472 20.6172 1.6568 21.1635 1.64887C21.2823 1.64095 20.9338 1.84698 20.3321 2.14019ZM11.2498 11.1663C10.4658 12.9255 10.0066 14.6134 9.83237 16.4361L9.73734 17.4108H5.31103H0.892612V17.0858C0.892612 16.6025 1.17767 15.2949 1.45481 14.5024C1.89824 13.2583 2.46835 12.2281 3.41063 10.9681L3.93324 10.2787H7.78947H11.6457L11.2498 11.1663ZM56.2654 11.0553C57.3264 12.4896 58.0391 13.924 58.4113 15.39C58.6171 16.1824 58.7834 17.2998 58.7121 17.3711C58.6884 17.3949 56.7009 17.4108 54.2858 17.4108C50.8492 17.4108 49.8991 17.387 49.8753 17.3077C49.8595 17.2601 49.8041 16.8085 49.7565 16.3172C49.5586 14.3915 48.9884 12.3787 48.165 10.7462L47.9274 10.2787H51.8074H55.6873L56.2654 11.0553ZM9.76109 18.6153C9.76109 20.3745 10.355 22.839 11.2498 24.836L11.6457 25.7315H7.79737H3.94116L3.569 25.256C2.30207 23.6711 1.41522 21.8247 1.0589 20.0417C0.932198 19.4077 0.845102 18.5122 0.884695 18.2587C0.884695 18.2269 2.88802 18.2032 5.32686 18.2032H9.76109V18.6153ZM47.012 25.6064C48.2917 23.3047 49.0114 20.71 49.0114 17.9647C49.0114 8.4755 40.4125 0.782914 29.8052 0.782914C19.1979 0.782914 10.599 8.4755 10.599 17.9647C10.599 27.454 19.1979 35.1465 29.8052 35.1465C37.2881 35.1465 43.7716 31.3182 46.9418 25.7315H46.9534L47.012 25.6064ZM58.7755 18.3379C58.7755 18.7579 58.5775 20.002 58.4113 20.6519C58.0232 22.1258 57.3106 23.5601 56.2575 24.9549L55.6794 25.7315H51.7994H47.9274L48.165 25.264C49.0597 23.473 49.7011 21.0798 49.8041 19.1304L49.8516 18.2032H54.3174C58.5142 18.2032 58.7755 18.2111 58.7755 18.3379ZM12.588 27.2292C14.3855 29.9632 17.0618 32.2613 20.3321 33.8779C21.5277 34.4643 21.4644 34.4722 19.4215 34.0047C13.554 32.6496 8.68427 30.2722 5.20809 27.0469L4.73299 26.6111H8.45457L12.1762 26.6032L12.588 27.2292ZM54.8163 26.6428C54.8163 26.6586 54.4759 26.9836 54.0562 27.356C50.5879 30.4466 45.6786 32.7843 40.0091 34.0443C38.0849 34.4722 38.0691 34.4643 39.4944 33.7511C41.7036 32.6417 43.2952 31.4847 44.9343 29.7889C45.8132 28.8775 46.8584 27.5779 47.2385 26.9123L47.4127 26.6032H51.1185C53.1535 26.6032 54.8163 26.619 54.8163 26.6428Z" fill="#076CB3"/>
<path d="M26.0416 31.5181H24.5862V31.2989L25.0126 31.0446L24.774 30.4616H23.565L23.3499 30.9859L23.9485 31.2637L23.8233 31.5181H22.5596V31.2989L22.9821 30.982L23.9837 28.5676L24.6605 28.3681L25.7716 31.0642L26.1707 31.2637L26.0416 31.5181ZM24.1754 28.9863L23.6902 30.1603H24.6527L24.1754 28.9863ZM31.8605 28.9589L30.988 31.3889L30.3151 31.5885L29.7596 30.0155L29.3214 31.3889L28.6445 31.5885L27.6077 28.8846L27.2204 28.6929L27.3456 28.4385H28.6132V28.6576L28.3394 28.8611L29.1179 30.9311L29.5757 29.5029L29.3566 28.8846L29.0006 28.6968L29.1257 28.4424H30.4951V28.6616L30.1038 28.9042L30.7963 30.935L31.481 28.9863L30.8628 28.6968L30.992 28.4424H32.2517L32.2556 28.6576L31.8605 28.9589ZM35.3525 28.3642C35.5038 28.3642 35.6798 28.3837 35.8806 28.4229C36.0841 28.462 36.2328 28.5038 36.3267 28.5481V29.3816H35.955C35.7542 29.0033 35.4777 28.8142 35.1256 28.8142C34.9821 28.8142 34.8504 28.8598 34.7304 28.9511C34.6104 29.0425 34.5152 29.1677 34.4448 29.3268C34.377 29.4859 34.3431 29.6646 34.3431 29.8629C34.3431 30.0873 34.377 30.2933 34.4448 30.4811C34.5152 30.6664 34.6209 30.8151 34.7617 30.9272C34.9025 31.0368 35.0773 31.0916 35.286 31.0916C35.5233 31.0916 35.8611 30.9611 36.2993 30.7003L36.4558 30.9507L35.7359 31.5103C35.6211 31.5442 35.5102 31.5664 35.4033 31.5768C35.299 31.5899 35.1869 31.5963 35.0669 31.5963C34.7747 31.5963 34.5152 31.5298 34.2883 31.3968C34.0614 31.2637 33.8853 31.0812 33.7601 30.8489C33.6349 30.6142 33.5723 30.3481 33.5723 30.0507C33.5723 29.7455 33.6662 29.4637 33.854 29.2055C34.0418 28.9446 34.2753 28.7398 34.5543 28.5911C34.8334 28.4399 35.0994 28.3642 35.3525 28.3642Z" fill="#076CB3"/>
<mask id="mask0_2225_3607" style="mask-type:luminance" maskUnits="userSpaceOnUse" x="21" y="7" width="17" height="20">
<path d="M37.3455 7.2572H21.7671V26.3955H37.3455V7.2572Z" fill="white"/>
</mask>
<g mask="url(#mask0_2225_3607)">
<path d="M36.401 14.431V13.929H35.485V13.3553H29.9821V12.7099H34.4251V13.0684H34.6663V12.2078H29.9821C29.9821 12.2078 29.8053 11.8735 29.9821 11.8735H32.4491V11.0363H30.569L29.9035 9.29092H29.7252V7.73587L29.5562 7.2572L29.3874 7.73587V9.28942H29.209L28.5435 11.0347H26.6634V11.8719H29.1304C29.3072 11.8719 29.1304 12.2063 29.1304 12.2063H24.447V13.0669H24.6882V12.7083H29.1312V13.3537H23.6276V13.9274H22.7114V14.4295H29.1312V15.0515H24.1335V16.821H24.1697C25.9885 15.9448 28.1342 15.4818 28.1342 15.4818V15.3383L29.1304 15.4342L29.5562 15.6135L29.9821 15.3983L30.9783 15.3383V15.4818C30.9783 15.4818 33.124 15.9448 34.9429 16.821H34.979V15.0515H29.9813V14.4295H36.401V14.431Z" fill="#076CB3"/>
<path d="M30.5531 16.2488V15.8419H28.5599V16.2488C28.5599 16.2488 25.2341 16.966 23.354 18.3051C23.354 18.3051 25.7401 21.1986 25.7401 25.694H33.3729C33.3729 21.1986 35.759 18.3051 35.759 18.3051C33.8789 16.966 30.5531 16.2488 30.5531 16.2488ZM30.3944 17.8047C29.8853 17.7119 29.5561 17.6838 29.5561 17.6838C29.5561 17.6838 29.2269 17.7119 28.7178 17.8047C27.7467 17.9816 26.1211 18.3917 24.8719 19.2858C24.8719 19.2858 26.3796 17.9364 28.6824 17.457C28.9621 17.3985 29.2536 17.3533 29.5561 17.3252C29.8578 17.3541 30.1501 17.3993 30.4298 17.457C32.7326 17.9356 34.2403 19.2858 34.2403 19.2858C32.991 18.3917 31.3655 17.9809 30.3944 17.8047Z" fill="#076CB3"/>
<path d="M37.3455 25.694H29.5563H21.7671L26.9745 26.0448L23.3542 26.3955H29.5563H35.7592L32.138 26.0448L37.3455 25.694Z" fill="#076CB3"/>
</g>
<path d="M13.912 17.0547L14.8747 17.035L14.8716 17.0995C14.5803 17.1722 14.3679 17.2853 14.2341 17.4391C14.1003 17.5928 14.0283 17.7814 14.0179 18.0049C14.0091 18.1923 14.0491 18.3639 14.1378 18.5196C14.2251 18.6754 14.3708 18.8018 14.5749 18.8989C14.7791 18.9948 15.0359 19.0498 15.3454 19.0643C15.6008 19.0762 15.824 19.0456 16.0152 18.9724C16.2063 18.8993 16.3557 18.7832 16.4633 18.624C16.5709 18.4635 16.6296 18.2777 16.6395 18.0667C16.6481 17.8835 16.6168 17.72 16.5456 17.5762C16.473 17.4323 16.3241 17.271 16.0987 17.0921L16.1434 17.0295C16.388 17.1828 16.5641 17.3565 16.6719 17.5508C16.7797 17.745 16.8275 17.9719 16.8154 18.2315C16.7936 18.6992 16.6032 19.0534 16.2442 19.294C15.9772 19.4736 15.6688 19.5551 15.3191 19.5388C15.0373 19.5256 14.7814 19.4504 14.5514 19.3131C14.3213 19.1757 14.147 18.9938 14.0282 18.767C13.9081 18.5388 13.8542 18.2935 13.8664 18.0312C13.8759 17.8272 13.9353 17.6282 14.0445 17.4344C14.0777 17.3775 14.0949 17.3366 14.0961 17.3116C14.0978 17.2742 14.0862 17.2409 14.0611 17.2119C14.0254 17.174 13.9745 17.1459 13.9086 17.1276L13.912 17.0547Z" fill="#076CB3"/>
<path d="M15.0389 16.0787L15.4606 16.159C15.2093 15.9485 15.0995 15.7606 15.1309 15.5955C15.1452 15.5204 15.1803 15.4627 15.2361 15.4224C15.2904 15.3818 15.3477 15.3673 15.4077 15.3788C15.4609 15.3889 15.5026 15.4152 15.5327 15.4577C15.5628 15.5002 15.5732 15.5461 15.5638 15.5952C15.5547 15.643 15.5212 15.6924 15.4634 15.7437C15.4044 15.7933 15.3722 15.8324 15.3667 15.8611C15.3621 15.8857 15.3707 15.9148 15.3925 15.9487C15.4367 16.0209 15.5168 16.1019 15.6326 16.1918L16.5313 16.3631C16.635 16.3829 16.716 16.3849 16.7741 16.3691C16.8143 16.3584 16.851 16.3328 16.8842 16.2925C16.9173 16.2521 16.9419 16.1896 16.9581 16.105L17.0318 16.119L16.8488 17.0793L16.7751 17.0653C16.7933 16.9697 16.7918 16.8959 16.7707 16.8437C16.7553 16.8055 16.7251 16.7749 16.6799 16.7522C16.658 16.7409 16.5925 16.7249 16.4833 16.7041L15.7565 16.5655C15.5382 16.5239 15.4076 16.504 15.3648 16.5058C15.3209 16.5059 15.2872 16.5164 15.2633 16.5374C15.2398 16.5569 15.2247 16.5844 15.2179 16.6199C15.2098 16.6622 15.211 16.712 15.2213 16.7691L15.1437 16.7755L15.0225 16.1646L15.0389 16.0787Z" fill="#076CB3"/>
<path d="M15.763 13.6211L16.866 13.9691C17.0767 14.0355 17.2073 14.0717 17.258 14.0774C17.3077 14.0815 17.3452 14.0758 17.3704 14.0604C17.3961 14.0438 17.4135 14.0209 17.4227 13.9917C17.4357 13.9506 17.439 13.9007 17.4328 13.8419L17.5112 13.836L17.5639 14.4515L17.5358 14.5409L17.1501 14.4194C17.2704 14.6292 17.3395 14.7821 17.3573 14.8781C17.3751 14.974 17.3696 15.0677 17.3408 15.1592C17.3086 15.2612 17.2514 15.3408 17.1694 15.398C17.0863 15.4534 16.9938 15.481 16.8919 15.4809C16.7899 15.4808 16.6541 15.454 16.4845 15.4005L15.6717 15.1441C15.5855 15.1169 15.523 15.1073 15.484 15.1154C15.4451 15.1236 15.4111 15.1435 15.3822 15.1751C15.3523 15.205 15.3231 15.2679 15.2943 15.3638L15.2207 15.3406L15.4219 14.7024L16.6403 15.0868C16.8099 15.1404 16.9304 15.1463 17.0018 15.1047C17.0736 15.0618 17.1226 14.9986 17.149 14.9151C17.1669 14.8581 17.1694 14.7882 17.1561 14.7054C17.1433 14.6212 17.1023 14.5135 17.0329 14.3824L16.0014 14.0569C15.898 14.0244 15.8224 14.0216 15.7746 14.0488C15.7258 14.0742 15.6812 14.1461 15.641 14.2645L15.5674 14.2413L15.763 13.6211Z" fill="#076CB3"/>
<path d="M15.166 12.3434C15.1894 12.29 15.2284 12.2532 15.2828 12.2331C15.3364 12.2111 15.39 12.2118 15.4434 12.2353C15.4968 12.2588 15.5342 12.298 15.5556 12.3529C15.5776 12.4066 15.5768 12.4601 15.5534 12.5136C15.5299 12.567 15.4907 12.6044 15.4358 12.6258C15.3809 12.6472 15.3267 12.6462 15.2732 12.6228C15.2198 12.5993 15.1828 12.561 15.1621 12.5079C15.1407 12.4529 15.142 12.3982 15.166 12.3434ZM16.1495 12.5865L17.5539 13.2032C17.6633 13.2513 17.7398 13.2758 17.7834 13.2767C17.8263 13.2758 17.8634 13.264 17.8946 13.2413C17.9263 13.2173 17.9604 13.164 17.9967 13.0813L18.0654 13.1115L17.6925 13.9607L17.6239 13.9306C17.6613 13.8453 17.6781 13.7844 17.6744 13.7479C17.6707 13.7114 17.6535 13.6764 17.6226 13.6431C17.5922 13.6086 17.523 13.5676 17.4149 13.5201L16.7413 13.2242C16.5517 13.141 16.4265 13.0928 16.3655 13.0797C16.3208 13.0707 16.2868 13.0724 16.2631 13.0848C16.2382 13.0966 16.2185 13.1191 16.2039 13.1522C16.1883 13.1877 16.1788 13.2352 16.1756 13.2945L16.0951 13.291L16.1127 12.6704L16.1495 12.5865Z" fill="#076CB3"/>
<path d="M16.9888 10.9837L17.5563 11.301L17.5228 11.3611C17.3187 11.3075 17.1643 11.2992 17.0593 11.3359C16.955 11.3716 16.8717 11.4452 16.8093 11.5568C16.7619 11.6417 16.746 11.7228 16.7617 11.8C16.7775 11.8773 16.8126 11.9312 16.8672 11.9617C16.9351 11.9996 17.0042 12.0128 17.0744 12.0011C17.1451 11.9913 17.2405 11.9443 17.3608 11.8603L17.6384 11.6669C17.896 11.4878 18.1231 11.4532 18.3196 11.563C18.4712 11.6478 18.5614 11.7739 18.5905 11.9413C18.6188 12.1068 18.5934 12.2606 18.5141 12.4025C18.4571 12.5044 18.3739 12.6106 18.2643 12.7213C18.2298 12.7545 18.2054 12.7839 18.1912 12.8094C18.1756 12.8373 18.1792 12.8679 18.2019 12.9013L18.1683 12.9614L17.5735 12.6287L17.607 12.5687C17.7958 12.6297 17.96 12.6364 18.0997 12.5886C18.2393 12.541 18.3424 12.4577 18.4088 12.3388C18.4556 12.2552 18.4693 12.1736 18.45 12.0944C18.43 12.0132 18.3855 11.9533 18.3164 11.9147C18.2327 11.8678 18.1458 11.8582 18.0556 11.8858C17.966 11.9122 17.8285 11.9889 17.6429 12.1159C17.4572 12.243 17.314 12.3141 17.2132 12.3294C17.1136 12.3454 17.011 12.3238 16.9054 12.2648C16.7684 12.1882 16.6799 12.0774 16.64 11.9325C16.6007 11.7864 16.6227 11.6387 16.7061 11.4896C16.7427 11.424 16.8011 11.3524 16.8812 11.2745C16.9339 11.2229 16.966 11.1868 16.9776 11.1661C16.9884 11.1467 16.9926 11.1292 16.9903 11.1135C16.9879 11.0978 16.9762 11.0746 16.9552 11.0438L16.9888 10.9837Z" fill="#076CB3"/>
<path d="M18.0556 10.7616C18.2844 10.929 18.5047 11.0037 18.7167 10.9856C18.9288 10.9676 19.0898 10.8827 19.1998 10.7307C19.2731 10.6295 19.3091 10.5217 19.3078 10.4075C19.3061 10.2913 19.2561 10.159 19.1577 10.0106L19.2294 9.98267C19.3664 10.118 19.4574 10.2885 19.5022 10.4943C19.5459 10.6993 19.5059 10.8872 19.382 11.0583C19.2476 11.244 19.0602 11.3511 18.8201 11.3796C18.5796 11.4062 18.3372 11.331 18.093 11.1541C17.8286 10.9626 17.6715 10.7459 17.6219 10.5041C17.572 10.2604 17.6212 10.036 17.7695 9.8312C17.895 9.65789 18.0555 9.55707 18.2509 9.52876C18.4452 9.49966 18.638 9.55437 18.8293 9.69296L18.0556 10.7616ZM17.9577 10.6906L18.4759 9.97484C18.3729 9.90875 18.2945 9.87004 18.241 9.85873C18.1576 9.84123 18.0775 9.84756 18.0007 9.8778C17.9248 9.90683 17.8649 9.95179 17.8209 10.0125C17.7532 10.106 17.7291 10.2163 17.7484 10.3435C17.7675 10.4689 17.8373 10.5846 17.9577 10.6906Z" fill="#076CB3"/>
<path d="M21.6337 7.53373L21.6948 7.49901L22.0231 8.23317L20.3865 9.68591L20.3353 9.62821L20.4148 9.5577C20.5042 9.47837 20.5423 9.3925 20.5291 9.30022C20.5213 9.24757 20.464 9.16099 20.3571 9.0404L19.1467 7.67631C19.0295 7.54433 18.9417 7.47461 18.8831 7.46721C18.802 7.45746 18.7214 7.48806 18.6414 7.55913L18.5619 7.62964L18.5107 7.57201L19.4677 6.72247L19.5189 6.78016C19.4058 6.87873 19.336 6.95923 19.3096 7.02164C19.2843 7.08312 19.2781 7.13787 19.291 7.1859C19.3039 7.23392 19.3661 7.32079 19.4777 7.44658L20.6564 8.77474C20.7329 8.86104 20.7938 8.9129 20.839 8.93033C20.8708 8.94108 20.9043 8.94015 20.9395 8.92749C20.9748 8.91482 21.0604 8.84809 21.1965 8.72721L21.3508 8.59025C21.513 8.4464 21.6161 8.33342 21.6603 8.25138C21.7046 8.16942 21.727 8.07423 21.7276 7.96602C21.7272 7.85674 21.6959 7.71267 21.6337 7.53373Z" fill="#076CB3"/>
<path d="M20.96 5.39372C21.0081 5.36069 21.0606 5.34996 21.1174 5.36152C21.1745 5.37116 21.2196 5.40003 21.2527 5.44814C21.2857 5.49626 21.2968 5.5493 21.286 5.60726C21.2764 5.66443 21.2475 5.70954 21.1994 5.74257C21.1513 5.77559 21.0983 5.78672 21.0403 5.77594C20.9823 5.76517 20.9369 5.73572 20.9039 5.68761C20.8708 5.63949 20.8596 5.58742 20.8699 5.53138C20.8807 5.47343 20.9107 5.42754 20.96 5.39372ZM21.6675 6.11895L22.5356 7.38371C22.6032 7.48225 22.6553 7.54344 22.6918 7.5672C22.7288 7.58904 22.7665 7.59857 22.8049 7.59573C22.8446 7.5921 22.9016 7.56471 22.9761 7.51363L23.0186 7.57552L22.2539 8.10044L22.2115 8.03854C22.2882 7.98589 22.3347 7.94306 22.3508 7.91005C22.3669 7.87704 22.3707 7.83827 22.3619 7.79366C22.3544 7.74834 22.3172 7.67691 22.2504 7.57958L21.834 6.97293C21.7169 6.80223 21.6359 6.69522 21.591 6.65189C21.5577 6.62073 21.5279 6.60418 21.5013 6.60223C21.4739 6.59913 21.4453 6.60781 21.4155 6.62825C21.3834 6.65027 21.3504 6.6856 21.3163 6.73425L21.2498 6.6889L21.592 6.17085L21.6675 6.11895Z" fill="#076CB3"/>
<path d="M22.8256 5.88051C22.8959 5.5373 23.0204 5.3179 23.1993 5.22228C23.2912 5.17316 23.3827 5.15421 23.4737 5.16541C23.5642 5.1754 23.6571 5.22261 23.7527 5.30705C23.8189 5.36618 23.8926 5.47173 23.9738 5.6237L24.3578 6.34249C24.4148 6.44911 24.462 6.51684 24.4994 6.54567C24.5293 6.5691 24.5635 6.58154 24.6021 6.58298C24.6419 6.58377 24.7022 6.56254 24.7831 6.51932L24.8185 6.5855L23.9858 7.03051L23.9505 6.96433L23.9854 6.94566C24.0638 6.90375 24.1121 6.86296 24.1303 6.82331C24.1491 6.78177 24.1522 6.73444 24.1396 6.68131C24.1346 6.66031 24.1063 6.6014 24.0546 6.50458L23.6862 5.8152C23.6044 5.662 23.5249 5.56189 23.4478 5.51487C23.3712 5.46597 23.2858 5.46674 23.1915 5.51716C23.0457 5.5951 22.943 5.75236 22.8835 5.98897L23.3579 6.87689C23.4188 6.99087 23.4632 7.05774 23.4911 7.0775C23.5272 7.10387 23.5646 7.11781 23.6032 7.11923C23.6423 7.11881 23.7079 7.094 23.7998 7.04488L23.8351 7.11107L23.0025 7.55607L22.9671 7.48991L23.0039 7.47027C23.0897 7.42438 23.1358 7.37216 23.1423 7.31353C23.1494 7.25306 23.1201 7.16157 23.0546 7.03898L22.7207 6.41394C22.6127 6.21172 22.542 6.09117 22.5086 6.05229C22.4764 6.01275 22.4463 5.99026 22.4182 5.98481C22.3913 5.9787 22.3619 5.98416 22.3301 6.00118C22.2958 6.01952 22.2596 6.05065 22.2216 6.09458L22.1587 6.04313L22.556 5.5661L22.6351 5.52386L22.8256 5.88051Z" fill="#076CB3"/>
<path d="M24.6233 5.41662C24.7218 5.68244 24.8644 5.86632 25.0512 5.96827C25.238 6.07023 25.4192 6.08819 25.5947 6.02215C25.7118 5.97813 25.8012 5.90811 25.8631 5.81209C25.9257 5.71429 25.957 5.57634 25.9568 5.39826L26.0319 5.41453C26.0716 5.60299 26.0534 5.7954 25.9774 5.99178C25.9008 6.18685 25.7637 6.32157 25.566 6.39593C25.3515 6.47663 25.1361 6.46261 24.9201 6.35386C24.7049 6.2433 24.5442 6.04691 24.438 5.76467C24.3231 5.45903 24.3116 5.19166 24.4036 4.96258C24.4964 4.73171 24.6612 4.57176 24.8978 4.48273C25.0981 4.4074 25.2875 4.41185 25.4661 4.49609C25.6443 4.57902 25.7749 4.73105 25.8581 4.95215L24.6233 5.41662ZM24.5808 5.30346L25.4079 4.99235C25.3583 4.88034 25.3143 4.80484 25.2759 4.76584C25.216 4.70523 25.1457 4.66635 25.0651 4.64919C24.9857 4.63154 24.9109 4.63592 24.8406 4.66233C24.7327 4.70294 24.6517 4.78165 24.5977 4.89847C24.5445 5.01351 24.5388 5.1485 24.5808 5.30346Z" fill="#076CB3"/>
<path d="M27.0696 3.85934L27.223 4.4913L27.1562 4.50754C27.0567 4.3215 26.9577 4.20253 26.8594 4.15063C26.7623 4.09841 26.6517 4.08738 26.5275 4.11755C26.433 4.1405 26.3628 4.18401 26.3168 4.24807C26.2709 4.31213 26.2554 4.37454 26.2701 4.43531C26.2884 4.51093 26.3258 4.5705 26.3821 4.61402C26.4374 4.65922 26.5367 4.69731 26.68 4.72827L27.0107 4.80027C27.3172 4.86739 27.497 5.01033 27.5501 5.22908C27.591 5.39788 27.56 5.54984 27.457 5.68496C27.355 5.81841 27.2251 5.90431 27.0671 5.94268C26.9537 5.97022 26.8192 5.98144 26.6635 5.97634C26.6157 5.97366 26.5776 5.97576 26.5492 5.98265C26.5182 5.99019 26.4981 6.01365 26.4891 6.05302L26.4223 6.06925L26.2615 5.40691L26.3283 5.39067C26.412 5.57055 26.5188 5.69546 26.6488 5.76543C26.7787 5.8354 26.9099 5.85432 27.0422 5.82218C27.1353 5.79956 27.2044 5.7542 27.2493 5.68608C27.2953 5.61629 27.3089 5.54291 27.2902 5.46594C27.2676 5.37277 27.2155 5.30248 27.1339 5.25508C27.0537 5.20735 26.9039 5.15865 26.6846 5.10897C26.4652 5.05929 26.3156 5.00267 26.2359 4.93911C26.1564 4.87689 26.1024 4.78705 26.0739 4.66956C26.0368 4.51698 26.0578 4.37675 26.1369 4.24888C26.2173 4.12067 26.3405 4.03641 26.5066 3.99608C26.5795 3.97837 26.6717 3.97242 26.7832 3.97823C26.8569 3.98177 26.9053 3.98074 26.9283 3.97517C26.9498 3.96993 26.9656 3.9611 26.9754 3.9487C26.9853 3.93629 26.9944 3.91192 27.0028 3.87558L27.0696 3.85934Z" fill="#076CB3"/>
<path d="M29.4411 4.00862L30.754 3.99393L30.7449 3.18525C30.7433 3.04074 30.7332 2.94567 30.7146 2.90001C30.7003 2.86543 30.6708 2.83589 30.6261 2.81137C30.566 2.77869 30.5026 2.76273 30.4359 2.76347L30.3359 2.76459L30.3351 2.68748L31.5437 2.67395L31.5445 2.75107L31.4445 2.75219C31.3778 2.75294 31.3148 2.76962 31.2554 2.80225C31.2112 2.82497 31.181 2.85936 31.1648 2.9054C31.1501 2.95003 31.1435 3.04183 31.145 3.18077L31.1654 5.00448C31.167 5.14759 31.1771 5.24198 31.1956 5.28763C31.2099 5.32221 31.2387 5.35177 31.2821 5.3763C31.3436 5.40896 31.4077 5.42492 31.4744 5.42417L31.5744 5.42306L31.5753 5.50017L30.3666 5.51369L30.3658 5.43657L30.4658 5.43546C30.5811 5.43417 30.6648 5.39919 30.7168 5.33051C30.751 5.28566 30.7672 5.17847 30.7653 5.00896L30.7557 4.14816L29.4428 4.16285L29.4525 5.02364C29.4541 5.16676 29.4642 5.26114 29.4827 5.30679C29.497 5.34137 29.5265 5.37092 29.5712 5.39544C29.6313 5.42811 29.6948 5.44408 29.7614 5.44333L29.8636 5.44219L29.8644 5.51931L28.6537 5.53285L28.6528 5.45573L28.7528 5.45462C28.8695 5.45331 28.9539 5.41832 29.0059 5.34965C29.0388 5.30481 29.0543 5.19763 29.0524 5.02812L29.0319 3.20441C29.0304 3.0599 29.0203 2.96482 29.0017 2.91917C28.9874 2.88459 28.9586 2.85504 28.9152 2.83051C28.8538 2.79784 28.7897 2.78189 28.7229 2.78263L28.6229 2.78375L28.6221 2.70663L29.8328 2.69309L29.8337 2.7702L29.7316 2.77135C29.6649 2.7721 29.6019 2.78878 29.5425 2.82141C29.4997 2.84412 29.4701 2.8785 29.454 2.92453C29.4378 2.96919 29.4305 3.06099 29.4321 3.19993L29.4411 4.00862Z" fill="#076CB3"/>
<path d="M32.4208 2.70086C32.4786 2.70848 32.5248 2.7356 32.5593 2.78219C32.5954 2.82759 32.6096 2.87922 32.602 2.93708C32.5944 2.99495 32.5671 3.04182 32.5204 3.0777C32.475 3.11376 32.4234 3.12798 32.3655 3.12035C32.3076 3.11272 32.2608 3.08552 32.2249 3.03874C32.1891 2.99196 32.1749 2.93964 32.1826 2.88178C32.1902 2.82392 32.2166 2.77764 32.2618 2.74296C32.3086 2.70708 32.3616 2.69304 32.4208 2.70086ZM32.4619 3.71331L32.2613 5.23424C32.2458 5.35272 32.2435 5.43302 32.2548 5.47515C32.2677 5.51609 32.2893 5.54838 32.3198 5.57203C32.3517 5.59585 32.4124 5.61367 32.502 5.62548L32.4922 5.69987L31.5728 5.57864L31.5825 5.50424C31.6748 5.51641 31.738 5.51563 31.772 5.5019C31.8061 5.48817 31.8347 5.46181 31.8581 5.42285C31.8828 5.38406 31.903 5.30612 31.9184 5.18902L32.0145 4.45955C32.0416 4.25428 32.0529 4.12052 32.0485 4.05826C32.0447 4.01291 32.0335 3.9806 32.015 3.96135C31.9967 3.94071 31.9697 3.92804 31.9338 3.92331C31.8953 3.91823 31.8471 3.92238 31.7893 3.93578L31.7702 3.85757L32.371 3.70132L32.4619 3.71331Z" fill="#076CB3"/>
<path d="M33.5648 3.91875L33.4716 4.3379C33.6897 4.09314 33.8808 3.989 34.0449 4.02548C34.1195 4.04206 34.1761 4.07884 34.2146 4.13582C34.2535 4.19144 34.2664 4.24908 34.253 4.30877C34.2413 4.36167 34.2137 4.40252 34.1703 4.4313C34.1269 4.46009 34.0808 4.46905 34.032 4.4582C33.9845 4.44765 33.9361 4.41268 33.8866 4.35329C33.8389 4.29285 33.8008 4.25947 33.7723 4.25313C33.7479 4.2477 33.7184 4.25539 33.6839 4.27618C33.6105 4.31823 33.5271 4.39577 33.4337 4.50881L33.2351 5.40205C33.2122 5.50514 33.2078 5.586 33.2218 5.64463C33.2313 5.68517 33.2557 5.72263 33.295 5.75699C33.3344 5.79136 33.3961 5.8179 33.4802 5.83659L33.4639 5.90984L32.5098 5.69772L32.5261 5.62448C32.6209 5.64558 32.6949 5.64634 32.7476 5.62675C32.7863 5.61258 32.8177 5.58327 32.8418 5.5388C32.8538 5.51725 32.8718 5.45222 32.8959 5.3437L33.0564 4.62138C33.1047 4.40435 33.1285 4.27443 33.1281 4.23162C33.1293 4.18776 33.1198 4.15362 33.0996 4.1292C33.0808 4.10508 33.0537 4.08911 33.0184 4.08127C32.9764 4.07192 32.9267 4.07155 32.8693 4.08013L32.8652 4.00236L33.4793 3.89975L33.5648 3.91875Z" fill="#076CB3"/>
<path d="M35.174 3.31977C35.2296 3.33733 35.2704 3.37205 35.2963 3.42392C35.3239 3.4749 35.329 3.52821 35.3114 3.58387C35.2938 3.63953 35.2589 3.68097 35.2066 3.70819C35.1557 3.73582 35.1023 3.74086 35.0467 3.72331C34.9911 3.70575 34.9496 3.67082 34.9224 3.61852C34.8952 3.56623 34.8904 3.51225 34.9079 3.45659C34.9255 3.40094 34.9595 3.35995 35.0101 3.33364C35.0624 3.30643 35.117 3.3018 35.174 3.31977ZM35.0387 4.32398L34.5773 5.78702C34.5413 5.90099 34.5252 5.9797 34.529 6.02314C34.5345 6.06569 34.5503 6.10125 34.5762 6.12984C34.6035 6.15883 34.6602 6.18692 34.7463 6.21409L34.7238 6.28565L33.8394 6.00665L33.8619 5.93508C33.9507 5.96309 34.013 5.97328 34.0489 5.96567C34.0848 5.95805 34.1176 5.93709 34.1474 5.90276C34.1785 5.86886 34.2118 5.79558 34.2473 5.68294L34.4686 4.98124C34.5309 4.78378 34.5653 4.65402 34.5718 4.59194C34.5758 4.54661 34.5705 4.51286 34.5556 4.49069C34.5412 4.46719 34.5167 4.45001 34.4823 4.43914C34.4451 4.42743 34.397 4.42316 34.3377 4.42632L34.3325 4.34599L34.9512 4.2964L35.0387 4.32398Z" fill="#076CB3"/>
<path d="M35.9337 5.08539C36.2469 4.92851 36.4964 4.89086 36.6821 4.97243C36.7775 5.01433 36.8489 5.07454 36.8964 5.15306C36.9445 5.23031 36.9648 5.33258 36.9575 5.45988C36.9519 5.5485 36.9145 5.6717 36.8452 5.82947L36.5177 6.57568C36.469 6.68637 36.445 6.76535 36.4455 6.81261C36.4455 6.85057 36.4568 6.88515 36.4796 6.91637C36.5036 6.94815 36.5576 6.98248 36.6415 7.01935L36.6113 7.08806L35.7469 6.70842L35.7771 6.63972L35.8134 6.65564C35.8947 6.6914 35.9567 6.70417 35.9991 6.69397C36.0433 6.68305 36.0825 6.6562 36.1164 6.61344C36.1298 6.5966 36.1586 6.53791 36.2028 6.4374L36.517 5.72172C36.5868 5.56269 36.6164 5.43833 36.6057 5.34864C36.5968 5.25824 36.5434 5.19153 36.4455 5.14851C36.2941 5.08202 36.1071 5.09852 35.8843 5.19799L35.4796 6.11978C35.4277 6.2381 35.4026 6.31433 35.4043 6.34847C35.4058 6.39319 35.418 6.43116 35.4407 6.46238C35.4652 6.49289 35.5252 6.52909 35.6207 6.571L35.5905 6.6397L34.7261 6.26006L34.7562 6.19135L34.7944 6.20812C34.8834 6.24723 34.953 6.25122 35.0031 6.2201C35.055 6.18827 35.1089 6.10873 35.1648 5.9815L35.4497 5.33262C35.5418 5.12269 35.5928 4.99259 35.6028 4.94232C35.614 4.8926 35.613 4.85501 35.6 4.82953C35.5881 4.80461 35.5657 4.78488 35.5327 4.77036C35.497 4.75471 35.4502 4.74554 35.3922 4.74283L35.3937 4.66156L36.0142 4.67911L36.0963 4.71515L35.9337 5.08539Z" fill="#076CB3"/>
<path d="M37.3118 6.72863C37.2424 6.61879 37.2078 6.50429 37.208 6.38513C37.2089 6.26478 37.2418 6.15201 37.3069 6.04682C37.4062 5.88608 37.552 5.78506 37.7441 5.74376C37.9375 5.7032 38.1287 5.74137 38.3178 5.85829C38.4725 5.95401 38.5833 6.07477 38.6499 6.22056L38.9939 6.4332C39.0447 6.46462 39.0731 6.48467 39.0792 6.49332C39.086 6.5008 39.089 6.50918 39.0881 6.51847C39.0886 6.53349 39.0805 6.5546 39.0637 6.58178C39.0447 6.61251 39.0286 6.63195 39.0154 6.64012C39.0082 6.64384 38.9988 6.64455 38.9871 6.64225C38.9767 6.64068 38.946 6.62418 38.8952 6.59277L38.6843 6.46233C38.6978 6.58835 38.6637 6.71755 38.5819 6.84992C38.4884 7.00121 38.3505 7.09483 38.1682 7.13077C37.9859 7.1667 37.7973 7.12437 37.6023 7.00383C37.5219 6.95415 37.4471 6.89154 37.3778 6.81602C37.298 6.82879 37.2381 6.84646 37.198 6.86904C37.1598 6.89117 37.1334 6.91406 37.1188 6.9377C37.1064 6.9578 37.1038 6.98314 37.111 7.01375C37.1194 7.04508 37.1494 7.08242 37.201 7.12579C37.2312 7.15098 37.3113 7.20626 37.4415 7.29164C37.6813 7.44809 37.834 7.55388 37.8995 7.60909C37.9999 7.6924 38.0621 7.78724 38.0862 7.89367C38.1115 8.00075 38.0941 8.10277 38.0342 8.19968C37.9517 8.33322 37.8116 8.4198 37.614 8.45936C37.323 8.51791 37.0292 8.45552 36.7325 8.2721C36.5045 8.13109 36.3436 7.96055 36.25 7.76056C36.198 7.64666 36.1916 7.55779 36.231 7.49398C36.2486 7.46559 36.2726 7.44126 36.3032 7.42091C36.3503 7.3896 36.4293 7.35432 36.5401 7.31504C36.555 7.30949 36.6547 7.28296 36.8393 7.23536C36.8005 7.16073 36.7768 7.10117 36.7684 7.05673C36.7618 7.01184 36.7699 6.97107 36.7925 6.93443C36.8181 6.89306 36.8646 6.85483 36.932 6.81974C37.0006 6.78538 37.1272 6.75501 37.3118 6.72863ZM38.235 5.92475C38.1475 5.87068 38.0527 5.86024 37.9506 5.89344C37.8483 5.92664 37.7527 6.01534 37.6635 6.15953C37.5481 6.34627 37.4988 6.51591 37.5156 6.66842C37.5288 6.78443 37.5827 6.87166 37.6773 6.93012C37.767 6.98565 37.8617 6.99764 37.9613 6.96607C38.0608 6.93451 38.1551 6.84663 38.2443 6.70243C38.3604 6.5145 38.4107 6.34215 38.3949 6.18535C38.3828 6.07008 38.3295 5.98321 38.235 5.92475ZM36.928 7.30985C36.8352 7.33575 36.7586 7.36598 36.698 7.40042C36.6376 7.43492 36.5937 7.47398 36.5667 7.51774C36.5316 7.57444 36.5353 7.6453 36.5775 7.73025C36.6504 7.8766 36.7985 8.01882 37.0218 8.15692C37.2345 8.28847 37.4145 8.34745 37.5617 8.33393C37.7093 8.32226 37.8095 8.27395 37.8621 8.18879C37.9001 8.12739 37.897 8.065 37.8527 8.00175C37.8074 7.93771 37.6952 7.84707 37.5161 7.72983C37.2546 7.55836 37.0585 7.41835 36.928 7.30985Z" fill="#076CB3"/>
<path d="M40.2887 8.16673L39.7165 8.75866C39.5929 8.88651 39.5301 8.97943 39.5281 9.03749C39.5236 9.11809 39.5598 9.19564 39.6367 9.26999L39.7146 9.34534L39.661 9.40076L38.7905 8.55903L38.8441 8.5036L38.9206 8.57745C39.0064 8.66055 39.0949 8.692 39.186 8.67179C39.2358 8.66013 39.3169 8.59631 39.4288 8.48048L40.6978 7.16776C40.8214 7.03991 40.8847 6.94745 40.8876 6.8904C40.8912 6.80877 40.8545 6.73078 40.7776 6.65641L40.7012 6.58251L40.7548 6.52707L41.4994 7.24716C41.6812 7.42289 41.8062 7.58048 41.8743 7.71986C41.9435 7.85824 41.9711 8.00672 41.9571 8.16516C41.943 8.3236 41.877 8.46376 41.7592 8.58564C41.599 8.75148 41.4137 8.83322 41.2033 8.83088C40.994 8.82945 40.7895 8.7322 40.5897 8.53904C40.5408 8.49172 40.4912 8.43701 40.4411 8.37497C40.3909 8.31293 40.3401 8.24349 40.2887 8.16673ZM40.3713 8.08128C40.4145 8.14247 40.4542 8.1954 40.4903 8.24001C40.5265 8.28455 40.5591 8.3209 40.588 8.34886C40.6919 8.44932 40.8199 8.49585 40.9721 8.48838C41.1262 8.48084 41.2651 8.41318 41.3887 8.28526C41.4736 8.19739 41.5344 8.09857 41.5709 7.98886C41.6083 7.87816 41.6119 7.77243 41.5818 7.67176C41.5525 7.57002 41.496 7.4786 41.412 7.39749C41.3611 7.34826 41.2865 7.29447 41.1882 7.23613L40.3713 8.08128Z" fill="#076CB3"/>
<path d="M41.245 10.8021C41.0052 10.7402 40.8607 10.6967 40.8114 10.6717C40.7379 10.6337 40.6753 10.5813 40.6233 10.5144C40.5423 10.4101 40.5111 10.2962 40.5296 10.1728C40.5489 10.0504 40.6168 9.94405 40.7331 9.85377C40.8066 9.79664 40.883 9.7637 40.9624 9.75487C41.072 9.74193 41.2027 9.76533 41.3546 9.82502C41.5073 9.88585 41.7315 10.0092 42.0269 10.1949L42.0861 10.1489C42.2365 10.0321 42.3209 9.92783 42.3394 9.83612C42.3587 9.74548 42.333 9.65456 42.2623 9.56349C42.2086 9.49434 42.1474 9.45393 42.0785 9.44233C42.0089 9.42959 41.9498 9.44197 41.9016 9.47947L41.8086 9.55687C41.7582 9.59608 41.709 9.61315 41.6611 9.6081C41.6141 9.60419 41.5744 9.58135 41.542 9.53966C41.5104 9.49903 41.4988 9.45449 41.5068 9.40597C41.5158 9.35859 41.5449 9.31569 41.5943 9.27734C41.6887 9.20406 41.8129 9.18506 41.9668 9.22028C42.1208 9.2555 42.2656 9.36037 42.401 9.53489C42.505 9.66879 42.5677 9.796 42.5892 9.91659C42.6054 10.0077 42.5893 10.0968 42.5407 10.1838C42.5089 10.2402 42.42 10.325 42.274 10.4384L41.762 10.8359C41.6183 10.9476 41.5321 11.0189 41.5034 11.05C41.4759 11.0802 41.4613 11.1056 41.4597 11.1262C41.4589 11.1478 41.4649 11.167 41.4777 11.1834C41.4914 11.201 41.5071 11.2134 41.525 11.2206C41.5572 11.2325 41.6317 11.2459 41.7487 11.2606L41.6566 11.3322C41.3965 11.3371 41.2231 11.2836 41.1361 11.1716C41.0944 11.1178 41.0798 11.0605 41.0924 10.9997C41.105 10.939 41.1558 10.873 41.245 10.8021ZM41.352 10.719L41.9265 10.2729C41.732 10.1583 41.6023 10.0875 41.5373 10.0604C41.4217 10.0113 41.3231 9.98845 41.2415 9.992C41.1598 9.99563 41.0878 10.0217 41.0252 10.0703C40.9462 10.1316 40.8987 10.2064 40.8826 10.2944C40.8677 10.3817 40.884 10.4561 40.9318 10.5176C40.9965 10.6009 41.1366 10.6681 41.352 10.719Z" fill="#076CB3"/>
<path d="M43.3675 10.9335L43.0015 11.1579C43.329 11.1445 43.5367 11.2095 43.6246 11.3528C43.6645 11.418 43.6774 11.4842 43.6633 11.5516C43.6503 11.6182 43.6178 11.6675 43.5657 11.6994C43.5195 11.7278 43.471 11.7364 43.4201 11.7251C43.3693 11.714 43.3307 11.6871 43.3046 11.6444C43.2791 11.6029 43.2706 11.5438 43.2789 11.4669C43.2892 11.3906 43.2867 11.34 43.2714 11.3151C43.2584 11.2938 43.2323 11.278 43.1934 11.2676C43.1121 11.2441 42.9985 11.238 42.8523 11.2494L42.0723 11.7277C41.9823 11.7829 41.9211 11.8359 41.8887 11.8868C41.8661 11.9218 41.8562 11.9654 41.8588 12.0175C41.8614 12.0697 41.8853 12.1325 41.9304 12.2059L41.8664 12.2452L41.3555 11.4118L41.4195 11.3726C41.4703 11.4555 41.5211 11.5091 41.5719 11.5334C41.6089 11.5514 41.6518 11.5536 41.7005 11.54C41.7243 11.5336 41.7836 11.5014 41.8784 11.4432L42.509 11.0565C42.6986 10.9402 42.8085 10.8671 42.839 10.837C42.8713 10.8074 42.8893 10.7768 42.8928 10.7454C42.897 10.7151 42.8897 10.6845 42.8708 10.6537C42.8483 10.617 42.814 10.581 42.7679 10.5457L42.821 10.4887L43.3218 10.8589L43.3675 10.9335Z" fill="#076CB3"/>
<path d="M44.5614 11.9168L44.0005 12.198L44.2004 12.5967L44.07 12.6621L43.8701 12.2634L42.7635 12.8183C42.653 12.8737 42.5862 12.9266 42.5633 12.9769C42.541 13.0285 42.5423 13.0792 42.5673 13.1289C42.5877 13.1699 42.6201 13.2034 42.6643 13.2294C42.7097 13.2549 42.7624 13.2657 42.8227 13.2619L42.8592 13.3346C42.7156 13.3521 42.5929 13.3367 42.491 13.2884C42.3903 13.2394 42.3187 13.1727 42.2764 13.0881C42.2477 13.031 42.2353 12.9673 42.2389 12.8971C42.2438 12.8263 42.2689 12.7632 42.3142 12.7078C42.3607 12.6518 42.4455 12.593 42.5685 12.5314L43.7161 11.9559L43.5806 11.6858L43.6421 11.6549C43.7037 11.7095 43.7845 11.7561 43.8846 11.7945C43.9865 11.8336 44.0962 11.8586 44.2137 11.8696C44.2752 11.8745 44.3814 11.871 44.5324 11.859L44.5614 11.9168Z" fill="#076CB3"/>
<path d="M44.1702 13.4286C44.5008 13.5443 44.7014 13.6973 44.7721 13.8874C44.8084 13.9851 44.8149 14.0783 44.7916 14.1671C44.7695 14.2553 44.7103 14.3411 44.6137 14.4244C44.5463 14.4821 44.4318 14.541 44.2703 14.6011L43.5065 14.8851C43.3933 14.9272 43.3198 14.9649 43.2862 14.9981C43.259 15.0246 43.2421 15.0568 43.2354 15.0948C43.2293 15.1342 43.2423 15.1968 43.2742 15.2828L43.2039 15.309L42.8749 14.4239L42.9452 14.3978L42.959 14.4349C42.99 14.5183 43.0239 14.5716 43.0607 14.595C43.0994 14.6191 43.1459 14.6285 43.2002 14.6232C43.2216 14.6211 43.2838 14.601 43.3867 14.5627L44.1192 14.2903C44.282 14.2298 44.3919 14.1644 44.4488 14.0944C44.5075 14.0251 44.5183 13.9403 44.481 13.84C44.4234 13.685 44.2814 13.5621 44.055 13.4714L43.1115 13.8222C42.9904 13.8673 42.9182 13.9023 42.8949 13.9273C42.8638 13.9595 42.8451 13.9947 42.8384 14.0328C42.8336 14.0716 42.8493 14.1399 42.8857 14.2376L42.8153 14.2637L42.4863 13.3787L42.5567 13.3525L42.5712 13.3916C42.6051 13.4828 42.6506 13.5355 42.7078 13.5498C42.7668 13.565 42.8614 13.5483 42.9917 13.4999L43.6558 13.2529C43.8707 13.173 43.9996 13.1192 44.0426 13.0913C44.0861 13.0647 44.1125 13.0379 44.1216 13.0107C44.1313 12.9849 44.1298 12.9551 44.1172 12.9212C44.1037 12.8847 44.0777 12.8448 44.0393 12.8012L44.0987 12.7458L44.5179 13.2036L44.5491 13.2876L44.1702 13.4286Z" fill="#076CB3"/>
<path d="M44.3871 15.2667C44.1104 15.328 43.9088 15.4442 43.7824 15.6154C43.6559 15.7866 43.6134 15.9636 43.6549 16.1466C43.6825 16.2685 43.7397 16.3667 43.8264 16.4411C43.9146 16.5165 44.047 16.5663 44.2234 16.5904L44.1971 16.6627C44.005 16.6762 43.8169 16.632 43.6328 16.5298C43.45 16.4274 43.3353 16.2731 43.2886 16.0672C43.2379 15.8435 43.2811 15.6321 43.4183 15.4329C43.5572 15.2347 43.7737 15.1023 44.0677 15.0356C44.3861 14.9635 44.6525 14.9885 44.8669 15.1109C45.0829 15.2343 45.2188 15.4194 45.2747 15.666C45.322 15.8747 45.2917 16.0618 45.184 16.2273C45.0775 16.3925 44.9091 16.5012 44.6788 16.5534L44.3871 15.2667ZM44.5051 15.2399L44.7004 16.1019C44.8181 16.068 44.8989 16.0348 44.9427 16.0021C45.0109 15.951 45.0591 15.8866 45.087 15.809C45.1153 15.7328 45.1212 15.6581 45.1046 15.5849C45.0791 15.4724 45.0122 15.3815 44.9038 15.3119C44.7971 15.2436 44.6643 15.2195 44.5051 15.2399Z" fill="#076CB3"/>
<path d="M45.5339 17.2538L45.1073 17.3016C45.4095 17.4285 45.57 17.5755 45.5887 17.7426C45.5971 17.8186 45.5807 17.884 45.5393 17.939C45.4993 17.9938 45.449 18.0246 45.3882 18.0315C45.3344 18.0375 45.2868 18.0246 45.2455 17.9929C45.2042 17.9612 45.1808 17.9205 45.1752 17.8707C45.1698 17.8224 45.1871 17.7652 45.2273 17.6992C45.269 17.6344 45.2882 17.5875 45.2849 17.5585C45.2822 17.5336 45.2653 17.5082 45.2345 17.4823C45.1709 17.4266 45.0705 17.3728 44.9333 17.3211L44.0241 17.4229C43.9192 17.4346 43.8413 17.4566 43.7903 17.4889C43.755 17.511 43.7276 17.5462 43.7078 17.5946C43.688 17.6429 43.683 17.7099 43.6926 17.7955L43.618 17.8039L43.5093 16.8324L43.5838 16.824C43.5946 16.9207 43.6178 16.9909 43.6535 17.0344C43.6794 17.0664 43.7173 17.0866 43.7672 17.095C43.7915 17.0994 43.8588 17.0953 43.9693 17.0829L44.7045 17.0006C44.9254 16.9759 45.056 16.9563 45.0964 16.942C45.1383 16.929 45.1675 16.9089 45.184 16.8819C45.2007 16.8562 45.207 16.8255 45.2031 16.7895C45.1982 16.7468 45.1825 16.6996 45.1557 16.648L45.2279 16.619L45.5242 17.1667L45.5339 17.2538Z" fill="#076CB3"/>
<path d="M45.6346 19.4192L44.9844 19.4239L44.9839 19.3551C45.1877 19.3009 45.3261 19.2318 45.3992 19.1479C45.4722 19.0654 45.5082 18.9601 45.5073 18.8323C45.5066 18.735 45.4803 18.6567 45.4285 18.5974C45.3766 18.538 45.3194 18.5085 45.2569 18.509C45.1792 18.5096 45.1126 18.5323 45.0574 18.5772C45.0008 18.6206 44.9409 18.7086 44.878 18.8411L44.7322 19.1465C44.5968 19.4296 44.4165 19.5719 44.1915 19.5736C44.0177 19.5748 43.877 19.5099 43.7691 19.3787C43.6625 19.2488 43.6087 19.1026 43.6074 18.9401C43.6066 18.8233 43.6264 18.6898 43.667 18.5394C43.6806 18.4934 43.6873 18.4558 43.687 18.4267C43.6868 18.3947 43.6686 18.3698 43.6323 18.352L43.6318 18.2832L44.3132 18.2783L44.3137 18.3471C44.1195 18.3874 43.9735 18.4628 43.8757 18.5733C43.7778 18.6838 43.7294 18.8071 43.7304 18.9433C43.7312 19.0392 43.7595 19.1168 43.8155 19.1761C43.8729 19.2369 43.9412 19.2669 44.0204 19.2663C44.1163 19.2656 44.1966 19.231 44.2614 19.1625C44.3262 19.0952 44.4078 18.9606 44.5064 18.7584C44.605 18.5562 44.6943 18.4235 44.7744 18.3604C44.8531 18.2973 44.9529 18.2652 45.0738 18.2644C45.2308 18.2632 45.3625 18.3158 45.4689 18.422C45.5752 18.5296 45.6291 18.6689 45.6303 18.8398C45.6309 18.9148 45.6156 19.006 45.5844 19.1132C45.5641 19.1842 45.554 19.2315 45.5542 19.2551C45.5543 19.2774 45.5593 19.2947 45.5691 19.3071C45.5789 19.3196 45.6006 19.334 45.6341 19.3504L45.6346 19.4192Z" fill="#076CB3"/>
</g>
<defs>
<clipPath id="clip0_2225_3607">
<rect width="59.6104" height="36" fill="white"/>
</clipPath>
</defs>
</svg>
