<svg width="62" height="40" viewBox="0 0 62 40" fill="none" xmlns="http://www.w3.org/2000/svg">
<g clip-path="url(#clip0_2230_4719)">
<path d="M47.4752 16.1995H44.1608C43.9658 16.1995 43.7708 16.3945 43.6734 16.5895L42.3086 25.168C42.3086 25.3629 42.4061 25.4604 42.601 25.4604H44.3557C44.5507 25.4604 44.6482 25.3629 44.6482 25.168L45.0381 22.7309C45.0381 22.5359 45.2331 22.341 45.5255 22.341H46.5978C48.8399 22.341 50.1072 21.2686 50.3997 19.124C50.5946 18.2467 50.3997 17.4668 50.0097 16.9794C49.4248 16.492 48.5475 16.1995 47.4752 16.1995ZM47.8651 19.4165C47.6701 20.5863 46.7928 20.5863 45.9155 20.5863H45.3306L45.7205 18.3442C45.7205 18.2467 45.818 18.1492 46.0129 18.1492H46.2079C46.7928 18.1492 47.3777 18.1492 47.6701 18.5391C47.8651 18.6366 47.8651 18.9291 47.8651 19.4165Z" fill="#139AD6"/>
<path d="M23.5924 16.1995H20.278C20.083 16.1995 19.888 16.3945 19.7905 16.5895L18.4258 25.168C18.4258 25.3629 18.5233 25.4604 18.7182 25.4604H20.278C20.4729 25.4604 20.6679 25.2654 20.7654 25.0705L21.1553 22.7309C21.1553 22.5359 21.3503 22.341 21.6427 22.341H22.715C24.9571 22.341 26.2244 21.2686 26.5169 19.124C26.7118 18.2467 26.5169 17.4668 26.1269 16.9794C25.542 16.492 24.7622 16.1995 23.5924 16.1995ZM23.9823 19.4165C23.7873 20.5863 22.91 20.5863 22.0326 20.5863H21.5452L21.9352 18.3442C21.9352 18.2467 22.0326 18.1492 22.2276 18.1492H22.4226C23.0075 18.1492 23.5924 18.1492 23.8848 18.5391C23.9823 18.6366 24.0798 18.9291 23.9823 19.4165ZM33.6331 19.319H32.0734C31.9759 19.319 31.7809 19.4165 31.7809 19.514L31.6834 20.0014L31.586 19.8064C31.196 19.319 30.5137 19.124 29.7338 19.124C27.9791 19.124 26.4194 20.4888 26.1269 22.341C25.932 23.3158 26.2244 24.1931 26.7118 24.778C27.1992 25.3629 27.8816 25.5579 28.759 25.5579C30.2212 25.5579 31.0011 24.6805 31.0011 24.6805L30.9036 25.168C30.9036 25.3629 31.0011 25.4604 31.196 25.4604H32.6583C32.8532 25.4604 33.0482 25.2654 33.1457 25.0705L34.023 19.6114C33.9256 19.514 33.7306 19.319 33.6331 19.319ZM31.391 22.4384C31.196 23.3158 30.5137 23.9982 29.5388 23.9982C29.0514 23.9982 28.6615 23.8032 28.4665 23.6082C28.2715 23.3158 28.1741 22.9259 28.1741 22.4384C28.2715 21.5611 29.0514 20.8787 29.9288 20.8787C30.4162 20.8787 30.7086 21.0737 31.0011 21.2686C31.2935 21.5611 31.391 22.0485 31.391 22.4384Z" fill="#263B80"/>
<path d="M57.4169 19.319H55.8571C55.7596 19.319 55.5647 19.4165 55.5647 19.514L55.4672 20.0014L55.3697 19.8064C54.9798 19.319 54.2974 19.124 53.5175 19.124C51.7629 19.124 50.2031 20.4888 49.9107 22.341C49.7157 23.3158 50.0082 24.1931 50.4956 24.778C50.983 25.3629 51.6654 25.5579 52.5427 25.5579C54.005 25.5579 54.7848 24.6805 54.7848 24.6805L54.6873 25.168C54.6873 25.3629 54.7848 25.4604 54.9798 25.4604H56.442C56.637 25.4604 56.832 25.2654 56.9294 25.0705L57.8068 19.6114C57.7093 19.514 57.6118 19.319 57.4169 19.319ZM55.1747 22.4384C54.9798 23.3158 54.2974 23.9982 53.3226 23.9982C52.8352 23.9982 52.4452 23.8032 52.2503 23.6082C52.0553 23.3158 51.9578 22.9259 51.9578 22.4384C52.0553 21.5611 52.8352 20.8787 53.7125 20.8787C54.1999 20.8787 54.4924 21.0737 54.7848 21.2686C55.1748 21.5611 55.2722 22.0485 55.1747 22.4384Z" fill="#139AD6"/>
<path d="M42.1136 19.319H40.4564C40.2614 19.319 40.1639 19.4165 40.0665 19.514L37.9218 22.8284L36.947 19.7089C36.8495 19.514 36.752 19.4165 36.4596 19.4165H34.8999C34.7049 19.4165 34.6074 19.6114 34.6074 19.8064L36.3621 24.973L34.7049 27.3126C34.6074 27.5075 34.7049 27.8 34.8999 27.8H36.4596C36.6546 27.8 36.752 27.7025 36.8495 27.605L42.2111 19.9039C42.5035 19.6114 42.3086 19.319 42.1136 19.319Z" fill="#263B80"/>
<path d="M59.2691 16.492L57.9043 25.2654C57.9043 25.4604 58.0018 25.5579 58.1967 25.5579H59.5615C59.7565 25.5579 59.9514 25.3629 60.0489 25.168L61.4137 16.5895C61.4137 16.3945 61.3162 16.297 61.1212 16.297H59.5615C59.464 16.1995 59.3665 16.297 59.2691 16.492Z" fill="#139AD6"/>
<path d="M11.2105 13.2751C10.5281 12.4952 9.26087 12.1053 7.50618 12.1053H2.63204C2.33959 12.1053 2.04714 12.3977 1.94966 12.6902L0 25.4604C0 25.7529 0.194966 25.9478 0.389931 25.9478H3.4119L4.19176 21.1712V21.3661C4.28925 21.0737 4.58169 20.7812 4.87414 20.7812H6.33638C9.16339 20.7812 11.308 19.6114 11.9904 16.3945V16.1021C11.8929 16.1021 11.8929 16.1021 11.9904 16.1021C12.0879 14.8348 11.8929 14.0549 11.2105 13.2751Z" fill="#263B80"/>
<path d="M11.8926 16.1021V16.3945C11.2102 19.7089 9.06559 20.7812 6.23859 20.7812H4.77635C4.4839 20.7812 4.19145 21.0737 4.09397 21.3661L3.11914 27.3126C3.11914 27.5076 3.21662 27.7025 3.50907 27.7025H6.04363C6.33607 27.7025 6.62852 27.5076 6.62852 27.2151V27.1176L7.11594 24.0957V23.9007C7.11594 23.6082 7.40839 23.4133 7.70083 23.4133H8.09077C10.5278 23.4133 12.4775 22.4384 12.9649 19.514C13.1599 18.3442 13.0624 17.2719 12.4775 16.5895C12.38 16.3945 12.185 16.1995 11.8926 16.1021Z" fill="#139AD6"/>
<path d="M11.2102 15.8096C11.1127 15.8096 11.0152 15.7121 10.9177 15.7121C10.8202 15.7121 10.7228 15.7121 10.6253 15.6146C10.2353 15.5172 9.84541 15.5172 9.358 15.5172H5.55617C5.45868 15.5172 5.3612 15.5172 5.26372 15.6146C5.06875 15.7121 4.97127 15.9071 4.97127 16.1021L4.19141 21.1712V21.3661C4.28889 21.0737 4.58134 20.7812 4.87379 20.7812H6.33603C9.16303 20.7812 11.3077 19.6114 11.99 16.3945C11.99 16.297 11.99 16.1995 12.0875 16.1021C11.8925 16.0046 11.7951 15.9071 11.6001 15.9071C11.3077 15.8096 11.3077 15.8096 11.2102 15.8096Z" fill="#232C65"/>
</g>
<defs>
<clipPath id="clip0_2230_4719">
<rect width="61.5789" height="40" fill="white"/>
</clipPath>
</defs>
</svg>
