<svg width="40" height="40" viewBox="0 0 40 40" fill="none" xmlns="http://www.w3.org/2000/svg">
<g id="Frame" clip-path="url(#clip0_2209_2643)">
<g id="Group">
<path id="Vector" d="M40 31.1275C40 31.9474 39.3361 32.6113 38.5161 32.6113H1.48354C0.664158 32.6113 0 31.9474 0 31.1275V8.87243C0 8.05305 0.664158 7.38866 1.48354 7.38866H38.5162C39.3362 7.38866 40.0001 8.05305 40.0001 8.87243L40 31.1275Z" fill="#21246E"/>
<path id="Vector_2" d="M15.2026 14.6921L10.752 25.3123H7.84703L5.65842 16.8376C5.52365 16.315 5.40848 16.1248 5.00449 15.9029C4.34275 15.5451 3.25415 15.2094 2.29297 15.0004L2.3602 14.6921H7.03382C7.62989 14.6921 8.16576 15.0897 8.30053 15.7751L9.45777 21.9219L12.3162 14.6921L15.2026 14.6921ZM26.5812 21.8432C26.5941 19.0418 22.7048 18.8893 22.7328 17.636C22.7404 17.2535 23.103 16.8487 23.8971 16.7464C24.2914 16.694 25.3765 16.6556 26.6065 17.2202L27.0886 14.9692C26.4268 14.729 25.5762 14.499 24.519 14.499C21.8037 14.499 19.8921 15.9432 19.876 18.0097C19.8582 19.5379 21.2398 20.3906 22.282 20.8996C23.3521 21.4204 23.7098 21.7529 23.7061 22.2199C23.6991 22.9327 22.8523 23.2442 22.0625 23.2582C20.6809 23.2797 19.8796 22.8848 19.2396 22.5868L18.7422 24.9152C19.3832 25.2095 20.57 25.4651 21.7983 25.4801C24.6841 25.4801 26.572 24.0512 26.5812 21.8432ZM33.7517 25.3122H36.2932L34.0756 14.692H31.7293C31.2021 14.692 30.7577 14.9995 30.5596 15.4704L26.4396 25.3121H29.3233L29.8957 23.726H33.4207L33.7517 25.3122ZM30.6861 21.5494L32.1327 17.5618L32.965 21.5494H30.6861ZM19.1287 14.6921L16.8556 25.3122H14.1078L16.3814 14.692H19.1287V14.6921Z" fill="white"/>
</g>
</g>
<defs>
<clipPath id="clip0_2209_2643">
<rect width="40" height="40" fill="white"/>
</clipPath>
</defs>
</svg>
